STARTFONT 2.1
COMMENT
COMMENT Converted from OpenType font "Patriot-Medium.otf" by "otf2bdf 3.0".
COMMENT
FONT -FreeType-Patriot Medium-Medium-R-Normal--39-280-100-100-P-192-ISO10646-1
SIZE 28 100 100
FONTBOUNDINGBOX 65 52 -15 -11
STARTPROPERTIES 19
FOUNDRY "FreeType"
FAMILY_NAME "Patriot Medium"
WEIGHT_NAME "Medium"
SLANT "R"
SETWIDTH_NAME "Normal"
ADD_STYLE_NAME ""
PIXEL_SIZE 39
POINT_SIZE 280
RESOLUTION_X 100
RESOLUTION_Y 100
SPACING "P"
AVERAGE_WIDTH 192
CHARSET_REGISTRY "ISO10646"
CHARSET_ENCODING "1"
FONT_ASCENT 39
FONT_DESCENT 7
COPYRIGHT "Copyright © 2020 by Behalf Studio. All rights reserved."
_OTF_FONTFILE "Patriot-Medium.otf"
_OTF_PSNAME "Patriot-Medium"
ENDPROPERTIES
CHARS 426
STARTCHAR 0020
ENCODING 32
SWIDTH 360 0
DWIDTH 14 0
BBX 0 0 0 0
BITMAP
ENDCHAR
STARTCHAR 0021
ENCODING 33
SWIDTH 257 0
DWIDTH 10 0
BBX 6 28 2 -1
BITMAP
78
78
78
78
78
78
78
78
78
78
78
78
78
78
78
78
78
00
00
00
00
30
7C
FC
FC
FC
7C
10
ENDCHAR
STARTCHAR 0022
ENCODING 34
SWIDTH 334 0
DWIDTH 13 0
BBX 9 8 2 19
BITMAP
E380
E380
E380
E380
E380
E380
E380
E380
ENDCHAR
STARTCHAR 0023
ENCODING 35
SWIDTH 642 0
DWIDTH 25 0
BBX 21 27 2 0
BITMAP
03C1E0
03C1E0
03C1E0
03C3C0
0383C0
0783C0
0783C0
0783C0
7FFFF8
7FFFF8
7FFFF8
070780
0F0780
0F0780
0F0780
0F0780
FFFFF0
FFFFF0
FFFFF0
1E0F00
1E0F00
1E0F00
1E0F00
1E0F00
1E1E00
1E1E00
3C1E00
ENDCHAR
STARTCHAR 0024
ENCODING 36
SWIDTH 540 0
DWIDTH 21 0
BBX 18 35 2 -4
BITMAP
01E000
01E000
01E000
03E000
0FFC00
1FFE00
3FFF00
3FFF00
7E1F80
7C0F80
7C0E00
7C0000
3E0000
3F0000
1FC000
0FF000
07F800
03FC00
00FE00
007F00
001F80
000F80
000FC0
1807C0
F807C0
FC0F80
7E1F80
7FFF80
3FFF00
1FFE00
07FC00
01E000
01E000
01E000
01E000
ENDCHAR
STARTCHAR 0025
ENCODING 37
SWIDTH 900 0
DWIDTH 35 0
BBX 32 29 2 -1
BITMAP
07C00000
1FF001E0
3FF803C0
7FF80380
787C0780
F03C0F00
F03C1E00
F03C1E00
F03C3C00
78787800
7FF87800
3FF0F000
1FE1E000
0001C000
0003C000
000783E0
000F0FF8
000F1FFC
001E1FFE
003C3E1E
003C3C1F
00783C0F
00F03C0F
00E03C1E
01E03E3E
03C01FFE
07800FFC
078007F8
00000080
ENDCHAR
STARTCHAR 0026
ENCODING 38
SWIDTH 668 0
DWIDTH 26 0
BBX 22 29 2 -1
BITMAP
01F000
07FC00
1FFF00
1FFF80
3FFFC0
7E0F80
7C0700
7C0200
7C0000
7C0000
7E0000
3F0000
3FFFFC
1FFFFC
3FFFFC
3FFFFC
7F01F0
7C01F0
F801F0
F801F0
F803E0
F803E0
FC07E0
7E0FC0
7FFFC0
3FFF80
1FFF00
07FC00
004000
ENDCHAR
STARTCHAR 0027
ENCODING 39
SWIDTH 180 0
DWIDTH 7 0
BBX 3 8 2 19
BITMAP
E0
E0
E0
E0
E0
E0
E0
E0
ENDCHAR
STARTCHAR 0028
ENCODING 40
SWIDTH 334 0
DWIDTH 13 0
BBX 9 36 2 -6
BITMAP
0300
0780
0780
0F00
0F00
1E00
1E00
3C00
3C00
7800
7800
7800
7000
F000
F000
F000
F000
F000
F000
F000
F000
F000
F000
7000
7000
7800
7800
3800
3C00
3C00
1E00
1E00
0F00
0780
0780
0300
ENDCHAR
STARTCHAR 0029
ENCODING 41
SWIDTH 334 0
DWIDTH 13 0
BBX 9 36 2 -6
BITMAP
3000
F000
7800
7800
3C00
1C00
1E00
0E00
0F00
0F00
0700
0780
0780
0380
0380
0380
0380
0380
0380
0380
0380
0380
0380
0780
0780
0700
0700
0F00
0E00
1E00
1E00
3C00
3C00
7800
F000
7000
ENDCHAR
STARTCHAR 002A
ENCODING 42
SWIDTH 437 0
DWIDTH 17 0
BBX 14 13 2 14
BITMAP
0300
0780
0780
0780
F738
FBFC
FFF8
3FF0
0FC0
1FE0
3DF0
3CF0
38E0
ENDCHAR
STARTCHAR 002B
ENCODING 43
SWIDTH 565 0
DWIDTH 22 0
BBX 18 18 2 4
BITMAP
01E000
01E000
01E000
01E000
01E000
01E000
01E000
FFFFC0
FFFFC0
FFFFC0
FFFFC0
01E000
01E000
01E000
01E000
01E000
01E000
01E000
ENDCHAR
STARTCHAR 002C
ENCODING 44
SWIDTH 257 0
DWIDTH 10 0
BBX 7 8 2 -5
BITMAP
3E
3C
38
78
70
70
E0
E0
ENDCHAR
STARTCHAR 002D
ENCODING 45
SWIDTH 437 0
DWIDTH 17 0
BBX 13 4 2 7
BITMAP
FFF8
FFF8
FFF8
FFF8
ENDCHAR
STARTCHAR 002E
ENCODING 46
SWIDTH 257 0
DWIDTH 10 0
BBX 6 7 2 -1
BITMAP
30
7C
FC
FC
FC
7C
10
ENDCHAR
STARTCHAR 002F
ENCODING 47
SWIDTH 411 0
DWIDTH 16 0
BBX 12 29 2 -1
BITMAP
00F0
00F0
00E0
01E0
01E0
01E0
03C0
03C0
03C0
03C0
0780
0780
0780
0F00
0F00
0F00
0E00
1E00
1E00
1E00
3C00
3C00
3C00
3800
7800
7800
7800
F000
F000
ENDCHAR
STARTCHAR 0030
ENCODING 48
SWIDTH 720 0
DWIDTH 28 0
BBX 26 29 1 -1
BITMAP
003F0000
01FFE000
03FFF800
0FFFFC00
1FFFFE00
1F807E00
3F003F00
3E001F80
7C000F80
7C000F80
780007C0
780007C0
F80007C0
F80007C0
F80007C0
F80007C0
F80007C0
780007C0
7C000780
7C000F80
7E000F80
3E001F00
3F003F00
1FC0FE00
0FFFFC00
07FFF800
03FFF000
00FFC000
000C0000
ENDCHAR
STARTCHAR 0031
ENCODING 49
SWIDTH 308 0
DWIDTH 12 0
BBX 9 27 2 0
BITMAP
0F80
0F80
FF80
FF80
FF80
FF80
0F80
0F80
0F80
0F80
0F80
0F80
0F80
0F80
0F80
0F80
0F80
0F80
0F80
0F80
0F80
0F80
0F80
0F80
0F80
0F80
0F80
ENDCHAR
STARTCHAR 0032
ENCODING 50
SWIDTH 565 0
DWIDTH 22 0
BBX 19 28 1 0
BITMAP
01F000
07FE00
0FFF00
1FFF80
3FFFC0
7E07C0
7C03E0
7C03E0
7803E0
1803E0
0003E0
0003C0
0007C0
000FC0
000F80
001F00
003F00
007E00
00FC00
01F800
03F000
07E000
0FC000
1F8000
3FFFE0
7FFFE0
FFFFE0
FFFFE0
ENDCHAR
STARTCHAR 0033
ENCODING 51
SWIDTH 514 0
DWIDTH 20 0
BBX 18 28 2 -1
BITMAP
FFFF00
FFFF00
FFFE00
FFFE00
007C00
00F800
01F000
03E000
0FC000
1FF800
3FFC00
7FFE00
3FFF00
181F80
000F80
000F80
0007C0
0007C0
0007C0
000780
000F80
300F80
F83F00
FFFF00
FFFE00
3FFC00
1FF000
038000
ENDCHAR
STARTCHAR 0034
ENCODING 52
SWIDTH 540 0
DWIDTH 21 0
BBX 20 27 1 0
BITMAP
003F80
01FF80
03FF80
0FFF80
1FFF80
1F8F80
3F0F80
3E0F80
7C0F80
7C0F80
F80F80
F80F80
F80F80
F80F80
F00F80
FFFFF0
FFFFF0
FFFFF0
FFFFF0
000F80
000F80
000F80
000F80
000F80
000F80
000F80
000F80
ENDCHAR
STARTCHAR 0035
ENCODING 53
SWIDTH 540 0
DWIDTH 21 0
BBX 18 28 2 -1
BITMAP
7FFF80
7FFF80
7FFF80
7FFF80
780000
780000
780000
780000
79E000
7FFC00
FFFE00
FFFF00
FFFF80
781F80
100FC0
0007C0
0007C0
0007C0
0007C0
0007C0
0007C0
300F80
7C1F80
FFFF00
7FFF00
3FFC00
0FF800
008000
ENDCHAR
STARTCHAR 0036
ENCODING 54
SWIDTH 617 0
DWIDTH 24 0
BBX 21 28 2 -1
BITMAP
007E00
00FC00
00F800
01F000
03F000
03E000
07C000
0FF800
1FFF00
1FFF80
3FFFC0
7F8FE0
7E03F0
FC01F0
F800F8
F800F8
F000F8
F000F8
F800F8
F800F8
F801F0
7C01F0
7F07E0
3FFFE0
1FFFC0
0FFF80
03FE00
002000
ENDCHAR
STARTCHAR 0037
ENCODING 55
SWIDTH 462 0
DWIDTH 18 0
BBX 18 27 1 0
BITMAP
FFFFC0
FFFFC0
FFFF80
FFFF80
000F80
001F00
001F00
001E00
003E00
003E00
007C00
3FFF00
3FFF00
3FFF00
3FFF00
00F000
01F000
01F000
03E000
03E000
03C000
07C000
07C000
0F8000
0F8000
0F0000
1F0000
ENDCHAR
STARTCHAR 0038
ENCODING 56
SWIDTH 565 0
DWIDTH 22 0
BBX 20 29 1 -1
BITMAP
00F000
03FC00
07FF00
0FFF00
1F9F80
1F0F80
1E0780
1E0780
1F0780
1F8F80
0FFF00
0FFF00
1FFF80
3FFFC0
7E07E0
7C03E0
7801F0
F801F0
F801F0
F801F0
F801F0
F801F0
7C03E0
7E07E0
3FFFC0
1FFF80
0FFF00
07FE00
006000
ENDCHAR
STARTCHAR 0039
ENCODING 57
SWIDTH 591 0
DWIDTH 23 0
BBX 22 28 1 0
BITMAP
00FC00
03FF00
0FFFC0
1FFFE0
3FFFF0
3F03F0
7E01F8
7C00F8
780078
F80078
F8007C
F80078
780078
7C00F8
7C01F8
3F03F0
3FFFF0
1FFFE0
0FFFC0
03FFC0
000F80
001F00
003F00
007E00
007C00
00F800
01F800
01F000
ENDCHAR
STARTCHAR 003A
ENCODING 58
SWIDTH 257 0
DWIDTH 10 0
BBX 6 20 2 -1
BITMAP
78
FC
FC
FC
7C
38
00
00
00
00
00
00
00
30
7C
FC
FC
FC
7C
10
ENDCHAR
STARTCHAR 003B
ENCODING 59
SWIDTH 282 0
DWIDTH 11 0
BBX 7 24 2 -5
BITMAP
3C
7E
7E
7E
3E
1C
00
00
00
00
00
00
00
00
00
00
3E
3C
38
78
70
70
E0
E0
ENDCHAR
STARTCHAR 003C
ENCODING 60
SWIDTH 565 0
DWIDTH 22 0
BBX 18 17 2 4
BITMAP
000040
0001C0
000FC0
007FC0
01FF00
0FFC00
7FE000
FF0000
F80000
FC0000
FF8000
3FF000
07FE00
00FFC0
003FC0
0007C0
0000C0
ENDCHAR
STARTCHAR 003D
ENCODING 61
SWIDTH 565 0
DWIDTH 22 0
BBX 18 12 2 7
BITMAP
FFFFC0
FFFFC0
FFFFC0
FFFFC0
000000
000000
000000
000000
FFFFC0
FFFFC0
FFFFC0
FFFFC0
ENDCHAR
STARTCHAR 003E
ENCODING 62
SWIDTH 565 0
DWIDTH 22 0
BBX 18 17 2 4
BITMAP
800000
E00000
FC0000
FF8000
3FF000
07FC00
01FF80
003FC0
0007C0
000FC0
007FC0
03FF00
1FF800
7FE000
FF0000
F80000
C00000
ENDCHAR
STARTCHAR 003F
ENCODING 63
SWIDTH 437 0
DWIDTH 17 0
BBX 13 29 2 -1
BITMAP
0700
1FE0
3FF0
7FF8
FDF8
F078
1078
0078
00F8
01F0
01F0
03E0
07C0
0780
0F80
0F00
0F00
0F00
0F00
0000
0000
0000
0600
0F80
1F80
1F80
1F80
0F80
0200
ENDCHAR
STARTCHAR 0040
ENCODING 64
SWIDTH 797 0
DWIDTH 31 0
BBX 28 29 2 -1
BITMAP
001FE000
00FFF800
03FFFE00
07E01F00
0F800780
1E0003C0
3C0001C0
380400E0
781FF0E0
703FF0E0
707FF0F0
F0F8F070
E0F0F0F0
E0F070E0
E0F0F0E0
E0F0F0E0
E0F1F1C0
F0FFF3C0
707FFF80
703F3F00
78080800
3C000000
1C000000
1F000300
0F800F80
07F03F00
01FFFC00
007FF800
00030000
ENDCHAR
STARTCHAR 0041
ENCODING 65
SWIDTH 565 0
DWIDTH 22 0
BBX 20 28 2 0
BITMAP
03E000
0FF800
1FFC00
3FFE00
7FFF00
7C1F00
F81F80
F80F80
F80F80
F80F80
F80F80
F80F80
F80F80
F80F80
F80F80
F80F80
F80F80
F80F80
F80F80
F80F80
F80F80
F80F80
F80F80
F80F80
FFFFF0
FFFFF0
FFFFF0
FFFFF0
ENDCHAR
STARTCHAR 0042
ENCODING 66
SWIDTH 617 0
DWIDTH 24 0
BBX 22 27 1 0
BITMAP
1FFF80
1FFFE0
1FFFF0
1FFFF8
1F03F8
1F00F8
1F007C
1F007C
1F0078
1F00F8
1F01F8
FFFFF0
FFFFF0
FFFFF0
FFFFF8
1F03FC
1F00FC
1F007C
1F007C
1F007C
1F007C
1F00FC
1FFFFC
1FFFF8
1FFFF0
1FFFE0
1FFF80
ENDCHAR
STARTCHAR 0043
ENCODING 67
SWIDTH 668 0
DWIDTH 26 0
BBX 25 29 1 -1
BITMAP
000FC000
007FF800
01FFFE00
07FFFF00
0FFFFF80
1FE03F00
1F800E00
3F000400
3E000000
7C000000
7C000000
7C000000
F8000000
F8000000
F8000000
F8000000
F8000000
7C000000
7C000000
7E000000
3E000000
3F000600
1FC00F00
0FF03F80
07FFFF80
03FFFF00
01FFFC00
007FF000
00030000
ENDCHAR
STARTCHAR 0044
ENCODING 68
SWIDTH 668 0
DWIDTH 26 0
BBX 23 27 2 0
BITMAP
FFF800
FFFF00
FFFFC0
FFFFE0
F81FF0
F803F8
F801F8
F800FC
F8007C
F8007C
F8003E
F8003E
F8003E
F8003E
F8003E
F8003E
F8007C
F8007C
F8007C
F800FC
F801F8
F807F0
FFFFF0
FFFFE0
FFFF80
FFFF00
FFF800
ENDCHAR
STARTCHAR 0045
ENCODING 69
SWIDTH 488 0
DWIDTH 19 0
BBX 19 27 1 0
BITMAP
3FFC00
3FFC00
3FFC00
3FFC00
3E0000
3E0000
3E0000
3E0000
3E0000
3E0000
3E0000
FFFF00
FFFF00
FFFF00
FFFF00
3E0000
3E0000
3E0000
3E0000
3E0000
3E0000
3E0000
3FFFE0
3FFFE0
3FFFE0
3FFFE0
3FFFE0
ENDCHAR
STARTCHAR 0046
ENCODING 70
SWIDTH 462 0
DWIDTH 18 0
BBX 17 27 1 0
BITMAP
1FFF80
1FFF80
1FFF80
1FFF80
1F0000
1F0000
1F0000
1F0000
1F0000
1F0000
1F0000
1F0000
FFFF00
FFFF00
FFFF00
FFFF00
1F0000
1F0000
1F0000
1F0000
1F0000
1F0000
1F0000
1F0000
1F0000
1F0000
1F0000
ENDCHAR
STARTCHAR 0047
ENCODING 71
SWIDTH 822 0
DWIDTH 32 0
BBX 31 29 1 -1
BITMAP
000FC000
007FF800
01FFFE00
07FFFF00
0FFFFF80
1FE01F80
1F800F00
3F000400
3E000000
7C000000
7C000000
7C000000
F803FFFE
F803FFFE
F803FFFE
F803FFFE
F803FFFE
7C0001F8
7C0001F0
7E0001F0
3E0003F0
3F0007E0
1FC00FE0
0FF03FC0
07FFFF80
03FFFF00
01FFFE00
007FF800
00030000
ENDCHAR
STARTCHAR 0048
ENCODING 72
SWIDTH 565 0
DWIDTH 22 0
BBX 19 27 1 0
BITMAP
3E03E0
3E03E0
3E03E0
3E03E0
3E03E0
3E03E0
3E03E0
3E03E0
3E03E0
3E03E0
3E03E0
FFFFE0
FFFFE0
FFFFE0
FFFFE0
FFFFE0
3E03E0
3E03E0
3E03E0
3E03E0
3E03E0
3E03E0
3E03E0
3E03E0
3E03E0
3E03E0
3E03E0
ENDCHAR
STARTCHAR 0049
ENCODING 73
SWIDTH 205 0
DWIDTH 8 0
BBX 10 31 -1 0
BITMAP
0400
0400
0C00
0E00
FFC0
3F80
1F00
1F00
3B00
2180
0000
0000
0000
0000
1F00
1F00
1F00
1F00
1F00
1F00
1F00
1F00
1F00
1F00
1F00
1F00
1F00
1F00
1F00
1F00
1F00
ENDCHAR
STARTCHAR 004A
ENCODING 74
SWIDTH 462 0
DWIDTH 18 0
BBX 16 28 1 -1
BITMAP
00FF
00FF
00FF
00FF
001F
001F
001F
001F
001F
001F
001F
001F
001F
001F
001F
001F
001F
001F
001F
001E
103E
303E
F87E
FFFC
7FFC
7FF8
1FF0
0300
ENDCHAR
STARTCHAR 004B
ENCODING 75
SWIDTH 540 0
DWIDTH 21 0
BBX 19 27 1 0
BITMAP
3E07C0
3E07C0
3E07C0
3E07C0
3E07C0
3E07C0
3E07C0
3E0F80
3E0F80
3E0F80
3E1F80
FFFF00
FFFF00
FFFF80
FFFFC0
3E0FC0
3E07E0
3E03E0
3E03E0
3E03E0
3E03E0
3E03E0
3E03E0
3E03E0
3E03E0
3E03E0
3E03E0
ENDCHAR
STARTCHAR 004C
ENCODING 76
SWIDTH 437 0
DWIDTH 17 0
BBX 15 27 2 0
BITMAP
F800
F800
F800
F800
F800
F800
F800
F800
F800
F800
F800
F800
F800
F800
F800
F800
F800
F800
F800
F800
F800
F800
FFFE
FFFE
FFFE
FFFE
FFFE
ENDCHAR
STARTCHAR 004D
ENCODING 77
SWIDTH 874 0
DWIDTH 34 0
BBX 31 28 1 0
BITMAP
20000000
7003803E
7C03C03E
FE03E03E
FF03F83E
3FC3FC3E
3FE3FE3E
3FF3FFBE
3FFBFFFE
3FFFEFFE
3E7FE7FE
3E3FE3FE
3E1FE0FE
3E07E07E
3E03E03E
3E03E03E
3E03E03E
3E03E03E
3E03E03E
3E03E03E
3E03E03E
3E03E03E
3E03E03E
3E03E03E
3E03E03E
3E03E03E
3E03E03E
3E03E03E
ENDCHAR
STARTCHAR 004E
ENCODING 78
SWIDTH 540 0
DWIDTH 21 0
BBX 19 28 1 0
BITMAP
200000
7003E0
7C03E0
FE03E0
FF03E0
3FC3E0
3FE3E0
3FF3E0
3FFBE0
3FFFE0
3EFFE0
3E3FE0
3E1FE0
3E0FE0
3E07E0
3E03E0
3E03E0
3E03E0
3E03E0
3E03E0
3E03E0
3E03E0
3E03E0
3E03E0
3E03E0
3E03E0
3E03E0
3E03E0
ENDCHAR
STARTCHAR 004F
ENCODING 79
SWIDTH 797 0
DWIDTH 31 0
BBX 30 29 1 -1
BITMAP
000FC000
007FF800
01FFFE00
07FFFF80
0FFFFFC0
1FE01FC0
1F8007E0
3F0003F0
3E0001F0
7C0001F8
7C0000F8
7C0000F8
F8000078
F800007C
F800007C
F800007C
F8000078
7C0000F8
7C0000F8
7E0001F8
3E0001F0
3F0003F0
1FC00FE0
0FF03FC0
07FFFF80
03FFFF00
01FFFE00
007FF800
00030000
ENDCHAR
STARTCHAR 0050
ENCODING 80
SWIDTH 565 0
DWIDTH 22 0
BBX 21 27 1 0
BITMAP
3FFE00
3FFF80
3FFFC0
3FFFE0
3E07F0
3E01F0
3E01F8
3E00F8
3E00F8
3E00F8
3E01F0
3E03F0
FFFFF0
FFFFE0
FFFFC0
FFFF80
FFFC00
3E0000
3E0000
3E0000
3E0000
3E0000
3E0000
3E0000
3E0000
3E0000
3E0000
ENDCHAR
STARTCHAR 0051
ENCODING 81
SWIDTH 797 0
DWIDTH 31 0
BBX 30 29 1 -1
BITMAP
000FC000
007FF800
01FFFE00
07FFFF80
0FFFFFC0
1FE01FC0
1F8007E0
3F0003F0
3E0001F0
7C0001F8
7C0000F8
7C0000F8
F8000078
F800007C
F800007C
F800007C
F8000078
7C0000F8
7C0000F8
7E000DF8
3E001FF0
3F003FF0
1FC03FE0
0FF03FC0
07FFFFE0
03FFFFF0
01FFFFE0
007FF9C0
00030080
ENDCHAR
STARTCHAR 0052
ENCODING 82
SWIDTH 591 0
DWIDTH 23 0
BBX 21 27 1 0
BITMAP
3FFF00
3FFFC0
3FFFE0
3FFFF0
3E07F8
3E01F8
3E00F8
3E0078
3E0078
3E00F8
3E00F8
3E03F8
FFFFF0
FFFFE0
FFFFC0
FFFFC0
FFFFE0
3E03E0
3E03F0
3E01F0
3E01F0
3E01F0
3E01F0
3E01F0
3E01F0
3E01F0
3E01F0
ENDCHAR
STARTCHAR 0053
ENCODING 83
SWIDTH 488 0
DWIDTH 19 0
BBX 18 29 1 -1
BITMAP
03E000
0FFC00
1FFE00
3FFF00
3FFF00
7E1F80
7C0F80
7C0E00
7C0000
3E0000
3F0000
1FC000
0FF000
07F800
03FC00
00FE00
007F00
001F80
000F80
000FC0
1807C0
F807C0
FC0F80
7E1F80
7FFF80
3FFF00
1FFE00
07FC00
00C000
ENDCHAR
STARTCHAR 0054
ENCODING 84
SWIDTH 514 0
DWIDTH 20 0
BBX 18 27 1 0
BITMAP
FFFFC0
FFFFC0
FFFFC0
FFFFC0
01F000
01F000
01F000
01F000
01F000
01F000
01F000
01F000
01F000
01F000
01F000
01F000
01F000
01F000
01F000
01F000
01F000
01F000
01F000
01F000
01F000
01F000
01F000
ENDCHAR
STARTCHAR 0055
ENCODING 85
SWIDTH 514 0
DWIDTH 20 0
BBX 17 28 2 -1
BITMAP
F80F80
F80F80
F80F80
F80F80
F80F80
F80F80
F80F80
F80F80
F80F80
F80F80
F80F80
F80F80
F80F80
F80F80
F80F80
F80F80
F80F80
F80F80
F80F80
F80F80
F80F80
F81F00
7C3F00
7FFF00
3FFE00
1FFC00
0FF800
018000
ENDCHAR
STARTCHAR 0056
ENCODING 86
SWIDTH 488 0
DWIDTH 19 0
BBX 17 27 0 0
BITMAP
F80F80
F80F80
F80F80
F80F80
F80F80
F80F80
F80F80
F80F80
F80F80
F80F80
F80F80
F80F80
F80F80
780F80
780F80
7C0F80
7C0F80
7C1F00
7C1F00
3E1F00
3E1F00
3E3E00
1F3E00
1FFC00
0FFC00
07F800
03F000
ENDCHAR
STARTCHAR 0057
ENCODING 87
SWIDTH 771 0
DWIDTH 30 0
BBX 29 27 0 0
BITMAP
F80F80F8
F80F80F8
F80F80F8
F80F80F8
F80F80F8
F80F80F8
F80F80F8
F80F80F8
F80F80F8
F80F80F8
F80F80F8
F80F80F8
F80F80F8
780F80F8
780F80F8
7C0F80F0
7C0F81F0
7C1FC1F0
7C1FC1F0
3E1FC1F0
3E1FE3E0
3E3FE3E0
1F3FF7C0
1FFDF7C0
0FFCFF80
07F8FF00
03F07F00
ENDCHAR
STARTCHAR 0058
ENCODING 88
SWIDTH 514 0
DWIDTH 20 0
BBX 17 27 2 0
BITMAP
F80F80
F80F80
F80F80
F80F80
F80F80
F80F80
F80F80
F80F80
7C1F00
7FFF00
3FFE00
3FFE00
3FFE00
7FFF00
7E3F00
FC1F80
F80F80
F80F80
F80F80
F80F80
F80F80
F80F80
F80F80
F80F80
F80F80
F80F80
F80F80
ENDCHAR
STARTCHAR 0059
ENCODING 89
SWIDTH 514 0
DWIDTH 20 0
BBX 17 27 2 0
BITMAP
F00F80
F00F80
F00F80
F00F80
F00F80
F00F80
F00F80
F00F80
F00F80
F00F80
F00F80
F00F80
F00F80
F81F00
F81F00
FC3F00
7FFE00
7FFE00
3FFC00
1FF800
03E000
03E000
03E000
03E000
03E000
03E000
03E000
ENDCHAR
STARTCHAR 005A
ENCODING 90
SWIDTH 514 0
DWIDTH 20 0
BBX 19 27 1 0
BITMAP
FFFFE0
FFFFE0
FFFFC0
FFFFC0
000F80
001F00
001F00
003E00
007E00
007C00
00F800
00F800
01F000
03F000
03E000
07E000
07C000
0F8000
1F8000
1F0000
3F0000
3E0000
7FFFC0
FFFFC0
FFFFC0
FFFFC0
FFFFC0
ENDCHAR
STARTCHAR 005B
ENCODING 91
SWIDTH 257 0
DWIDTH 10 0
BBX 6 38 2 -6
BITMAP
FC
FC
FC
E0
E0
E0
E0
E0
E0
E0
E0
E0
E0
E0
E0
E0
E0
E0
E0
E0
E0
E0
E0
E0
E0
E0
E0
E0
E0
E0
E0
E0
E0
E0
E0
FC
FC
FC
ENDCHAR
STARTCHAR 005C
ENCODING 92
SWIDTH 411 0
DWIDTH 16 0
BBX 12 29 2 -1
BITMAP
F000
7000
7800
7800
7800
3C00
3C00
3C00
1C00
1E00
1E00
1E00
0F00
0F00
0F00
0700
0780
0780
0780
03C0
03C0
03C0
01C0
01E0
01E0
01E0
00F0
00F0
00F0
ENDCHAR
STARTCHAR 005D
ENCODING 93
SWIDTH 257 0
DWIDTH 10 0
BBX 6 38 2 -6
BITMAP
FC
FC
FC
1C
1C
1C
1C
1C
1C
1C
1C
1C
1C
1C
1C
1C
1C
1C
1C
1C
1C
1C
1C
1C
1C
1C
1C
1C
1C
1C
1C
1C
1C
1C
1C
FC
FC
FC
ENDCHAR
STARTCHAR 005E
ENCODING 94
SWIDTH 514 0
DWIDTH 20 0
BBX 16 11 2 13
BITMAP
03C0
07E0
07E0
0FF0
0E70
1E78
3C3C
3C3C
781E
781E
F00F
ENDCHAR
STARTCHAR 005F
ENCODING 95
SWIDTH 540 0
DWIDTH 21 0
BBX 17 2 2 -4
BITMAP
FFFF80
FFFF80
ENDCHAR
STARTCHAR 0060
ENCODING 96
SWIDTH 154 0
DWIDTH 6 0
BBX 6 6 0 29
BITMAP
F0
70
38
38
1C
0C
ENDCHAR
STARTCHAR 0061
ENCODING 97
SWIDTH 565 0
DWIDTH 22 0
BBX 20 28 2 0
BITMAP
03E000
0FF800
1FFC00
3FFE00
7FFF00
7C1F00
F81F80
F80F80
F80F80
F80F80
F80F80
F80F80
F80F80
F80F80
F80F80
F80F80
F80F80
F80F80
F80F80
F80F80
F80F80
F80F80
F80F80
F80F80
FFFFF0
FFFFF0
FFFFF0
FFFFF0
ENDCHAR
STARTCHAR 0062
ENCODING 98
SWIDTH 617 0
DWIDTH 24 0
BBX 22 27 1 0
BITMAP
1FFF80
1FFFE0
1FFFF0
1FFFF8
1F03F8
1F00F8
1F007C
1F007C
1F0078
1F00F8
1F01F8
FFFFF0
FFFFF0
FFFFF0
FFFFF8
1F03FC
1F00FC
1F007C
1F007C
1F007C
1F007C
1F00FC
1FFFFC
1FFFF8
1FFFF0
1FFFE0
1FFF80
ENDCHAR
STARTCHAR 0063
ENCODING 99
SWIDTH 668 0
DWIDTH 26 0
BBX 25 29 1 -1
BITMAP
000FC000
007FF800
01FFFE00
07FFFF00
0FFFFF80
1FE03F00
1F800E00
3F000400
3E000000
7C000000
7C000000
7C000000
F8000000
F8000000
F8000000
F8000000
F8000000
7C000000
7C000000
7E000000
3E000000
3F000600
1FC00F00
0FF03F80
07FFFF80
03FFFF00
01FFFC00
007FF000
00030000
ENDCHAR
STARTCHAR 0064
ENCODING 100
SWIDTH 668 0
DWIDTH 26 0
BBX 23 27 2 0
BITMAP
FFF800
FFFF00
FFFFC0
FFFFE0
F81FF0
F803F8
F801F8
F800FC
F8007C
F8007C
F8003E
F8003E
F8003E
F8003E
F8003E
F8003E
F8007C
F8007C
F8007C
F800FC
F801F8
F807F0
FFFFF0
FFFFE0
FFFF80
FFFF00
FFF800
ENDCHAR
STARTCHAR 0065
ENCODING 101
SWIDTH 488 0
DWIDTH 19 0
BBX 19 27 1 0
BITMAP
3FFC00
3FFC00
3FFC00
3FFC00
3E0000
3E0000
3E0000
3E0000
3E0000
3E0000
3E0000
FFFF00
FFFF00
FFFF00
FFFF00
3E0000
3E0000
3E0000
3E0000
3E0000
3E0000
3E0000
3FFFE0
3FFFE0
3FFFE0
3FFFE0
3FFFE0
ENDCHAR
STARTCHAR 0066
ENCODING 102
SWIDTH 462 0
DWIDTH 18 0
BBX 17 27 1 0
BITMAP
1FFF80
1FFF80
1FFF80
1FFF80
1F0000
1F0000
1F0000
1F0000
1F0000
1F0000
1F0000
1F0000
FFFF00
FFFF00
FFFF00
FFFF00
1F0000
1F0000
1F0000
1F0000
1F0000
1F0000
1F0000
1F0000
1F0000
1F0000
1F0000
ENDCHAR
STARTCHAR 0067
ENCODING 103
SWIDTH 822 0
DWIDTH 32 0
BBX 31 29 1 -1
BITMAP
000FC000
007FF800
01FFFE00
07FFFF00
0FFFFF80
1FE01F80
1F800F00
3F000400
3E000000
7C000000
7C000000
7C000000
F803FFFE
F803FFFE
F803FFFE
F803FFFE
F803FFFE
7C0001F8
7C0001F0
7E0001F0
3E0003F0
3F0007E0
1FC00FE0
0FF03FC0
07FFFF80
03FFFF00
01FFFE00
007FF800
00030000
ENDCHAR
STARTCHAR 0068
ENCODING 104
SWIDTH 565 0
DWIDTH 22 0
BBX 19 27 1 0
BITMAP
3E03E0
3E03E0
3E03E0
3E03E0
3E03E0
3E03E0
3E03E0
3E03E0
3E03E0
3E03E0
3E03E0
FFFFE0
FFFFE0
FFFFE0
FFFFE0
FFFFE0
3E03E0
3E03E0
3E03E0
3E03E0
3E03E0
3E03E0
3E03E0
3E03E0
3E03E0
3E03E0
3E03E0
ENDCHAR
STARTCHAR 0069
ENCODING 105
SWIDTH 205 0
DWIDTH 8 0
BBX 10 31 -1 0
BITMAP
0400
0400
0C00
0E00
FFC0
3F80
1F00
1F00
3B00
2180
0000
0000
0000
0000
1F00
1F00
1F00
1F00
1F00
1F00
1F00
1F00
1F00
1F00
1F00
1F00
1F00
1F00
1F00
1F00
1F00
ENDCHAR
STARTCHAR 006A
ENCODING 106
SWIDTH 462 0
DWIDTH 18 0
BBX 16 28 1 -1
BITMAP
00FF
00FF
00FF
00FF
001F
001F
001F
001F
001F
001F
001F
001F
001F
001F
001F
001F
001F
001F
001F
001E
103E
303E
F87E
FFFC
7FFC
7FF8
1FF0
0300
ENDCHAR
STARTCHAR 006B
ENCODING 107
SWIDTH 540 0
DWIDTH 21 0
BBX 19 27 1 0
BITMAP
3E07C0
3E07C0
3E07C0
3E07C0
3E07C0
3E07C0
3E07C0
3E0F80
3E0F80
3E0F80
3E1F80
FFFF00
FFFF00
FFFF80
FFFFC0
3E0FC0
3E07E0
3E03E0
3E03E0
3E03E0
3E03E0
3E03E0
3E03E0
3E03E0
3E03E0
3E03E0
3E03E0
ENDCHAR
STARTCHAR 006C
ENCODING 108
SWIDTH 437 0
DWIDTH 17 0
BBX 15 27 2 0
BITMAP
F800
F800
F800
F800
F800
F800
F800
F800
F800
F800
F800
F800
F800
F800
F800
F800
F800
F800
F800
F800
F800
F800
FFFE
FFFE
FFFE
FFFE
FFFE
ENDCHAR
STARTCHAR 006D
ENCODING 109
SWIDTH 874 0
DWIDTH 34 0
BBX 31 28 1 0
BITMAP
20000000
7003803E
7C03C03E
FE03E03E
FF03F83E
3FC3FC3E
3FE3FE3E
3FF3FFBE
3FFBFFFE
3FFFEFFE
3E7FE7FE
3E3FE3FE
3E1FE0FE
3E07E07E
3E03E03E
3E03E03E
3E03E03E
3E03E03E
3E03E03E
3E03E03E
3E03E03E
3E03E03E
3E03E03E
3E03E03E
3E03E03E
3E03E03E
3E03E03E
3E03E03E
ENDCHAR
STARTCHAR 006E
ENCODING 110
SWIDTH 540 0
DWIDTH 21 0
BBX 19 28 1 0
BITMAP
200000
7003E0
7C03E0
FE03E0
FF03E0
3FC3E0
3FE3E0
3FF3E0
3FFBE0
3FFFE0
3EFFE0
3E3FE0
3E1FE0
3E0FE0
3E07E0
3E03E0
3E03E0
3E03E0
3E03E0
3E03E0
3E03E0
3E03E0
3E03E0
3E03E0
3E03E0
3E03E0
3E03E0
3E03E0
ENDCHAR
STARTCHAR 006F
ENCODING 111
SWIDTH 797 0
DWIDTH 31 0
BBX 30 29 1 -1
BITMAP
000FC000
007FF800
01FFFE00
07FFFF80
0FFFFFC0
1FE01FC0
1F8007E0
3F0003F0
3E0001F0
7C0001F8
7C0000F8
7C0000F8
F8000078
F800007C
F800007C
F800007C
F8000078
7C0000F8
7C0000F8
7E0001F8
3E0001F0
3F0003F0
1FC00FE0
0FF03FC0
07FFFF80
03FFFF00
01FFFE00
007FF800
00030000
ENDCHAR
STARTCHAR 0070
ENCODING 112
SWIDTH 565 0
DWIDTH 22 0
BBX 21 27 1 0
BITMAP
3FFE00
3FFF80
3FFFC0
3FFFE0
3E07F0
3E01F0
3E01F8
3E00F8
3E00F8
3E00F8
3E01F0
3E03F0
FFFFF0
FFFFE0
FFFFC0
FFFF80
FFFC00
3E0000
3E0000
3E0000
3E0000
3E0000
3E0000
3E0000
3E0000
3E0000
3E0000
ENDCHAR
STARTCHAR 0071
ENCODING 113
SWIDTH 797 0
DWIDTH 31 0
BBX 30 29 1 -1
BITMAP
000FC000
007FF800
01FFFE00
07FFFF80
0FFFFFC0
1FE01FC0
1F8007E0
3F0003F0
3E0001F0
7C0001F8
7C0000F8
7C0000F8
F8000078
F800007C
F800007C
F800007C
F8000078
7C0000F8
7C0000F8
7E000DF8
3E001FF0
3F003FF0
1FC03FE0
0FF03FC0
07FFFFE0
03FFFFF0
01FFFFE0
007FF9C0
00030080
ENDCHAR
STARTCHAR 0072
ENCODING 114
SWIDTH 591 0
DWIDTH 23 0
BBX 21 27 1 0
BITMAP
3FFF00
3FFFC0
3FFFE0
3FFFF0
3E07F8
3E01F8
3E00F8
3E0078
3E0078
3E00F8
3E00F8
3E03F8
FFFFF0
FFFFE0
FFFFC0
FFFFC0
FFFFE0
3E03E0
3E03F0
3E01F0
3E01F0
3E01F0
3E01F0
3E01F0
3E01F0
3E01F0
3E01F0
ENDCHAR
STARTCHAR 0073
ENCODING 115
SWIDTH 488 0
DWIDTH 19 0
BBX 18 29 1 -1
BITMAP
03E000
0FFC00
1FFE00
3FFF00
3FFF00
7E1F80
7C0F80
7C0E00
7C0000
3E0000
3F0000
1FC000
0FF000
07F800
03FC00
00FE00
007F00
001F80
000F80
000FC0
1807C0
F807C0
FC0F80
7E1F80
7FFF80
3FFF00
1FFE00
07FC00
00C000
ENDCHAR
STARTCHAR 0074
ENCODING 116
SWIDTH 514 0
DWIDTH 20 0
BBX 18 27 1 0
BITMAP
FFFFC0
FFFFC0
FFFFC0
FFFFC0
01F000
01F000
01F000
01F000
01F000
01F000
01F000
01F000
01F000
01F000
01F000
01F000
01F000
01F000
01F000
01F000
01F000
01F000
01F000
01F000
01F000
01F000
01F000
ENDCHAR
STARTCHAR 0075
ENCODING 117
SWIDTH 514 0
DWIDTH 20 0
BBX 17 28 2 -1
BITMAP
F80F80
F80F80
F80F80
F80F80
F80F80
F80F80
F80F80
F80F80
F80F80
F80F80
F80F80
F80F80
F80F80
F80F80
F80F80
F80F80
F80F80
F80F80
F80F80
F80F80
F80F80
F81F00
7C3F00
7FFF00
3FFE00
1FFC00
0FF800
018000
ENDCHAR
STARTCHAR 0076
ENCODING 118
SWIDTH 488 0
DWIDTH 19 0
BBX 17 27 0 0
BITMAP
F80F80
F80F80
F80F80
F80F80
F80F80
F80F80
F80F80
F80F80
F80F80
F80F80
F80F80
F80F80
F80F80
780F80
780F80
7C0F80
7C0F80
7C1F00
7C1F00
3E1F00
3E1F00
3E3E00
1F3E00
1FFC00
0FFC00
07F800
03F000
ENDCHAR
STARTCHAR 0077
ENCODING 119
SWIDTH 771 0
DWIDTH 30 0
BBX 29 27 0 0
BITMAP
F80F80F8
F80F80F8
F80F80F8
F80F80F8
F80F80F8
F80F80F8
F80F80F8
F80F80F8
F80F80F8
F80F80F8
F80F80F8
F80F80F8
F80F80F8
780F80F8
780F80F8
7C0F80F0
7C0F81F0
7C1FC1F0
7C1FC1F0
3E1FC1F0
3E1FE3E0
3E3FE3E0
1F3FF7C0
1FFDF7C0
0FFCFF80
07F8FF00
03F07F00
ENDCHAR
STARTCHAR 0078
ENCODING 120
SWIDTH 514 0
DWIDTH 20 0
BBX 17 27 2 0
BITMAP
F80F80
F80F80
F80F80
F80F80
F80F80
F80F80
F80F80
F80F80
7C1F00
7FFF00
3FFE00
3FFE00
3FFE00
7FFF00
7E3F00
FC1F80
F80F80
F80F80
F80F80
F80F80
F80F80
F80F80
F80F80
F80F80
F80F80
F80F80
F80F80
ENDCHAR
STARTCHAR 0079
ENCODING 121
SWIDTH 514 0
DWIDTH 20 0
BBX 17 27 2 0
BITMAP
F00F80
F00F80
F00F80
F00F80
F00F80
F00F80
F00F80
F00F80
F00F80
F00F80
F00F80
F00F80
F00F80
F81F00
F81F00
FC3F00
7FFE00
7FFE00
3FFC00
1FF800
03E000
03E000
03E000
03E000
03E000
03E000
03E000
ENDCHAR
STARTCHAR 007A
ENCODING 122
SWIDTH 514 0
DWIDTH 20 0
BBX 19 27 1 0
BITMAP
FFFFE0
FFFFE0
FFFFC0
FFFFC0
000F80
001F00
001F00
003E00
007E00
007C00
00F800
00F800
01F000
03F000
03E000
07E000
07C000
0F8000
1F8000
1F0000
3F0000
3E0000
7FFFC0
FFFFC0
FFFFC0
FFFFC0
FFFFC0
ENDCHAR
STARTCHAR 007B
ENCODING 123
SWIDTH 334 0
DWIDTH 13 0
BBX 9 38 2 -6
BITMAP
0780
0F80
1F80
1E00
1C00
1C00
1C00
1C00
1C00
1C00
1C00
1C00
1C00
1C00
1C00
3C00
3C00
F800
F000
F800
F800
3C00
1C00
1C00
1C00
1C00
1C00
1C00
1C00
1C00
1C00
1C00
1C00
1C00
1F80
1F80
0F80
0380
ENDCHAR
STARTCHAR 007C
ENCODING 124
SWIDTH 154 0
DWIDTH 6 0
BBX 3 31 2 -4
BITMAP
E0
E0
E0
E0
E0
E0
E0
E0
E0
E0
E0
E0
E0
E0
E0
E0
E0
E0
E0
E0
E0
E0
E0
E0
E0
E0
E0
E0
E0
E0
E0
ENDCHAR
STARTCHAR 007D
ENCODING 125
SWIDTH 334 0
DWIDTH 13 0
BBX 9 38 2 -6
BITMAP
F800
FC00
FC00
3C00
1E00
1E00
1E00
1E00
1E00
1E00
1E00
1E00
1E00
1E00
1E00
1E00
0F00
0F80
0780
0780
0F80
0E00
1E00
1E00
1E00
1E00
1E00
1E00
1E00
1E00
1E00
1E00
1E00
1E00
FC00
FC00
F800
F000
ENDCHAR
STARTCHAR 007E
ENCODING 126
SWIDTH 540 0
DWIDTH 21 0
BBX 17 5 2 10
BITMAP
FF0000
FFFF80
FFFF80
FFFF80
003F00
ENDCHAR
STARTCHAR 00A1
ENCODING 161
SWIDTH 257 0
DWIDTH 10 0
BBX 6 27 2 -4
BITMAP
7C
FC
FC
FC
7C
38
00
00
00
00
78
78
78
78
78
78
78
78
78
78
78
78
78
78
78
78
78
ENDCHAR
STARTCHAR 00A2
ENCODING 162
SWIDTH 514 0
DWIDTH 20 0
BBX 16 24 2 2
BITMAP
01E0
01E0
01E0
01F8
0FFE
1FFF
3FFF
7E0E
7804
7800
F000
F000
F000
F000
F000
7800
7C04
3E0E
3FFF
1FFF
07FC
01E0
01E0
01E0
ENDCHAR
STARTCHAR 00A3
ENCODING 163
SWIDTH 540 0
DWIDTH 21 0
BBX 18 28 2 0
BITMAP
003E00
01FFC0
07FFC0
0FFFC0
0FFFC0
1FC0C0
1F8000
1F0000
3F0000
3E0000
1F0000
1F0000
1F0000
FFFE00
FFFE00
FFFE00
0F8000
07C000
07C000
07C000
07C000
0FC000
1F8000
FF8000
FFFFC0
FFFFC0
FFFFC0
FFFFC0
ENDCHAR
STARTCHAR 00A4
ENCODING 164
SWIDTH 591 0
DWIDTH 23 0
BBX 19 19 2 3
BITMAP
200000
7040C0
FBFDE0
7FFFC0
3FBF80
3E0780
3C0380
3803C0
3801C0
7801C0
7801C0
3803C0
380380
3C0780
1F9F80
3FFFC0
7FFFE0
7071C0
200080
ENDCHAR
STARTCHAR 00A5
ENCODING 165
SWIDTH 642 0
DWIDTH 25 0
BBX 21 27 2 0
BITMAP
FC00F8
7E01F8
7E01F0
3F01F0
1F03E0
1F83E0
0F87C0
0FC7C0
07CF80
07EF80
03FF00
03FF00
01FE00
01FE00
1FFFE0
1FFFE0
1FFFE0
007800
007800
1FFFE0
1FFFE0
1FFFE0
007800
007800
007800
007800
007800
ENDCHAR
STARTCHAR 00A6
ENCODING 166
SWIDTH 154 0
DWIDTH 6 0
BBX 3 31 2 -4
BITMAP
E0
E0
E0
E0
E0
E0
E0
E0
E0
E0
E0
E0
00
00
00
00
00
00
00
E0
E0
E0
E0
E0
E0
E0
E0
E0
E0
E0
E0
ENDCHAR
STARTCHAR 00A7
ENCODING 167
SWIDTH 488 0
DWIDTH 19 0
BBX 15 33 2 -5
BITMAP
0380
1FF0
3FF8
3FFC
7FFC
7C3E
7C3C
7C00
3E00
3F80
1FC0
0FF0
3FF8
7FFC
787C
F83E
F81E
783E
7C7C
7FFC
3FF8
0FE0
03F0
01F8
007C
087C
783C
7C7C
7FFC
3FF8
3FF8
0FF0
0100
ENDCHAR
STARTCHAR 00A8
ENCODING 168
SWIDTH 385 0
DWIDTH 15 0
BBX 16 6 0 29
BITMAP
783E
FC3E
FC7F
FC7F
7C3E
381C
ENDCHAR
STARTCHAR 00A9
ENCODING 169
SWIDTH 848 0
DWIDTH 33 0
BBX 29 29 2 -1
BITMAP
001FC000
00FFF800
03FCFE00
07C00F00
0F000780
1C0001C0
380000E0
380FC0E0
703FE070
707FF030
60F06038
E0E00038
E1E00038
E1C00038
E1C00018
E1E00038
E1E00038
E0F00038
60F8E030
707FF070
703FE070
380F80E0
1C0001E0
1E0003C0
0F000780
07C01F00
01FFFE00
007FF800
00070000
ENDCHAR
STARTCHAR 00AB
ENCODING 171
SWIDTH 591 0
DWIDTH 23 0
BBX 19 17 2 3
BITMAP
03E3E0
07C7C0
078780
0F0F00
1E1F00
3E3E00
3C3C00
787800
F87800
7C7C00
3E3E00
1E1E00
0F0F00
0F8780
07C7C0
03C3E0
01E1E0
ENDCHAR
STARTCHAR 00AC
ENCODING 172
SWIDTH 565 0
DWIDTH 22 0
BBX 18 11 2 4
BITMAP
FFFFC0
FFFFC0
FFFFC0
FFFFC0
0003C0
0003C0
0003C0
0003C0
0003C0
0003C0
0003C0
ENDCHAR
STARTCHAR 00AE
ENCODING 174
SWIDTH 488 0
DWIDTH 19 0
BBX 16 15 2 13
BITMAP
07E0
1FF8
381C
6006
67E6
C663
C663
CFE3
C6E3
C663
6666
6006
300C
1E78
07F0
ENDCHAR
STARTCHAR 00AF
ENCODING 175
SWIDTH 282 0
DWIDTH 11 0
BBX 11 4 0 30
BITMAP
FFE0
FFE0
FFE0
FFE0
ENDCHAR
STARTCHAR 00B0
ENCODING 176
SWIDTH 334 0
DWIDTH 13 0
BBX 9 9 2 19
BITMAP
0C00
3F00
7380
E180
C180
C180
E180
7F80
3F00
ENDCHAR
STARTCHAR 00B1
ENCODING 177
SWIDTH 565 0
DWIDTH 22 0
BBX 18 17 2 4
BITMAP
01E000
01E000
01E000
01E000
FFFFC0
FFFFC0
FFFFC0
FFFFC0
01E000
01E000
01E000
01E000
000000
000000
FFFFC0
FFFFC0
FFFFC0
ENDCHAR
STARTCHAR 00B4
ENCODING 180
SWIDTH 154 0
DWIDTH 6 0
BBX 6 6 0 29
BITMAP
1C
3C
38
70
60
E0
ENDCHAR
STARTCHAR 00B6
ENCODING 182
SWIDTH 488 0
DWIDTH 19 0
BBX 16 31 2 -4
BITMAP
0FE7
1FE7
3FE7
7FE7
7FE7
FFE7
FFE7
FFE7
FFE7
FFE7
7FE7
7FE7
3FE7
1FE7
07E7
00E7
00E7
00E7
00E7
00E7
00E7
00E7
00E7
00E7
00E7
00E7
00E7
00E7
00E7
00E7
00E7
ENDCHAR
STARTCHAR 00B7
ENCODING 183
SWIDTH 257 0
DWIDTH 10 0
BBX 6 6 2 7
BITMAP
7C
FC
FC
FC
7C
38
ENDCHAR
STARTCHAR 00B8
ENCODING 184
SWIDTH 205 0
DWIDTH 8 0
BBX 9 9 0 -9
BITMAP
0E00
0C00
0F00
0380
0380
6380
FF00
7F00
0800
ENDCHAR
STARTCHAR 00BB
ENCODING 187
SWIDTH 591 0
DWIDTH 23 0
BBX 19 17 2 3
BITMAP
787C00
3C3C00
3E1E00
1F1F00
0F0F80
078780
07C3C0
03E3E0
03E1E0
03C3C0
0787C0
0F8F80
1F0F00
1E1E00
3C3C00
787C00
F87800
ENDCHAR
STARTCHAR 00BF
ENCODING 191
SWIDTH 437 0
DWIDTH 17 0
BBX 13 28 2 -4
BITMAP
0380
07C0
0FE0
0FE0
07C0
07C0
0000
0000
0000
0000
07C0
0780
0780
0780
0F80
0F00
1F00
3E00
3C00
7C00
7800
F800
F870
F878
FFF8
7FF0
3FE0
1FC0
ENDCHAR
STARTCHAR 00C0
ENCODING 192
SWIDTH 565 0
DWIDTH 22 0
BBX 20 35 2 0
BITMAP
0F0000
070000
038000
038000
01C000
00C000
000000
03E000
0FF800
1FFC00
3FFE00
7FFF00
7C1F00
F81F80
F80F80
F80F80
F80F80
F80F80
F80F80
F80F80
F80F80
F80F80
F80F80
F80F80
F80F80
F80F80
F80F80
F80F80
F80F80
F80F80
F80F80
FFFFF0
FFFFF0
FFFFF0
FFFFF0
ENDCHAR
STARTCHAR 00C1
ENCODING 193
SWIDTH 565 0
DWIDTH 22 0
BBX 20 35 2 0
BITMAP
007800
007000
00E000
00E000
01C000
018000
000000
03E000
0FF800
1FFC00
3FFE00
7FFF00
7C1F00
F81F80
F80F80
F80F80
F80F80
F80F80
F80F80
F80F80
F80F80
F80F80
F80F80
F80F80
F80F80
F80F80
F80F80
F80F80
F80F80
F80F80
F80F80
FFFFF0
FFFFF0
FFFFF0
FFFFF0
ENDCHAR
STARTCHAR 00C2
ENCODING 194
SWIDTH 565 0
DWIDTH 22 0
BBX 20 35 2 0
BITMAP
03E000
07F000
0F7800
0F7800
1E3C00
000000
000000
03E000
0FF800
1FFC00
3FFE00
7FFF00
7C1F00
F81F80
F80F80
F80F80
F80F80
F80F80
F80F80
F80F80
F80F80
F80F80
F80F80
F80F80
F80F80
F80F80
F80F80
F80F80
F80F80
F80F80
F80F80
FFFFF0
FFFFF0
FFFFF0
FFFFF0
ENDCHAR
STARTCHAR 00C3
ENCODING 195
SWIDTH 565 0
DWIDTH 22 0
BBX 20 35 2 0
BITMAP
0E0000
1FF800
1FF800
11F800
000000
000000
000000
03E000
0FF800
1FFC00
3FFE00
7FFF00
7C1F00
F81F80
F80F80
F80F80
F80F80
F80F80
F80F80
F80F80
F80F80
F80F80
F80F80
F80F80
F80F80
F80F80
F80F80
F80F80
F80F80
F80F80
F80F80
FFFFF0
FFFFF0
FFFFF0
FFFFF0
ENDCHAR
STARTCHAR 00C4
ENCODING 196
SWIDTH 565 0
DWIDTH 22 0
BBX 20 35 2 0
BITMAP
3C1E00
7E3F00
7E3F00
7E3F00
7E1F00
3C0E00
000000
03E000
0FF800
1FFC00
3FFE00
7FFF00
7C1F00
F81F80
F80F80
F80F80
F80F80
F80F80
F80F80
F80F80
F80F80
F80F80
F80F80
F80F80
F80F80
F80F80
F80F80
F80F80
F80F80
F80F80
F80F80
FFFFF0
FFFFF0
FFFFF0
FFFFF0
ENDCHAR
STARTCHAR 00C5
ENCODING 197
SWIDTH 565 0
DWIDTH 22 0
BBX 20 37 2 0
BITMAP
03E000
07F000
063000
0E3000
063000
07F000
03E000
008000
000000
03E000
0FF800
1FFC00
3FFE00
7FFF00
7C1F00
F81F80
F80F80
F80F80
F80F80
F80F80
F80F80
F80F80
F80F80
F80F80
F80F80
F80F80
F80F80
F80F80
F80F80
F80F80
F80F80
F80F80
F80F80
FFFFF0
FFFFF0
FFFFF0
FFFFF0
ENDCHAR
STARTCHAR 00C7
ENCODING 199
SWIDTH 668 0
DWIDTH 26 0
BBX 25 37 1 -9
BITMAP
000FC000
007FF800
01FFFE00
07FFFF00
0FFFFF80
1FE03F00
1F800E00
3F000400
3E000000
7C000000
7C000000
7C000000
F8000000
F8000000
F8000000
F8000000
F8000000
7C000000
7C000000
7E000000
3E000000
3F000600
1FC00F00
0FF03F80
0FFFFF80
03FFFF00
01FFFC00
007FF000
00070000
000E0000
000F0000
00038000
00218000
00738000
007F8000
003F0000
00040000
ENDCHAR
STARTCHAR 00C8
ENCODING 200
SWIDTH 488 0
DWIDTH 19 0
BBX 19 35 1 0
BITMAP
0F0000
070000
078000
038000
01C000
01C000
000000
000000
3FFC00
3FFC00
3FFC00
3FFC00
3E0000
3E0000
3E0000
3E0000
3E0000
3E0000
3E0000
FFFF00
FFFF00
FFFF00
FFFF00
3E0000
3E0000
3E0000
3E0000
3E0000
3E0000
3E0000
3FFFE0
3FFFE0
3FFFE0
3FFFE0
3FFFE0
ENDCHAR
STARTCHAR 00C9
ENCODING 201
SWIDTH 488 0
DWIDTH 19 0
BBX 19 35 1 0
BITMAP
007800
00F000
00E000
01C000
01C000
038000
000000
000000
3FFC00
3FFC00
3FFC00
3FFC00
3E0000
3E0000
3E0000
3E0000
3E0000
3E0000
3E0000
FFFF00
FFFF00
FFFF00
FFFF00
3E0000
3E0000
3E0000
3E0000
3E0000
3E0000
3E0000
3FFFE0
3FFFE0
3FFFE0
3FFFE0
3FFFE0
ENDCHAR
STARTCHAR 00CA
ENCODING 202
SWIDTH 488 0
DWIDTH 19 0
BBX 19 35 1 0
BITMAP
03E000
07F000
0FF000
1E7800
1E3C00
200000
000000
000000
3FFC00
3FFC00
3FFC00
3FFC00
3E0000
3E0000
3E0000
3E0000
3E0000
3E0000
3E0000
FFFF00
FFFF00
FFFF00
FFFF00
3E0000
3E0000
3E0000
3E0000
3E0000
3E0000
3E0000
3FFFE0
3FFFE0
3FFFE0
3FFFE0
3FFFE0
ENDCHAR
STARTCHAR 00CB
ENCODING 203
SWIDTH 488 0
DWIDTH 19 0
BBX 19 35 1 0
BITMAP
3C1E00
7E3F00
7E3F00
7E3F00
7E3F00
3C1E00
000000
000000
3FFC00
3FFC00
3FFC00
3FFC00
3E0000
3E0000
3E0000
3E0000
3E0000
3E0000
3E0000
FFFF00
FFFF00
FFFF00
FFFF00
3E0000
3E0000
3E0000
3E0000
3E0000
3E0000
3E0000
3FFFE0
3FFFE0
3FFFE0
3FFFE0
3FFFE0
ENDCHAR
STARTCHAR 00CC
ENCODING 204
SWIDTH 231 0
DWIDTH 9 0
BBX 6 24 1 0
BITMAP
E0
F0
70
38
38
00
00
7C
7C
7C
7C
7C
7C
7C
7C
7C
7C
7C
7C
7C
7C
7C
7C
7C
ENDCHAR
STARTCHAR 00CD
ENCODING 205
SWIDTH 231 0
DWIDTH 9 0
BBX 7 24 2 0
BITMAP
1E
3C
38
70
70
00
00
F8
F8
F8
F8
F8
F8
F8
F8
F8
F8
F8
F8
F8
F8
F8
F8
F8
ENDCHAR
STARTCHAR 00CE
ENCODING 206
SWIDTH 231 0
DWIDTH 9 0
BBX 11 24 -1 0
BITMAP
1F80
3F80
7BC0
F1E0
F0E0
0000
0000
1F00
1F00
1F00
1F00
1F00
1F00
1F00
1F00
1F00
1F00
1F00
1F00
1F00
1F00
1F00
1F00
1F00
ENDCHAR
STARTCHAR 00CF
ENCODING 207
SWIDTH 231 0
DWIDTH 9 0
BBX 15 25 -3 0
BITMAP
301C
7C3E
FC7E
FC7E
FC7E
783E
0000
0000
07C0
07C0
07C0
07C0
07C0
07C0
07C0
07C0
07C0
07C0
07C0
07C0
07C0
07C0
07C0
07C0
07C0
ENDCHAR
STARTCHAR 00D1
ENCODING 209
SWIDTH 540 0
DWIDTH 21 0
BBX 19 35 1 0
BITMAP
030000
07FC00
07FC00
04FC00
000000
000000
000000
200000
7003E0
7C03E0
FE03E0
FF03E0
3FC3E0
3FE3E0
3FF3E0
3FFBE0
3FFFE0
3EFFE0
3E3FE0
3E1FE0
3E0FE0
3E07E0
3E03E0
3E03E0
3E03E0
3E03E0
3E03E0
3E03E0
3E03E0
3E03E0
3E03E0
3E03E0
3E03E0
3E03E0
3E03E0
ENDCHAR
STARTCHAR 00D2
ENCODING 210
SWIDTH 797 0
DWIDTH 31 0
BBX 30 36 1 -1
BITMAP
001C0000
001E0000
000E0000
00070000
00030000
00038000
00000000
000FC000
007FF800
01FFFE00
07FFFF80
0FFFFFC0
1FE01FC0
1F8007E0
3F0003F0
3E0001F0
7C0001F8
7C0000F8
7C0000F8
F8000078
F800007C
F800007C
F800007C
F8000078
7C0000F8
7C0000F8
7E0001F8
3E0001F0
3F0003F0
1FC00FE0
0FF03FC0
07FFFF80
03FFFF00
01FFFE00
007FF800
00030000
ENDCHAR
STARTCHAR 00D3
ENCODING 211
SWIDTH 797 0
DWIDTH 31 0
BBX 30 36 1 -1
BITMAP
0000E000
0001E000
0001C000
00038000
00038000
00070000
00000000
000FC000
007FF800
01FFFE00
07FFFF80
0FFFFFC0
1FE01FC0
1F8007E0
3F0003F0
3E0001F0
7C0001F8
7C0000F8
7C0000F8
F8000078
F800007C
F800007C
F800007C
F8000078
7C0000F8
7C0000F8
7E0001F8
3E0001F0
3F0003F0
1FC00FE0
0FF03FC0
07FFFF80
03FFFF00
01FFFE00
007FF800
00030000
ENDCHAR
STARTCHAR 00D4
ENCODING 212
SWIDTH 797 0
DWIDTH 31 0
BBX 30 36 1 -1
BITMAP
000FC000
000FC000
001FE000
003CF000
00787800
00000000
00000000
000FC000
007FF800
01FFFE00
07FFFF80
0FFFFFC0
1FE01FC0
1F8007E0
3F0003F0
3E0001F0
7C0001F8
7C0000F8
7C0000F8
F8000078
F800007C
F800007C
F800007C
F8000078
7C0000F8
7C0000F8
7E0001F8
3E0001F0
3F0003F0
1FC00FE0
0FF03FC0
07FFFF80
03FFFF00
01FFFE00
007FF800
00030000
ENDCHAR
STARTCHAR 00D5
ENCODING 213
SWIDTH 797 0
DWIDTH 31 0
BBX 30 36 1 -1
BITMAP
00180000
003FE000
003FE000
0027E000
00000000
00000000
00000000
000FC000
007FF800
01FFFE00
07FFFF80
0FFFFFC0
1FE01FC0
1F8007E0
3F0003F0
3E0001F0
7C0001F8
7C0000F8
7C0000F8
F8000078
F800007C
F800007C
F800007C
F8000078
7C0000F8
7C0000F8
7E0001F8
3E0001F0
3F0003F0
1FC00FE0
0FF03FC0
07FFFF80
03FFFF00
01FFFE00
007FF800
00030000
ENDCHAR
STARTCHAR 00D6
ENCODING 214
SWIDTH 797 0
DWIDTH 31 0
BBX 30 36 1 -1
BITMAP
00783C00
00F87E00
00FC7E00
00FC7E00
00F87C00
00703C00
00000000
000FC000
007FF800
01FFFE00
07FFFF80
0FFFFFC0
1FE01FC0
1F8007E0
3F0003F0
3E0001F0
7C0001F8
7C0000F8
7C0000F8
F8000078
F800007C
F800007C
F800007C
F8000078
7C0000F8
7C0000F8
7E0001F8
3E0001F0
3F0003F0
1FC00FE0
0FF03FC0
07FFFF80
03FFFF00
01FFFE00
007FF800
00030000
ENDCHAR
STARTCHAR 00D7
ENCODING 215
SWIDTH 514 0
DWIDTH 20 0
BBX 17 16 2 5
BITMAP
300600
780F00
FC1F80
7E3F00
3F7E00
1FFC00
0FF800
07F000
07F000
0FF800
1FFC00
3F7E00
3E3F00
7C1F80
780F00
300600
ENDCHAR
STARTCHAR 00D8
ENCODING 216
SWIDTH 797 0
DWIDTH 31 0
BBX 29 30 1 -2
BITMAP
00000040
001FC0E0
00FFF9F0
03FFFFE0
07FFFFC0
0FFFFF80
1FE01FC0
3F801FE0
3F003FE0
7E007FF0
7C0079F0
FC00F0F8
F801E0F8
F803C0F8
F80780F8
F80F80F8
F81F00F8
F83E00F8
F83C00F8
7C7801F8
7CF001F0
7FE003F0
3FE007E0
3FC00FE0
1FE03FC0
1FFFFF80
1FFFFF00
3DFFFC00
787FF000
30060000
ENDCHAR
STARTCHAR 00D9
ENCODING 217
SWIDTH 514 0
DWIDTH 20 0
BBX 17 36 2 -1
BITMAP
0F0000
070000
078000
038000
01C000
00C000
000000
000000
F80F80
F80F80
F80F80
F80F80
F80F80
F80F80
F80F80
F80F80
F80F80
F80F80
F80F80
F80F80
F80F80
F80F80
F80F80
F80F80
F80F80
F80F80
F80F80
F80F80
F80F80
F81F00
7C3F00
7FFF00
3FFE00
1FFC00
0FF800
018000
ENDCHAR
STARTCHAR 00DA
ENCODING 218
SWIDTH 514 0
DWIDTH 20 0
BBX 17 36 2 -1
BITMAP
007800
00F000
00E000
01E000
01C000
038000
000000
000000
F80F80
F80F80
F80F80
F80F80
F80F80
F80F80
F80F80
F80F80
F80F80
F80F80
F80F80
F80F80
F80F80
F80F80
F80F80
F80F80
F80F80
F80F80
F80F80
F80F80
F80F80
F81F00
7C3F00
7FFF00
3FFE00
1FFC00
0FF800
018000
ENDCHAR
STARTCHAR 00DB
ENCODING 219
SWIDTH 514 0
DWIDTH 20 0
BBX 17 36 2 -1
BITMAP
03E000
07F000
0FF000
1E7800
1E3C00
200000
000000
000000
F80F80
F80F80
F80F80
F80F80
F80F80
F80F80
F80F80
F80F80
F80F80
F80F80
F80F80
F80F80
F80F80
F80F80
F80F80
F80F80
F80F80
F80F80
F80F80
F80F80
F80F80
F81F00
7C3F00
7FFF00
3FFE00
1FFC00
0FF800
018000
ENDCHAR
STARTCHAR 00DC
ENCODING 220
SWIDTH 514 0
DWIDTH 20 0
BBX 17 36 2 -1
BITMAP
3C1E00
7E3F00
7E3F00
7E3F00
7E3F00
3C1E00
000000
000000
F80F80
F80F80
F80F80
F80F80
F80F80
F80F80
F80F80
F80F80
F80F80
F80F80
F80F80
F80F80
F80F80
F80F80
F80F80
F80F80
F80F80
F80F80
F80F80
F80F80
F80F80
F81F00
7C3F00
7FFF00
3FFE00
1FFC00
0FF800
018000
ENDCHAR
STARTCHAR 00DD
ENCODING 221
SWIDTH 514 0
DWIDTH 20 0
BBX 17 35 2 0
BITMAP
007000
00F000
00E000
01C000
01C000
038000
000000
000000
F00F80
F00F80
F00F80
F00F80
F00F80
F00F80
F00F80
F00F80
F00F80
F00F80
F00F80
F00F80
F00F80
F81F00
F81F00
FC3F00
7FFE00
7FFE00
3FFC00
1FF800
03E000
03E000
03E000
03E000
03E000
03E000
03E000
ENDCHAR
STARTCHAR 00E0
ENCODING 224
SWIDTH 565 0
DWIDTH 22 0
BBX 20 35 2 0
BITMAP
0F0000
070000
038000
038000
01C000
00C000
000000
03E000
0FF800
1FFC00
3FFE00
7FFF00
7C1F00
F81F80
F80F80
F80F80
F80F80
F80F80
F80F80
F80F80
F80F80
F80F80
F80F80
F80F80
F80F80
F80F80
F80F80
F80F80
F80F80
F80F80
F80F80
FFFFF0
FFFFF0
FFFFF0
FFFFF0
ENDCHAR
STARTCHAR 00E1
ENCODING 225
SWIDTH 565 0
DWIDTH 22 0
BBX 20 35 2 0
BITMAP
007800
007000
00E000
00E000
01C000
018000
000000
03E000
0FF800
1FFC00
3FFE00
7FFF00
7C1F00
F81F80
F80F80
F80F80
F80F80
F80F80
F80F80
F80F80
F80F80
F80F80
F80F80
F80F80
F80F80
F80F80
F80F80
F80F80
F80F80
F80F80
F80F80
FFFFF0
FFFFF0
FFFFF0
FFFFF0
ENDCHAR
STARTCHAR 00E2
ENCODING 226
SWIDTH 565 0
DWIDTH 22 0
BBX 20 35 2 0
BITMAP
03E000
07F000
0F7800
0F7800
1E3C00
000000
000000
03E000
0FF800
1FFC00
3FFE00
7FFF00
7C1F00
F81F80
F80F80
F80F80
F80F80
F80F80
F80F80
F80F80
F80F80
F80F80
F80F80
F80F80
F80F80
F80F80
F80F80
F80F80
F80F80
F80F80
F80F80
FFFFF0
FFFFF0
FFFFF0
FFFFF0
ENDCHAR
STARTCHAR 00E3
ENCODING 227
SWIDTH 565 0
DWIDTH 22 0
BBX 20 35 2 0
BITMAP
0E0000
1FF800
1FF800
11F800
000000
000000
000000
03E000
0FF800
1FFC00
3FFE00
7FFF00
7C1F00
F81F80
F80F80
F80F80
F80F80
F80F80
F80F80
F80F80
F80F80
F80F80
F80F80
F80F80
F80F80
F80F80
F80F80
F80F80
F80F80
F80F80
F80F80
FFFFF0
FFFFF0
FFFFF0
FFFFF0
ENDCHAR
STARTCHAR 00E4
ENCODING 228
SWIDTH 565 0
DWIDTH 22 0
BBX 20 35 2 0
BITMAP
3C1E00
7E3F00
7E3F00
7E3F00
7E1F00
3C0E00
000000
03E000
0FF800
1FFC00
3FFE00
7FFF00
7C1F00
F81F80
F80F80
F80F80
F80F80
F80F80
F80F80
F80F80
F80F80
F80F80
F80F80
F80F80
F80F80
F80F80
F80F80
F80F80
F80F80
F80F80
F80F80
FFFFF0
FFFFF0
FFFFF0
FFFFF0
ENDCHAR
STARTCHAR 00E5
ENCODING 229
SWIDTH 565 0
DWIDTH 22 0
BBX 20 37 2 0
BITMAP
03E000
07F000
063000
0E3000
063000
07F000
03E000
008000
000000
03E000
0FF800
1FFC00
3FFE00
7FFF00
7C1F00
F81F80
F80F80
F80F80
F80F80
F80F80
F80F80
F80F80
F80F80
F80F80
F80F80
F80F80
F80F80
F80F80
F80F80
F80F80
F80F80
F80F80
F80F80
FFFFF0
FFFFF0
FFFFF0
FFFFF0
ENDCHAR
STARTCHAR 00E7
ENCODING 231
SWIDTH 668 0
DWIDTH 26 0
BBX 25 37 1 -9
BITMAP
000FC000
007FF800
01FFFE00
07FFFF00
0FFFFF80
1FE03F00
1F800E00
3F000400
3E000000
7C000000
7C000000
7C000000
F8000000
F8000000
F8000000
F8000000
F8000000
7C000000
7C000000
7E000000
3E000000
3F000600
1FC00F00
0FF03F80
0FFFFF80
03FFFF00
01FFFC00
007FF000
00070000
000E0000
000F0000
00038000
00218000
00738000
007F8000
003F0000
00040000
ENDCHAR
STARTCHAR 00E8
ENCODING 232
SWIDTH 488 0
DWIDTH 19 0
BBX 19 35 1 0
BITMAP
0F0000
070000
078000
038000
01C000
01C000
000000
000000
3FFC00
3FFC00
3FFC00
3FFC00
3E0000
3E0000
3E0000
3E0000
3E0000
3E0000
3E0000
FFFF00
FFFF00
FFFF00
FFFF00
3E0000
3E0000
3E0000
3E0000
3E0000
3E0000
3E0000
3FFFE0
3FFFE0
3FFFE0
3FFFE0
3FFFE0
ENDCHAR
STARTCHAR 00E9
ENCODING 233
SWIDTH 488 0
DWIDTH 19 0
BBX 19 35 1 0
BITMAP
007800
00F000
00E000
01C000
01C000
038000
000000
000000
3FFC00
3FFC00
3FFC00
3FFC00
3E0000
3E0000
3E0000
3E0000
3E0000
3E0000
3E0000
FFFF00
FFFF00
FFFF00
FFFF00
3E0000
3E0000
3E0000
3E0000
3E0000
3E0000
3E0000
3FFFE0
3FFFE0
3FFFE0
3FFFE0
3FFFE0
ENDCHAR
STARTCHAR 00EA
ENCODING 234
SWIDTH 488 0
DWIDTH 19 0
BBX 19 35 1 0
BITMAP
03E000
07F000
0FF000
1E7800
1E3C00
200000
000000
000000
3FFC00
3FFC00
3FFC00
3FFC00
3E0000
3E0000
3E0000
3E0000
3E0000
3E0000
3E0000
FFFF00
FFFF00
FFFF00
FFFF00
3E0000
3E0000
3E0000
3E0000
3E0000
3E0000
3E0000
3FFFE0
3FFFE0
3FFFE0
3FFFE0
3FFFE0
ENDCHAR
STARTCHAR 00EB
ENCODING 235
SWIDTH 488 0
DWIDTH 19 0
BBX 19 35 1 0
BITMAP
3C1E00
7E3F00
7E3F00
7E3F00
7E3F00
3C1E00
000000
000000
3FFC00
3FFC00
3FFC00
3FFC00
3E0000
3E0000
3E0000
3E0000
3E0000
3E0000
3E0000
FFFF00
FFFF00
FFFF00
FFFF00
3E0000
3E0000
3E0000
3E0000
3E0000
3E0000
3E0000
3FFFE0
3FFFE0
3FFFE0
3FFFE0
3FFFE0
ENDCHAR
STARTCHAR 00EC
ENCODING 236
SWIDTH 231 0
DWIDTH 9 0
BBX 6 24 1 0
BITMAP
E0
F0
70
38
38
00
00
7C
7C
7C
7C
7C
7C
7C
7C
7C
7C
7C
7C
7C
7C
7C
7C
7C
ENDCHAR
STARTCHAR 00ED
ENCODING 237
SWIDTH 231 0
DWIDTH 9 0
BBX 7 24 2 0
BITMAP
1E
3C
38
70
70
00
00
F8
F8
F8
F8
F8
F8
F8
F8
F8
F8
F8
F8
F8
F8
F8
F8
F8
ENDCHAR
STARTCHAR 00EE
ENCODING 238
SWIDTH 231 0
DWIDTH 9 0
BBX 11 24 -1 0
BITMAP
1F80
3F80
7BC0
F1E0
F0E0
0000
0000
1F00
1F00
1F00
1F00
1F00
1F00
1F00
1F00
1F00
1F00
1F00
1F00
1F00
1F00
1F00
1F00
1F00
ENDCHAR
STARTCHAR 00EF
ENCODING 239
SWIDTH 231 0
DWIDTH 9 0
BBX 15 25 -3 0
BITMAP
301C
7C3E
FC7E
FC7E
FC7E
783E
0000
0000
07C0
07C0
07C0
07C0
07C0
07C0
07C0
07C0
07C0
07C0
07C0
07C0
07C0
07C0
07C0
07C0
07C0
ENDCHAR
STARTCHAR 00F1
ENCODING 241
SWIDTH 540 0
DWIDTH 21 0
BBX 19 35 1 0
BITMAP
030000
07FC00
07FC00
04FC00
000000
000000
000000
200000
7003E0
7C03E0
FE03E0
FF03E0
3FC3E0
3FE3E0
3FF3E0
3FFBE0
3FFFE0
3EFFE0
3E3FE0
3E1FE0
3E0FE0
3E07E0
3E03E0
3E03E0
3E03E0
3E03E0
3E03E0
3E03E0
3E03E0
3E03E0
3E03E0
3E03E0
3E03E0
3E03E0
3E03E0
ENDCHAR
STARTCHAR 00F2
ENCODING 242
SWIDTH 797 0
DWIDTH 31 0
BBX 30 36 1 -1
BITMAP
001C0000
001E0000
000E0000
00070000
00030000
00038000
00000000
000FC000
007FF800
01FFFE00
07FFFF80
0FFFFFC0
1FE01FC0
1F8007E0
3F0003F0
3E0001F0
7C0001F8
7C0000F8
7C0000F8
F8000078
F800007C
F800007C
F800007C
F8000078
7C0000F8
7C0000F8
7E0001F8
3E0001F0
3F0003F0
1FC00FE0
0FF03FC0
07FFFF80
03FFFF00
01FFFE00
007FF800
00030000
ENDCHAR
STARTCHAR 00F3
ENCODING 243
SWIDTH 797 0
DWIDTH 31 0
BBX 30 36 1 -1
BITMAP
0000E000
0001E000
0001C000
00038000
00038000
00070000
00000000
000FC000
007FF800
01FFFE00
07FFFF80
0FFFFFC0
1FE01FC0
1F8007E0
3F0003F0
3E0001F0
7C0001F8
7C0000F8
7C0000F8
F8000078
F800007C
F800007C
F800007C
F8000078
7C0000F8
7C0000F8
7E0001F8
3E0001F0
3F0003F0
1FC00FE0
0FF03FC0
07FFFF80
03FFFF00
01FFFE00
007FF800
00030000
ENDCHAR
STARTCHAR 00F4
ENCODING 244
SWIDTH 797 0
DWIDTH 31 0
BBX 30 36 1 -1
BITMAP
000FC000
000FC000
001FE000
003CF000
00787800
00000000
00000000
000FC000
007FF800
01FFFE00
07FFFF80
0FFFFFC0
1FE01FC0
1F8007E0
3F0003F0
3E0001F0
7C0001F8
7C0000F8
7C0000F8
F8000078
F800007C
F800007C
F800007C
F8000078
7C0000F8
7C0000F8
7E0001F8
3E0001F0
3F0003F0
1FC00FE0
0FF03FC0
07FFFF80
03FFFF00
01FFFE00
007FF800
00030000
ENDCHAR
STARTCHAR 00F5
ENCODING 245
SWIDTH 797 0
DWIDTH 31 0
BBX 30 36 1 -1
BITMAP
00180000
003FE000
003FE000
0027E000
00000000
00000000
00000000
000FC000
007FF800
01FFFE00
07FFFF80
0FFFFFC0
1FE01FC0
1F8007E0
3F0003F0
3E0001F0
7C0001F8
7C0000F8
7C0000F8
F8000078
F800007C
F800007C
F800007C
F8000078
7C0000F8
7C0000F8
7E0001F8
3E0001F0
3F0003F0
1FC00FE0
0FF03FC0
07FFFF80
03FFFF00
01FFFE00
007FF800
00030000
ENDCHAR
STARTCHAR 00F6
ENCODING 246
SWIDTH 797 0
DWIDTH 31 0
BBX 30 36 1 -1
BITMAP
00783C00
00F87E00
00FC7E00
00FC7E00
00F87C00
00703C00
00000000
000FC000
007FF800
01FFFE00
07FFFF80
0FFFFFC0
1FE01FC0
1F8007E0
3F0003F0
3E0001F0
7C0001F8
7C0000F8
7C0000F8
F8000078
F800007C
F800007C
F800007C
F8000078
7C0000F8
7C0000F8
7E0001F8
3E0001F0
3F0003F0
1FC00FE0
0FF03FC0
07FFFF80
03FFFF00
01FFFE00
007FF800
00030000
ENDCHAR
STARTCHAR 00F7
ENCODING 247
SWIDTH 565 0
DWIDTH 22 0
BBX 18 19 2 3
BITMAP
00C000
01E000
01F000
01F000
01E000
004000
000000
000000
FFFFC0
FFFFC0
FFFFC0
000000
000000
00C000
01E000
01F000
03F000
01E000
00C000
ENDCHAR
STARTCHAR 00F8
ENCODING 248
SWIDTH 797 0
DWIDTH 31 0
BBX 29 30 1 -2
BITMAP
00000040
001FC0E0
00FFF9F0
03FFFFE0
07FFFFC0
0FFFFF80
1FE01FC0
3F801FE0
3F003FE0
7E007FF0
7C0079F0
FC00F0F8
F801E0F8
F803C0F8
F80780F8
F80F80F8
F81F00F8
F83E00F8
F83C00F8
7C7801F8
7CF001F0
7FE003F0
3FE007E0
3FC00FE0
1FE03FC0
1FFFFF80
1FFFFF00
3DFFFC00
787FF000
30060000
ENDCHAR
STARTCHAR 00F9
ENCODING 249
SWIDTH 514 0
DWIDTH 20 0
BBX 17 36 2 -1
BITMAP
0F0000
070000
078000
038000
01C000
00C000
000000
000000
F80F80
F80F80
F80F80
F80F80
F80F80
F80F80
F80F80
F80F80
F80F80
F80F80
F80F80
F80F80
F80F80
F80F80
F80F80
F80F80
F80F80
F80F80
F80F80
F80F80
F80F80
F81F00
7C3F00
7FFF00
3FFE00
1FFC00
0FF800
018000
ENDCHAR
STARTCHAR 00FA
ENCODING 250
SWIDTH 514 0
DWIDTH 20 0
BBX 17 36 2 -1
BITMAP
007800
00F000
00E000
01E000
01C000
038000
000000
000000
F80F80
F80F80
F80F80
F80F80
F80F80
F80F80
F80F80
F80F80
F80F80
F80F80
F80F80
F80F80
F80F80
F80F80
F80F80
F80F80
F80F80
F80F80
F80F80
F80F80
F80F80
F81F00
7C3F00
7FFF00
3FFE00
1FFC00
0FF800
018000
ENDCHAR
STARTCHAR 00FB
ENCODING 251
SWIDTH 514 0
DWIDTH 20 0
BBX 17 36 2 -1
BITMAP
03E000
07F000
0FF000
1E7800
1E3C00
200000
000000
000000
F80F80
F80F80
F80F80
F80F80
F80F80
F80F80
F80F80
F80F80
F80F80
F80F80
F80F80
F80F80
F80F80
F80F80
F80F80
F80F80
F80F80
F80F80
F80F80
F80F80
F80F80
F81F00
7C3F00
7FFF00
3FFE00
1FFC00
0FF800
018000
ENDCHAR
STARTCHAR 00FC
ENCODING 252
SWIDTH 514 0
DWIDTH 20 0
BBX 17 36 2 -1
BITMAP
3C1E00
7E3F00
7E3F00
7E3F00
7E3F00
3C1E00
000000
000000
F80F80
F80F80
F80F80
F80F80
F80F80
F80F80
F80F80
F80F80
F80F80
F80F80
F80F80
F80F80
F80F80
F80F80
F80F80
F80F80
F80F80
F80F80
F80F80
F80F80
F80F80
F81F00
7C3F00
7FFF00
3FFE00
1FFC00
0FF800
018000
ENDCHAR
STARTCHAR 00FD
ENCODING 253
SWIDTH 514 0
DWIDTH 20 0
BBX 17 35 2 0
BITMAP
007000
00F000
00E000
01C000
01C000
038000
000000
000000
F00F80
F00F80
F00F80
F00F80
F00F80
F00F80
F00F80
F00F80
F00F80
F00F80
F00F80
F00F80
F00F80
F81F00
F81F00
FC3F00
7FFE00
7FFE00
3FFC00
1FF800
03E000
03E000
03E000
03E000
03E000
03E000
03E000
ENDCHAR
STARTCHAR 00FF
ENCODING 255
SWIDTH 514 0
DWIDTH 20 0
BBX 17 35 2 0
BITMAP
3C1E00
7E3F00
7E3F00
7E3F00
7C3F00
381E00
000000
000000
F00F80
F00F80
F00F80
F00F80
F00F80
F00F80
F00F80
F00F80
F00F80
F00F80
F00F80
F00F80
F00F80
F81F00
F81F00
FC3F00
7FFE00
7FFE00
3FFC00
1FF800
03E000
03E000
03E000
03E000
03E000
03E000
03E000
ENDCHAR
STARTCHAR 0100
ENCODING 256
SWIDTH 565 0
DWIDTH 22 0
BBX 20 34 2 0
BITMAP
1FFC00
1FFC00
1FFC00
1FFC00
000000
000000
03E000
0FF800
1FFC00
3FFE00
7FFF00
7C1F00
F81F80
F80F80
F80F80
F80F80
F80F80
F80F80
F80F80
F80F80
F80F80
F80F80
F80F80
F80F80
F80F80
F80F80
F80F80
F80F80
F80F80
F80F80
FFFFF0
FFFFF0
FFFFF0
FFFFF0
ENDCHAR
STARTCHAR 0101
ENCODING 257
SWIDTH 565 0
DWIDTH 22 0
BBX 20 34 2 0
BITMAP
1FFC00
1FFC00
1FFC00
1FFC00
000000
000000
03E000
0FF800
1FFC00
3FFE00
7FFF00
7C1F00
F81F80
F80F80
F80F80
F80F80
F80F80
F80F80
F80F80
F80F80
F80F80
F80F80
F80F80
F80F80
F80F80
F80F80
F80F80
F80F80
F80F80
F80F80
FFFFF0
FFFFF0
FFFFF0
FFFFF0
ENDCHAR
STARTCHAR 0102
ENCODING 258
SWIDTH 565 0
DWIDTH 22 0
BBX 20 35 2 0
BITMAP
1C1C00
1C1C00
1E3800
0FF800
07F000
000000
000000
03E000
0FF800
1FFC00
3FFE00
7FFF00
7C1F00
F81F80
F80F80
F80F80
F80F80
F80F80
F80F80
F80F80
F80F80
F80F80
F80F80
F80F80
F80F80
F80F80
F80F80
F80F80
F80F80
F80F80
F80F80
FFFFF0
FFFFF0
FFFFF0
FFFFF0
ENDCHAR
STARTCHAR 0103
ENCODING 259
SWIDTH 565 0
DWIDTH 22 0
BBX 20 35 2 0
BITMAP
1C1C00
1C1C00
1E3800
0FF800
07F000
000000
000000
03E000
0FF800
1FFC00
3FFE00
7FFF00
7C1F00
F81F80
F80F80
F80F80
F80F80
F80F80
F80F80
F80F80
F80F80
F80F80
F80F80
F80F80
F80F80
F80F80
F80F80
F80F80
F80F80
F80F80
F80F80
FFFFF0
FFFFF0
FFFFF0
FFFFF0
ENDCHAR
STARTCHAR 0104
ENCODING 260
SWIDTH 565 0
DWIDTH 22 0
BBX 21 36 2 -8
BITMAP
03E000
0FF800
1FFC00
3FFE00
7FFF00
7C1F00
F81F80
F80F80
F80F80
F80F80
F80F80
F80F80
F80F80
F80F80
F80F80
F80F80
F80F80
F80F80
F80F80
F80F80
F80F80
F80F80
F80F80
F80F80
FFFFF0
FFFFF0
FFFFF0
FFFFF0
0001C0
000300
000700
000600
000710
0007F8
0003F0
0000C0
ENDCHAR
STARTCHAR 0105
ENCODING 261
SWIDTH 565 0
DWIDTH 22 0
BBX 21 36 2 -8
BITMAP
03E000
0FF800
1FFC00
3FFE00
7FFF00
7C1F00
F81F80
F80F80
F80F80
F80F80
F80F80
F80F80
F80F80
F80F80
F80F80
F80F80
F80F80
F80F80
F80F80
F80F80
F80F80
F80F80
F80F80
F80F80
FFFFF0
FFFFF0
FFFFF0
FFFFF0
0001C0
000300
000700
000600
000710
0007F8
0003F0
0000C0
ENDCHAR
STARTCHAR 0106
ENCODING 262
SWIDTH 668 0
DWIDTH 26 0
BBX 25 36 1 -1
BITMAP
0001E000
0001C000
0003C000
00038000
00070000
00060000
00000000
000FC000
007FF800
01FFFE00
07FFFF00
0FFFFF80
1FE03F00
1F800E00
3F000400
3E000000
7C000000
7C000000
7C000000
F8000000
F8000000
F8000000
F8000000
F8000000
7C000000
7C000000
7E000000
3E000000
3F000600
1FC00F00
0FF03F80
07FFFF80
03FFFF00
01FFFC00
007FF000
00030000
ENDCHAR
STARTCHAR 0107
ENCODING 263
SWIDTH 668 0
DWIDTH 26 0
BBX 25 36 1 -1
BITMAP
0001E000
0001C000
0003C000
00038000
00070000
00060000
00000000
000FC000
007FF800
01FFFE00
07FFFF00
0FFFFF80
1FE03F00
1F800E00
3F000400
3E000000
7C000000
7C000000
7C000000
F8000000
F8000000
F8000000
F8000000
F8000000
7C000000
7C000000
7E000000
3E000000
3F000600
1FC00F00
0FF03F80
07FFFF80
03FFFF00
01FFFC00
007FF000
00030000
ENDCHAR
STARTCHAR 010A
ENCODING 266
SWIDTH 668 0
DWIDTH 26 0
BBX 25 37 1 -1
BITMAP
00078000
000FC000
000FC000
000FC000
000FC000
00078000
00000000
00000000
000FC000
007FF800
01FFFE00
07FFFF00
0FFFFF80
1FE03F00
1F800E00
3F000400
3E000000
7C000000
7C000000
7C000000
F8000000
F8000000
F8000000
F8000000
F8000000
7C000000
7C000000
7E000000
3E000000
3F000600
1FC00F00
0FF03F80
07FFFF80
03FFFF00
01FFFC00
007FF000
00030000
ENDCHAR
STARTCHAR 010B
ENCODING 267
SWIDTH 668 0
DWIDTH 26 0
BBX 25 37 1 -1
BITMAP
00078000
000FC000
000FC000
000FC000
000FC000
00078000
00000000
00000000
000FC000
007FF800
01FFFE00
07FFFF00
0FFFFF80
1FE03F00
1F800E00
3F000400
3E000000
7C000000
7C000000
7C000000
F8000000
F8000000
F8000000
F8000000
F8000000
7C000000
7C000000
7E000000
3E000000
3F000600
1FC00F00
0FF03F80
07FFFF80
03FFFF00
01FFFC00
007FF000
00030000
ENDCHAR
STARTCHAR 010C
ENCODING 268
SWIDTH 668 0
DWIDTH 26 0
BBX 25 36 1 -1
BITMAP
00787000
003CF000
003DE000
001FC000
000FC000
00000000
00000000
000FC000
007FF800
01FFFE00
07FFFF00
0FFFFF80
1FE03F00
1F800E00
3F000400
3E000000
7C000000
7C000000
7C000000
F8000000
F8000000
F8000000
F8000000
F8000000
7C000000
7C000000
7E000000
3E000000
3F000600
1FC00F00
0FF03F80
07FFFF80
03FFFF00
01FFFC00
007FF000
00030000
ENDCHAR
STARTCHAR 010D
ENCODING 269
SWIDTH 668 0
DWIDTH 26 0
BBX 25 36 1 -1
BITMAP
00787000
003CF000
003DE000
001FC000
000FC000
00000000
00000000
000FC000
007FF800
01FFFE00
07FFFF00
0FFFFF80
1FE03F00
1F800E00
3F000400
3E000000
7C000000
7C000000
7C000000
F8000000
F8000000
F8000000
F8000000
F8000000
7C000000
7C000000
7E000000
3E000000
3F000600
1FC00F00
0FF03F80
07FFFF80
03FFFF00
01FFFC00
007FF000
00030000
ENDCHAR
STARTCHAR 010E
ENCODING 270
SWIDTH 668 0
DWIDTH 26 0
BBX 23 35 2 0
BITMAP
1E1E00
0F3C00
07F800
07F800
03F000
000000
000000
000000
FFF800
FFFF00
FFFFC0
FFFFE0
F81FF0
F803F8
F801F8
F800FC
F8007C
F8007C
F8003E
F8003E
F8003E
F8003E
F8003E
F8003E
F8007C
F8007C
F8007C
F800FC
F801F8
F807F0
FFFFF0
FFFFE0
FFFF80
FFFF00
FFF800
ENDCHAR
STARTCHAR 010F
ENCODING 271
SWIDTH 668 0
DWIDTH 26 0
BBX 23 35 2 0
BITMAP
1E1E00
0F3C00
07F800
07F800
03F000
000000
000000
000000
FFF800
FFFF00
FFFFC0
FFFFE0
F81FF0
F803F8
F801F8
F800FC
F8007C
F8007C
F8003E
F8003E
F8003E
F8003E
F8003E
F8003E
F8007C
F8007C
F8007C
F800FC
F801F8
F807F0
FFFFF0
FFFFE0
FFFF80
FFFF00
FFF800
ENDCHAR
STARTCHAR 0110
ENCODING 272
SWIDTH 694 0
DWIDTH 27 0
BBX 25 27 1 0
BITMAP
3FFF0000
3FFFC000
3FFFF000
3FFFF800
3E07FC00
3E00FE00
3E007E00
3E003F00
3E001F00
3E001F00
3E000F80
FFF80F80
FFF80F80
FFF80F80
FFF80F80
3E000F80
3E000F80
3E001F00
3E001F00
3E003F00
3E007E00
3E01FE00
3FFFFC00
3FFFF800
3FFFF000
3FFFC000
3FFE0000
ENDCHAR
STARTCHAR 0111
ENCODING 273
SWIDTH 694 0
DWIDTH 27 0
BBX 25 27 1 0
BITMAP
3FFF0000
3FFFC000
3FFFF000
3FFFF800
3E07FC00
3E00FE00
3E007E00
3E003F00
3E001F00
3E001F00
3E000F80
FFF80F80
FFF80F80
FFF80F80
FFF80F80
3E000F80
3E000F80
3E001F00
3E001F00
3E003F00
3E007E00
3E01FE00
3FFFFC00
3FFFF800
3FFFF000
3FFFC000
3FFE0000
ENDCHAR
STARTCHAR 0112
ENCODING 274
SWIDTH 488 0
DWIDTH 19 0
BBX 19 34 1 0
BITMAP
1FFC00
1FFC00
1FFC00
1FFC00
000000
000000
000000
3FFC00
3FFC00
3FFC00
3FFC00
3E0000
3E0000
3E0000
3E0000
3E0000
3E0000
3E0000
FFFF00
FFFF00
FFFF00
FFFF00
3E0000
3E0000
3E0000
3E0000
3E0000
3E0000
3E0000
3FFFE0
3FFFE0
3FFFE0
3FFFE0
3FFFE0
ENDCHAR
STARTCHAR 0113
ENCODING 275
SWIDTH 488 0
DWIDTH 19 0
BBX 19 34 1 0
BITMAP
1FFC00
1FFC00
1FFC00
1FFC00
000000
000000
000000
3FFC00
3FFC00
3FFC00
3FFC00
3E0000
3E0000
3E0000
3E0000
3E0000
3E0000
3E0000
FFFF00
FFFF00
FFFF00
FFFF00
3E0000
3E0000
3E0000
3E0000
3E0000
3E0000
3E0000
3FFFE0
3FFFE0
3FFFE0
3FFFE0
3FFFE0
ENDCHAR
STARTCHAR 0116
ENCODING 278
SWIDTH 488 0
DWIDTH 19 0
BBX 19 36 1 0
BITMAP
01C000
03E000
07F000
07F000
03E000
03C000
000000
000000
000000
3FFC00
3FFC00
3FFC00
3FFC00
3E0000
3E0000
3E0000
3E0000
3E0000
3E0000
3E0000
FFFF00
FFFF00
FFFF00
FFFF00
3E0000
3E0000
3E0000
3E0000
3E0000
3E0000
3E0000
3FFFE0
3FFFE0
3FFFE0
3FFFE0
3FFFE0
ENDCHAR
STARTCHAR 0117
ENCODING 279
SWIDTH 488 0
DWIDTH 19 0
BBX 19 36 1 0
BITMAP
01C000
03E000
07F000
07F000
03E000
03C000
000000
000000
000000
3FFC00
3FFC00
3FFC00
3FFC00
3E0000
3E0000
3E0000
3E0000
3E0000
3E0000
3E0000
FFFF00
FFFF00
FFFF00
FFFF00
3E0000
3E0000
3E0000
3E0000
3E0000
3E0000
3E0000
3FFFE0
3FFFE0
3FFFE0
3FFFE0
3FFFE0
ENDCHAR
STARTCHAR 0118
ENCODING 280
SWIDTH 488 0
DWIDTH 19 0
BBX 20 35 1 -8
BITMAP
3FFC00
3FFC00
3FFC00
3FFC00
3E0000
3E0000
3E0000
3E0000
3E0000
3E0000
3E0000
FFFF00
FFFF00
FFFF00
FFFF00
3E0000
3E0000
3E0000
3E0000
3E0000
3E0000
3E0000
3FFFE0
3FFFE0
3FFFE0
3FFFE0
3FFFE0
000380
000700
000E00
000E00
000E20
000FF0
0007F0
0001C0
ENDCHAR
STARTCHAR 0119
ENCODING 281
SWIDTH 488 0
DWIDTH 19 0
BBX 20 35 1 -8
BITMAP
3FFC00
3FFC00
3FFC00
3FFC00
3E0000
3E0000
3E0000
3E0000
3E0000
3E0000
3E0000
FFFF00
FFFF00
FFFF00
FFFF00
3E0000
3E0000
3E0000
3E0000
3E0000
3E0000
3E0000
3FFFE0
3FFFE0
3FFFE0
3FFFE0
3FFFE0
000380
000700
000E00
000E00
000E20
000FF0
0007F0
0001C0
ENDCHAR
STARTCHAR 011A
ENCODING 282
SWIDTH 488 0
DWIDTH 19 0
BBX 19 35 1 0
BITMAP
3C3C00
1E7800
0F7800
07F000
07E000
000000
000000
000000
3FFC00
3FFC00
3FFC00
3FFC00
3E0000
3E0000
3E0000
3E0000
3E0000
3E0000
3E0000
FFFF00
FFFF00
FFFF00
FFFF00
3E0000
3E0000
3E0000
3E0000
3E0000
3E0000
3E0000
3FFFE0
3FFFE0
3FFFE0
3FFFE0
3FFFE0
ENDCHAR
STARTCHAR 011B
ENCODING 283
SWIDTH 488 0
DWIDTH 19 0
BBX 19 35 1 0
BITMAP
3C3C00
1E7800
0F7800
07F000
07E000
000000
000000
000000
3FFC00
3FFC00
3FFC00
3FFC00
3E0000
3E0000
3E0000
3E0000
3E0000
3E0000
3E0000
FFFF00
FFFF00
FFFF00
FFFF00
3E0000
3E0000
3E0000
3E0000
3E0000
3E0000
3E0000
3FFFE0
3FFFE0
3FFFE0
3FFFE0
3FFFE0
ENDCHAR
STARTCHAR 011E
ENCODING 286
SWIDTH 822 0
DWIDTH 32 0
BBX 31 36 1 -1
BITMAP
00707000
00707000
0038F000
003FE000
001FC000
00000000
00000000
000FC000
007FF800
01FFFE00
07FFFF00
0FFFFF80
1FE01F80
1F800F00
3F000400
3E000000
7C000000
7C000000
7C000000
F803FFFE
F803FFFE
F803FFFE
F803FFFE
F803FFFE
7C0001F8
7C0001F0
7E0001F0
3E0003F0
3F0007E0
1FC00FE0
0FF03FC0
07FFFF80
03FFFF00
01FFFE00
007FF800
00030000
ENDCHAR
STARTCHAR 011F
ENCODING 287
SWIDTH 822 0
DWIDTH 32 0
BBX 31 36 1 -1
BITMAP
00707000
00707000
0038F000
003FE000
001FC000
00000000
00000000
000FC000
007FF800
01FFFE00
07FFFF00
0FFFFF80
1FE01F80
1F800F00
3F000400
3E000000
7C000000
7C000000
7C000000
F803FFFE
F803FFFE
F803FFFE
F803FFFE
F803FFFE
7C0001F8
7C0001F0
7E0001F0
3E0003F0
3F0007E0
1FC00FE0
0FF03FC0
07FFFF80
03FFFF00
01FFFE00
007FF800
00030000
ENDCHAR
STARTCHAR 0120
ENCODING 288
SWIDTH 822 0
DWIDTH 32 0
BBX 31 37 1 -1
BITMAP
00078000
000FC000
000FC000
000FC000
000FC000
00078000
00000000
00000000
000FC000
007FF800
01FFFE00
07FFFF00
0FFFFF80
1FE01F80
1F800F00
3F000400
3E000000
7C000000
7C000000
7C000000
F803FFFE
F803FFFE
F803FFFE
F803FFFE
F803FFFE
7C0001F8
7C0001F0
7E0001F0
3E0003F0
3F0007E0
1FC00FE0
0FF03FC0
07FFFF80
03FFFF00
01FFFE00
007FF800
00030000
ENDCHAR
STARTCHAR 0121
ENCODING 289
SWIDTH 822 0
DWIDTH 32 0
BBX 31 37 1 -1
BITMAP
00078000
000FC000
000FC000
000FC000
000FC000
00078000
00000000
00000000
000FC000
007FF800
01FFFE00
07FFFF00
0FFFFF80
1FE01F80
1F800F00
3F000400
3E000000
7C000000
7C000000
7C000000
F803FFFE
F803FFFE
F803FFFE
F803FFFE
F803FFFE
7C0001F8
7C0001F0
7E0001F0
3E0003F0
3F0007E0
1FC00FE0
0FF03FC0
07FFFF80
03FFFF00
01FFFE00
007FF800
00030000
ENDCHAR
STARTCHAR 0124
ENCODING 292
SWIDTH 565 0
DWIDTH 22 0
BBX 19 35 1 0
BITMAP
00FC00
00FC00
01FE00
03CF00
078700
000080
000000
000000
3E03E0
3E03E0
3E03E0
3E03E0
3E03E0
3E03E0
3E03E0
3E03E0
3E03E0
3E03E0
3E03E0
FFFFE0
FFFFE0
FFFFE0
FFFFE0
FFFFE0
3E03E0
3E03E0
3E03E0
3E03E0
3E03E0
3E03E0
3E03E0
3E03E0
3E03E0
3E03E0
3E03E0
ENDCHAR
STARTCHAR 0125
ENCODING 293
SWIDTH 565 0
DWIDTH 22 0
BBX 19 35 1 0
BITMAP
00FC00
00FC00
01FE00
03CF00
078700
000080
000000
000000
3E03E0
3E03E0
3E03E0
3E03E0
3E03E0
3E03E0
3E03E0
3E03E0
3E03E0
3E03E0
3E03E0
FFFFE0
FFFFE0
FFFFE0
FFFFE0
FFFFE0
3E03E0
3E03E0
3E03E0
3E03E0
3E03E0
3E03E0
3E03E0
3E03E0
3E03E0
3E03E0
3E03E0
ENDCHAR
STARTCHAR 0128
ENCODING 296
SWIDTH 231 0
DWIDTH 9 0
BBX 10 24 -1 0
BITMAP
FC40
FFC0
FFC0
0380
0000
0000
0000
1F00
1F00
1F00
1F00
1F00
1F00
1F00
1F00
1F00
1F00
1F00
1F00
1F00
1F00
1F00
1F00
1F00
ENDCHAR
STARTCHAR 0129
ENCODING 297
SWIDTH 231 0
DWIDTH 9 0
BBX 10 24 -1 0
BITMAP
FC40
FFC0
FFC0
0380
0000
0000
0000
1F00
1F00
1F00
1F00
1F00
1F00
1F00
1F00
1F00
1F00
1F00
1F00
1F00
1F00
1F00
1F00
1F00
ENDCHAR
STARTCHAR 012A
ENCODING 298
SWIDTH 231 0
DWIDTH 9 0
BBX 11 23 -1 0
BITMAP
FFE0
FFE0
FFE0
0000
0000
0000
1F00
1F00
1F00
1F00
1F00
1F00
1F00
1F00
1F00
1F00
1F00
1F00
1F00
1F00
1F00
1F00
1F00
ENDCHAR
STARTCHAR 012B
ENCODING 299
SWIDTH 231 0
DWIDTH 9 0
BBX 11 23 -1 0
BITMAP
FFE0
FFE0
FFE0
0000
0000
0000
1F00
1F00
1F00
1F00
1F00
1F00
1F00
1F00
1F00
1F00
1F00
1F00
1F00
1F00
1F00
1F00
1F00
ENDCHAR
STARTCHAR 012E
ENCODING 302
SWIDTH 205 0
DWIDTH 8 0
BBX 10 39 -1 -8
BITMAP
0400
0400
0C00
0E00
FFC0
3F80
1F00
1F00
3B00
2180
0000
0000
0000
0000
1F00
1F00
1F00
1F00
1F00
1F00
1F00
1F00
1F00
1F00
1F00
1F00
1F00
1F00
1F00
1F00
1F00
1C00
3800
7000
7000
7100
7FC0
3F80
0600
ENDCHAR
STARTCHAR 012F
ENCODING 303
SWIDTH 205 0
DWIDTH 8 0
BBX 10 39 -1 -8
BITMAP
0400
0400
0C00
0E00
FFC0
3F80
1F00
1F00
3B00
2180
0000
0000
0000
0000
1F00
1F00
1F00
1F00
1F00
1F00
1F00
1F00
1F00
1F00
1F00
1F00
1F00
1F00
1F00
1F00
1F00
1C00
3800
7000
7000
7100
7FC0
3F80
0600
ENDCHAR
STARTCHAR 0130
ENCODING 304
SWIDTH 231 0
DWIDTH 9 0
BBX 6 26 2 0
BITMAP
20
F8
FC
FC
FC
F8
30
00
00
F8
F8
F8
F8
F8
F8
F8
F8
F8
F8
F8
F8
F8
F8
F8
F8
F8
ENDCHAR
STARTCHAR 0139
ENCODING 313
SWIDTH 437 0
DWIDTH 17 0
BBX 15 35 2 0
BITMAP
1E00
1C00
3C00
3800
7000
6000
0000
0000
F800
F800
F800
F800
F800
F800
F800
F800
F800
F800
F800
F800
F800
F800
F800
F800
F800
F800
F800
F800
F800
F800
FFFE
FFFE
FFFE
FFFE
FFFE
ENDCHAR
STARTCHAR 013A
ENCODING 314
SWIDTH 437 0
DWIDTH 17 0
BBX 15 35 2 0
BITMAP
1E00
1C00
3C00
3800
7000
6000
0000
0000
F800
F800
F800
F800
F800
F800
F800
F800
F800
F800
F800
F800
F800
F800
F800
F800
F800
F800
F800
F800
F800
F800
FFFE
FFFE
FFFE
FFFE
FFFE
ENDCHAR
STARTCHAR 013D
ENCODING 317
SWIDTH 437 0
DWIDTH 17 0
BBX 18 35 -1 0
BITMAP
F1E000
79E000
7BC000
3F8000
1F0000
000000
000000
000000
1F0000
1F0000
1F0000
1F0000
1F0000
1F0000
1F0000
1F0000
1F0000
1F0000
1F0000
1F0000
1F0000
1F0000
1F0000
1F0000
1F0000
1F0000
1F0000
1F0000
1F0000
1F0000
1FFFC0
1FFFC0
1FFFC0
1FFFC0
1FFFC0
ENDCHAR
STARTCHAR 013E
ENCODING 318
SWIDTH 437 0
DWIDTH 17 0
BBX 18 35 -1 0
BITMAP
F1E000
79E000
7BC000
3F8000
1F0000
000000
000000
000000
1F0000
1F0000
1F0000
1F0000
1F0000
1F0000
1F0000
1F0000
1F0000
1F0000
1F0000
1F0000
1F0000
1F0000
1F0000
1F0000
1F0000
1F0000
1F0000
1F0000
1F0000
1F0000
1FFFC0
1FFFC0
1FFFC0
1FFFC0
1FFFC0
ENDCHAR
STARTCHAR 0141
ENCODING 321
SWIDTH 488 0
DWIDTH 19 0
BBX 18 27 1 0
BITMAP
1F0000
1F0000
1F0000
1F0000
1F0000
1F0000
1F0000
1F0000
1F0800
1F3800
1FFC00
1FF000
1FC000
3F0000
FF0000
FF0000
DF0000
1F0000
1F0000
1F0000
1F0000
1F0000
1FFFC0
1FFFC0
1FFFC0
1FFFC0
1FFFC0
ENDCHAR
STARTCHAR 0142
ENCODING 322
SWIDTH 488 0
DWIDTH 19 0
BBX 18 27 1 0
BITMAP
1F0000
1F0000
1F0000
1F0000
1F0000
1F0000
1F0000
1F0000
1F0800
1F3800
1FFC00
1FF000
1FC000
3F0000
FF0000
FF0000
DF0000
1F0000
1F0000
1F0000
1F0000
1F0000
1FFFC0
1FFFC0
1FFFC0
1FFFC0
1FFFC0
ENDCHAR
STARTCHAR 0143
ENCODING 323
SWIDTH 540 0
DWIDTH 21 0
BBX 19 35 1 0
BITMAP
001C00
003C00
003800
007000
00E000
00E000
000000
200000
7003E0
7C03E0
FE03E0
FF03E0
3FC3E0
3FE3E0
3FF3E0
3FFBE0
3FFFE0
3EFFE0
3E3FE0
3E1FE0
3E0FE0
3E07E0
3E03E0
3E03E0
3E03E0
3E03E0
3E03E0
3E03E0
3E03E0
3E03E0
3E03E0
3E03E0
3E03E0
3E03E0
3E03E0
ENDCHAR
STARTCHAR 0144
ENCODING 324
SWIDTH 540 0
DWIDTH 21 0
BBX 19 35 1 0
BITMAP
001C00
003C00
003800
007000
00E000
00E000
000000
200000
7003E0
7C03E0
FE03E0
FF03E0
3FC3E0
3FE3E0
3FF3E0
3FFBE0
3FFFE0
3EFFE0
3E3FE0
3E1FE0
3E0FE0
3E07E0
3E03E0
3E03E0
3E03E0
3E03E0
3E03E0
3E03E0
3E03E0
3E03E0
3E03E0
3E03E0
3E03E0
3E03E0
3E03E0
ENDCHAR
STARTCHAR 0147
ENCODING 327
SWIDTH 540 0
DWIDTH 21 0
BBX 19 35 1 0
BITMAP
0F0F00
079E00
03FC00
03F800
01F800
000000
000000
200000
7003E0
7C03E0
FE03E0
FF03E0
3FC3E0
3FE3E0
3FF3E0
3FFBE0
3FFFE0
3EFFE0
3E3FE0
3E1FE0
3E0FE0
3E07E0
3E03E0
3E03E0
3E03E0
3E03E0
3E03E0
3E03E0
3E03E0
3E03E0
3E03E0
3E03E0
3E03E0
3E03E0
3E03E0
ENDCHAR
STARTCHAR 0148
ENCODING 328
SWIDTH 540 0
DWIDTH 21 0
BBX 19 35 1 0
BITMAP
0F0F00
079E00
03FC00
03F800
01F800
000000
000000
200000
7003E0
7C03E0
FE03E0
FF03E0
3FC3E0
3FE3E0
3FF3E0
3FFBE0
3FFFE0
3EFFE0
3E3FE0
3E1FE0
3E0FE0
3E07E0
3E03E0
3E03E0
3E03E0
3E03E0
3E03E0
3E03E0
3E03E0
3E03E0
3E03E0
3E03E0
3E03E0
3E03E0
3E03E0
ENDCHAR
STARTCHAR 014C
ENCODING 332
SWIDTH 797 0
DWIDTH 31 0
BBX 30 35 1 -1
BITMAP
007FF800
007FF800
007FF800
007FF800
00000000
00000000
000FC000
007FF800
01FFFE00
07FFFF80
0FFFFFC0
1FE01FC0
1F8007E0
3F0003F0
3E0001F0
7C0001F8
7C0000F8
7C0000F8
F8000078
F800007C
F800007C
F800007C
F8000078
7C0000F8
7C0000F8
7E0001F8
3E0001F0
3F0003F0
1FC00FE0
0FF03FC0
07FFFF80
03FFFF00
01FFFE00
007FF800
00030000
ENDCHAR
STARTCHAR 014D
ENCODING 333
SWIDTH 797 0
DWIDTH 31 0
BBX 30 35 1 -1
BITMAP
007FF800
007FF800
007FF800
007FF800
00000000
00000000
000FC000
007FF800
01FFFE00
07FFFF80
0FFFFFC0
1FE01FC0
1F8007E0
3F0003F0
3E0001F0
7C0001F8
7C0000F8
7C0000F8
F8000078
F800007C
F800007C
F800007C
F8000078
7C0000F8
7C0000F8
7E0001F8
3E0001F0
3F0003F0
1FC00FE0
0FF03FC0
07FFFF80
03FFFF00
01FFFE00
007FF800
00030000
ENDCHAR
STARTCHAR 0150
ENCODING 336
SWIDTH 797 0
DWIDTH 31 0
BBX 30 36 1 -1
BITMAP
000F1E00
000E3C00
001E3800
001C7000
00387000
0030E000
00000000
000FC000
007FF800
01FFFE00
07FFFF80
0FFFFFC0
1FE01FC0
1F8007E0
3F0003F0
3E0001F0
7C0001F8
7C0000F8
7C0000F8
F8000078
F800007C
F800007C
F800007C
F8000078
7C0000F8
7C0000F8
7E0001F8
3E0001F0
3F0003F0
1FC00FE0
0FF03FC0
07FFFF80
03FFFF00
01FFFE00
007FF800
00030000
ENDCHAR
STARTCHAR 0151
ENCODING 337
SWIDTH 797 0
DWIDTH 31 0
BBX 30 36 1 -1
BITMAP
000F1E00
000E3C00
001E3800
001C7000
00387000
0030E000
00000000
000FC000
007FF800
01FFFE00
07FFFF80
0FFFFFC0
1FE01FC0
1F8007E0
3F0003F0
3E0001F0
7C0001F8
7C0000F8
7C0000F8
F8000078
F800007C
F800007C
F800007C
F8000078
7C0000F8
7C0000F8
7E0001F8
3E0001F0
3F0003F0
1FC00FE0
0FF03FC0
07FFFF80
03FFFF00
01FFFE00
007FF800
00030000
ENDCHAR
STARTCHAR 0154
ENCODING 340
SWIDTH 591 0
DWIDTH 23 0
BBX 21 35 1 0
BITMAP
001E00
001C00
003C00
003800
007000
006000
000000
000000
3FFF00
3FFFC0
3FFFE0
3FFFF0
3E07F8
3E01F8
3E00F8
3E0078
3E0078
3E00F8
3E00F8
3E03F8
FFFFF0
FFFFE0
FFFFC0
FFFFC0
FFFFE0
3E03E0
3E03F0
3E01F0
3E01F0
3E01F0
3E01F0
3E01F0
3E01F0
3E01F0
3E01F0
ENDCHAR
STARTCHAR 0155
ENCODING 341
SWIDTH 591 0
DWIDTH 23 0
BBX 21 35 1 0
BITMAP
001E00
001C00
003C00
003800
007000
006000
000000
000000
3FFF00
3FFFC0
3FFFE0
3FFFF0
3E07F8
3E01F8
3E00F8
3E0078
3E0078
3E00F8
3E00F8
3E03F8
FFFFF0
FFFFE0
FFFFC0
FFFFC0
FFFFE0
3E03E0
3E03F0
3E01F0
3E01F0
3E01F0
3E01F0
3E01F0
3E01F0
3E01F0
3E01F0
ENDCHAR
STARTCHAR 0158
ENCODING 344
SWIDTH 591 0
DWIDTH 23 0
BBX 21 35 1 0
BITMAP
078700
03CF00
03DE00
01FC00
00FC00
000000
000000
000000
3FFF00
3FFFC0
3FFFE0
3FFFF0
3E07F8
3E01F8
3E00F8
3E0078
3E0078
3E00F8
3E00F8
3E03F8
FFFFF0
FFFFE0
FFFFC0
FFFFC0
FFFFE0
3E03E0
3E03F0
3E01F0
3E01F0
3E01F0
3E01F0
3E01F0
3E01F0
3E01F0
3E01F0
ENDCHAR
STARTCHAR 0159
ENCODING 345
SWIDTH 591 0
DWIDTH 23 0
BBX 21 35 1 0
BITMAP
078700
03CF00
03DE00
01FC00
00FC00
000000
000000
000000
3FFF00
3FFFC0
3FFFE0
3FFFF0
3E07F8
3E01F8
3E00F8
3E0078
3E0078
3E00F8
3E00F8
3E03F8
FFFFF0
FFFFE0
FFFFC0
FFFFC0
FFFFE0
3E03E0
3E03F0
3E01F0
3E01F0
3E01F0
3E01F0
3E01F0
3E01F0
3E01F0
3E01F0
ENDCHAR
STARTCHAR 015A
ENCODING 346
SWIDTH 488 0
DWIDTH 19 0
BBX 18 36 1 -1
BITMAP
007800
007000
00F000
00E000
01C000
01C000
000000
03E000
0FFC00
1FFE00
3FFF00
3FFF00
7E1F80
7C0F80
7C0E00
7C0000
3E0000
3F0000
1FC000
0FF000
07F800
03FC00
00FE00
007F00
001F80
000F80
000FC0
1807C0
F807C0
FC0F80
7E1F80
7FFF80
3FFF00
1FFE00
07FC00
00C000
ENDCHAR
STARTCHAR 015B
ENCODING 347
SWIDTH 488 0
DWIDTH 19 0
BBX 18 36 1 -1
BITMAP
007800
007000
00F000
00E000
01C000
01C000
000000
03E000
0FFC00
1FFE00
3FFF00
3FFF00
7E1F80
7C0F80
7C0E00
7C0000
3E0000
3F0000
1FC000
0FF000
07F800
03FC00
00FE00
007F00
001F80
000F80
000FC0
1807C0
F807C0
FC0F80
7E1F80
7FFF80
3FFF00
1FFE00
07FC00
00C000
ENDCHAR
STARTCHAR 015E
ENCODING 350
SWIDTH 488 0
DWIDTH 19 0
BBX 18 37 1 -9
BITMAP
03E000
0FFC00
1FFE00
3FFF00
3FFF00
7E1F80
7C0F80
7C0E00
7C0000
3E0000
3F0000
1FC000
0FF000
07F800
03FC00
00FE00
007F00
001F80
000F80
000FC0
1807C0
F807C0
FC0F80
7E1F80
7FFF80
3FFF00
1FFE00
07FC00
00E000
00C000
00F000
003000
043000
0E3000
0FF000
07E000
018000
ENDCHAR
STARTCHAR 015F
ENCODING 351
SWIDTH 488 0
DWIDTH 19 0
BBX 18 37 1 -9
BITMAP
03E000
0FFC00
1FFE00
3FFF00
3FFF00
7E1F80
7C0F80
7C0E00
7C0000
3E0000
3F0000
1FC000
0FF000
07F800
03FC00
00FE00
007F00
001F80
000F80
000FC0
1807C0
F807C0
FC0F80
7E1F80
7FFF80
3FFF00
1FFE00
07FC00
00E000
00C000
00F000
003000
043000
0E3000
0FF000
07E000
018000
ENDCHAR
STARTCHAR 0160
ENCODING 352
SWIDTH 488 0
DWIDTH 19 0
BBX 18 36 1 -1
BITMAP
1E1E00
0F3C00
07F800
07F000
03F000
000000
000000
03E000
0FFC00
1FFE00
3FFF00
3FFF00
7E1F80
7C0F80
7C0E00
7C0000
3E0000
3F0000
1FC000
0FF000
07F800
03FC00
00FE00
007F00
001F80
000F80
000FC0
1807C0
F807C0
FC0F80
7E1F80
7FFF80
3FFF00
1FFE00
07FC00
00C000
ENDCHAR
STARTCHAR 0161
ENCODING 353
SWIDTH 488 0
DWIDTH 19 0
BBX 18 36 1 -1
BITMAP
1E1E00
0F3C00
07F800
07F000
03F000
000000
000000
03E000
0FFC00
1FFE00
3FFF00
3FFF00
7E1F80
7C0F80
7C0E00
7C0000
3E0000
3F0000
1FC000
0FF000
07F800
03FC00
00FE00
007F00
001F80
000F80
000FC0
1807C0
F807C0
FC0F80
7E1F80
7FFF80
3FFF00
1FFE00
07FC00
00C000
ENDCHAR
STARTCHAR 0162
ENCODING 354
SWIDTH 514 0
DWIDTH 20 0
BBX 18 36 1 -9
BITMAP
FFFFC0
FFFFC0
FFFFC0
FFFFC0
01F000
01F000
01F000
01F000
01F000
01F000
01F000
01F000
01F000
01F000
01F000
01F000
01F000
01F000
01F000
01F000
01F000
01F000
01F000
01F000
01F000
01F000
01F000
00C000
01C000
01E000
007000
043000
0C7000
0FF000
07E000
008000
ENDCHAR
STARTCHAR 0163
ENCODING 355
SWIDTH 514 0
DWIDTH 20 0
BBX 18 36 1 -9
BITMAP
FFFFC0
FFFFC0
FFFFC0
FFFFC0
01F000
01F000
01F000
01F000
01F000
01F000
01F000
01F000
01F000
01F000
01F000
01F000
01F000
01F000
01F000
01F000
01F000
01F000
01F000
01F000
01F000
01F000
01F000
00C000
01C000
01E000
007000
043000
0C7000
0FF000
07E000
008000
ENDCHAR
STARTCHAR 0164
ENCODING 356
SWIDTH 514 0
DWIDTH 20 0
BBX 18 35 1 0
BITMAP
1E1E00
0F3C00
07F800
03F800
03F000
000000
000000
000000
FFFFC0
FFFFC0
FFFFC0
FFFFC0
01F000
01F000
01F000
01F000
01F000
01F000
01F000
01F000
01F000
01F000
01F000
01F000
01F000
01F000
01F000
01F000
01F000
01F000
01F000
01F000
01F000
01F000
01F000
ENDCHAR
STARTCHAR 0165
ENCODING 357
SWIDTH 514 0
DWIDTH 20 0
BBX 18 35 1 0
BITMAP
1E1E00
0F3C00
07F800
03F800
03F000
000000
000000
000000
FFFFC0
FFFFC0
FFFFC0
FFFFC0
01F000
01F000
01F000
01F000
01F000
01F000
01F000
01F000
01F000
01F000
01F000
01F000
01F000
01F000
01F000
01F000
01F000
01F000
01F000
01F000
01F000
01F000
01F000
ENDCHAR
STARTCHAR 0168
ENCODING 360
SWIDTH 514 0
DWIDTH 20 0
BBX 17 36 2 -1
BITMAP
0C0000
1FF000
1FF000
11F000
000000
000000
000000
000000
F80F80
F80F80
F80F80
F80F80
F80F80
F80F80
F80F80
F80F80
F80F80
F80F80
F80F80
F80F80
F80F80
F80F80
F80F80
F80F80
F80F80
F80F80
F80F80
F80F80
F80F80
F81F00
7C3F00
7FFF00
3FFE00
1FFC00
0FF800
018000
ENDCHAR
STARTCHAR 0169
ENCODING 361
SWIDTH 514 0
DWIDTH 20 0
BBX 17 36 2 -1
BITMAP
0C0000
1FF000
1FF000
11F000
000000
000000
000000
000000
F80F80
F80F80
F80F80
F80F80
F80F80
F80F80
F80F80
F80F80
F80F80
F80F80
F80F80
F80F80
F80F80
F80F80
F80F80
F80F80
F80F80
F80F80
F80F80
F80F80
F80F80
F81F00
7C3F00
7FFF00
3FFE00
1FFC00
0FF800
018000
ENDCHAR
STARTCHAR 016A
ENCODING 362
SWIDTH 514 0
DWIDTH 20 0
BBX 17 35 2 -1
BITMAP
1FFC00
1FFC00
1FFC00
1FFC00
000000
000000
000000
F80F80
F80F80
F80F80
F80F80
F80F80
F80F80
F80F80
F80F80
F80F80
F80F80
F80F80
F80F80
F80F80
F80F80
F80F80
F80F80
F80F80
F80F80
F80F80
F80F80
F80F80
F81F00
7C3F00
7FFF00
3FFE00
1FFC00
0FF800
018000
ENDCHAR
STARTCHAR 016B
ENCODING 363
SWIDTH 514 0
DWIDTH 20 0
BBX 17 35 2 -1
BITMAP
1FFC00
1FFC00
1FFC00
1FFC00
000000
000000
000000
F80F80
F80F80
F80F80
F80F80
F80F80
F80F80
F80F80
F80F80
F80F80
F80F80
F80F80
F80F80
F80F80
F80F80
F80F80
F80F80
F80F80
F80F80
F80F80
F80F80
F80F80
F81F00
7C3F00
7FFF00
3FFE00
1FFC00
0FF800
018000
ENDCHAR
STARTCHAR 016E
ENCODING 366
SWIDTH 514 0
DWIDTH 20 0
BBX 17 38 2 -1
BITMAP
03E000
07F000
0E3000
0C3000
0E3000
07F000
03E000
008000
000000
000000
F80F80
F80F80
F80F80
F80F80
F80F80
F80F80
F80F80
F80F80
F80F80
F80F80
F80F80
F80F80
F80F80
F80F80
F80F80
F80F80
F80F80
F80F80
F80F80
F80F80
F80F80
F81F00
7C3F00
7FFF00
3FFE00
1FFC00
0FF800
018000
ENDCHAR
STARTCHAR 016F
ENCODING 367
SWIDTH 514 0
DWIDTH 20 0
BBX 17 38 2 -1
BITMAP
03E000
07F000
0E3000
0C3000
0E3000
07F000
03E000
008000
000000
000000
F80F80
F80F80
F80F80
F80F80
F80F80
F80F80
F80F80
F80F80
F80F80
F80F80
F80F80
F80F80
F80F80
F80F80
F80F80
F80F80
F80F80
F80F80
F80F80
F80F80
F80F80
F81F00
7C3F00
7FFF00
3FFE00
1FFC00
0FF800
018000
ENDCHAR
STARTCHAR 0170
ENCODING 368
SWIDTH 514 0
DWIDTH 20 0
BBX 17 36 2 -1
BITMAP
038F00
078E00
071C00
0E1C00
0C3800
1C3000
000000
000000
F80F80
F80F80
F80F80
F80F80
F80F80
F80F80
F80F80
F80F80
F80F80
F80F80
F80F80
F80F80
F80F80
F80F80
F80F80
F80F80
F80F80
F80F80
F80F80
F80F80
F80F80
F81F00
7C3F00
7FFF00
3FFE00
1FFC00
0FF800
018000
ENDCHAR
STARTCHAR 0171
ENCODING 369
SWIDTH 514 0
DWIDTH 20 0
BBX 17 36 2 -1
BITMAP
038F00
078E00
071C00
0E1C00
0C3800
1C3000
000000
000000
F80F80
F80F80
F80F80
F80F80
F80F80
F80F80
F80F80
F80F80
F80F80
F80F80
F80F80
F80F80
F80F80
F80F80
F80F80
F80F80
F80F80
F80F80
F80F80
F80F80
F80F80
F81F00
7C3F00
7FFF00
3FFE00
1FFC00
0FF800
018000
ENDCHAR
STARTCHAR 0172
ENCODING 370
SWIDTH 514 0
DWIDTH 20 0
BBX 17 35 2 -8
BITMAP
F80F80
F80F80
F80F80
F80F80
F80F80
F80F80
F80F80
F80F80
F80F80
F80F80
F80F80
F80F80
F80F80
F80F80
F80F80
F80F80
F80F80
F80F80
F80F80
F80F80
F80F80
F81F00
7C3F00
7FFF00
3FFE00
1FFC00
0FF800
03C000
070000
070000
060000
071000
07F800
03F000
00C000
ENDCHAR
STARTCHAR 0173
ENCODING 371
SWIDTH 514 0
DWIDTH 20 0
BBX 17 35 2 -8
BITMAP
F80F80
F80F80
F80F80
F80F80
F80F80
F80F80
F80F80
F80F80
F80F80
F80F80
F80F80
F80F80
F80F80
F80F80
F80F80
F80F80
F80F80
F80F80
F80F80
F80F80
F80F80
F81F00
7C3F00
7FFF00
3FFE00
1FFC00
0FF800
03C000
070000
070000
060000
071000
07F800
03F000
00C000
ENDCHAR
STARTCHAR 0176
ENCODING 374
SWIDTH 514 0
DWIDTH 20 0
BBX 17 35 2 0
BITMAP
07E000
07E000
0FF000
1E7800
1C3C00
200000
000000
000000
F00F80
F00F80
F00F80
F00F80
F00F80
F00F80
F00F80
F00F80
F00F80
F00F80
F00F80
F00F80
F00F80
F81F00
F81F00
FC3F00
7FFE00
7FFE00
3FFC00
1FF800
03E000
03E000
03E000
03E000
03E000
03E000
03E000
ENDCHAR
STARTCHAR 0177
ENCODING 375
SWIDTH 514 0
DWIDTH 20 0
BBX 17 35 2 0
BITMAP
07E000
07E000
0FF000
1E7800
1C3C00
200000
000000
000000
F00F80
F00F80
F00F80
F00F80
F00F80
F00F80
F00F80
F00F80
F00F80
F00F80
F00F80
F00F80
F00F80
F81F00
F81F00
FC3F00
7FFE00
7FFE00
3FFC00
1FF800
03E000
03E000
03E000
03E000
03E000
03E000
03E000
ENDCHAR
STARTCHAR 0178
ENCODING 376
SWIDTH 514 0
DWIDTH 20 0
BBX 17 35 2 0
BITMAP
3C1E00
7E3F00
7E3F00
7E3F00
7C3F00
381E00
000000
000000
F00F80
F00F80
F00F80
F00F80
F00F80
F00F80
F00F80
F00F80
F00F80
F00F80
F00F80
F00F80
F00F80
F81F00
F81F00
FC3F00
7FFE00
7FFE00
3FFC00
1FF800
03E000
03E000
03E000
03E000
03E000
03E000
03E000
ENDCHAR
STARTCHAR 0179
ENCODING 377
SWIDTH 514 0
DWIDTH 20 0
BBX 19 35 1 0
BITMAP
003C00
003800
007000
00F000
00E000
01C000
000000
000000
FFFFE0
FFFFE0
FFFFC0
FFFFC0
000F80
001F00
001F00
003E00
007E00
007C00
00F800
00F800
01F000
03F000
03E000
07E000
07C000
0F8000
1F8000
1F0000
3F0000
3E0000
7FFFC0
FFFFC0
FFFFC0
FFFFC0
FFFFC0
ENDCHAR
STARTCHAR 017A
ENCODING 378
SWIDTH 514 0
DWIDTH 20 0
BBX 19 35 1 0
BITMAP
003C00
003800
007000
00F000
00E000
01C000
000000
000000
FFFFE0
FFFFE0
FFFFC0
FFFFC0
000F80
001F00
001F00
003E00
007E00
007C00
00F800
00F800
01F000
03F000
03E000
07E000
07C000
0F8000
1F8000
1F0000
3F0000
3E0000
7FFFC0
FFFFC0
FFFFC0
FFFFC0
FFFFC0
ENDCHAR
STARTCHAR 017B
ENCODING 379
SWIDTH 514 0
DWIDTH 20 0
BBX 19 36 1 0
BITMAP
00E000
01F000
03F800
03F800
01F000
00F000
000000
000000
000000
FFFFE0
FFFFE0
FFFFC0
FFFFC0
000F80
001F00
001F00
003E00
007E00
007C00
00F800
00F800
01F000
03F000
03E000
07E000
07C000
0F8000
1F8000
1F0000
3F0000
3E0000
7FFFC0
FFFFC0
FFFFC0
FFFFC0
FFFFC0
ENDCHAR
STARTCHAR 017C
ENCODING 380
SWIDTH 514 0
DWIDTH 20 0
BBX 19 36 1 0
BITMAP
00E000
01F000
03F800
03F800
01F000
00F000
000000
000000
000000
FFFFE0
FFFFE0
FFFFC0
FFFFC0
000F80
001F00
001F00
003E00
007E00
007C00
00F800
00F800
01F000
03F000
03E000
07E000
07C000
0F8000
1F8000
1F0000
3F0000
3E0000
7FFFC0
FFFFC0
FFFFC0
FFFFC0
FFFFC0
ENDCHAR
STARTCHAR 017D
ENCODING 381
SWIDTH 514 0
DWIDTH 20 0
BBX 19 35 1 0
BITMAP
0F1E00
0F3C00
07BC00
03F800
01F000
000000
000000
000000
FFFFE0
FFFFE0
FFFFC0
FFFFC0
000F80
001F00
001F00
003E00
007E00
007C00
00F800
00F800
01F000
03F000
03E000
07E000
07C000
0F8000
1F8000
1F0000
3F0000
3E0000
7FFFC0
FFFFC0
FFFFC0
FFFFC0
FFFFC0
ENDCHAR
STARTCHAR 017E
ENCODING 382
SWIDTH 514 0
DWIDTH 20 0
BBX 19 35 1 0
BITMAP
0F1E00
0F3C00
07BC00
03F800
01F000
000000
000000
000000
FFFFE0
FFFFE0
FFFFC0
FFFFC0
000F80
001F00
001F00
003E00
007E00
007C00
00F800
00F800
01F000
03F000
03E000
07E000
07C000
0F8000
1F8000
1F0000
3F0000
3E0000
7FFFC0
FFFFC0
FFFFC0
FFFFC0
FFFFC0
ENDCHAR
STARTCHAR 01A0
ENCODING 416
SWIDTH 797 0
DWIDTH 31 0
BBX 30 32 1 -1
BITMAP
000000F0
000000F0
000000E0
000FC1E0
007FFFC0
01FFFF80
07FFFF80
0FFFFFC0
1FE01FE0
1F8007E0
3F0003F0
3E0001F0
7C0001F8
7C0000F8
7C0000F8
F8000078
F800007C
F800007C
F800007C
F8000078
7C0000F8
7C0000F8
7E0001F8
3E0001F0
3F0003F0
1FC00FE0
0FF03FC0
07FFFF80
03FFFF00
01FFFE00
007FF800
00030000
ENDCHAR
STARTCHAR 01A1
ENCODING 417
SWIDTH 797 0
DWIDTH 31 0
BBX 30 32 1 -1
BITMAP
000000F0
000000F0
000000E0
000FC1E0
007FFFC0
01FFFF80
07FFFF80
0FFFFFC0
1FE01FE0
1F8007E0
3F0003F0
3E0001F0
7C0001F8
7C0000F8
7C0000F8
F8000078
F800007C
F800007C
F800007C
F8000078
7C0000F8
7C0000F8
7E0001F8
3E0001F0
3F0003F0
1FC00FE0
0FF03FC0
07FFFF80
03FFFF00
01FFFE00
007FF800
00030000
ENDCHAR
STARTCHAR 01AF
ENCODING 431
SWIDTH 514 0
DWIDTH 20 0
BBX 20 32 2 -1
BITMAP
000070
000070
000070
0000E0
F80FE0
F80F80
F80F80
F80F80
F80F80
F80F80
F80F80
F80F80
F80F80
F80F80
F80F80
F80F80
F80F80
F80F80
F80F80
F80F80
F80F80
F80F80
F80F80
F80F80
F80F80
F81F00
7C3F00
7FFF00
3FFE00
1FFC00
0FF800
018000
ENDCHAR
STARTCHAR 01B0
ENCODING 432
SWIDTH 514 0
DWIDTH 20 0
BBX 20 32 2 -1
BITMAP
000070
000070
000070
0000E0
F80FE0
F80F80
F80F80
F80F80
F80F80
F80F80
F80F80
F80F80
F80F80
F80F80
F80F80
F80F80
F80F80
F80F80
F80F80
F80F80
F80F80
F80F80
F80F80
F80F80
F80F80
F81F00
7C3F00
7FFF00
3FFE00
1FFC00
0FF800
018000
ENDCHAR
STARTCHAR 01CD
ENCODING 461
SWIDTH 565 0
DWIDTH 22 0
BBX 20 35 2 0
BITMAP
1E3C00
1E3C00
0F7800
07F000
03E000
000000
000000
03E000
0FF800
1FFC00
3FFE00
7FFF00
7C1F00
F81F80
F80F80
F80F80
F80F80
F80F80
F80F80
F80F80
F80F80
F80F80
F80F80
F80F80
F80F80
F80F80
F80F80
F80F80
F80F80
F80F80
F80F80
FFFFF0
FFFFF0
FFFFF0
FFFFF0
ENDCHAR
STARTCHAR 01CE
ENCODING 462
SWIDTH 565 0
DWIDTH 22 0
BBX 20 35 2 0
BITMAP
1E3C00
1E3C00
0F7800
07F000
03E000
000000
000000
03E000
0FF800
1FFC00
3FFE00
7FFF00
7C1F00
F81F80
F80F80
F80F80
F80F80
F80F80
F80F80
F80F80
F80F80
F80F80
F80F80
F80F80
F80F80
F80F80
F80F80
F80F80
F80F80
F80F80
F80F80
FFFFF0
FFFFF0
FFFFF0
FFFFF0
ENDCHAR
STARTCHAR 01CF
ENCODING 463
SWIDTH 231 0
DWIDTH 9 0
BBX 13 25 -2 0
BITMAP
F078
78F0
3DE0
1FE0
1FC0
0000
0000
0000
0F80
0F80
0F80
0F80
0F80
0F80
0F80
0F80
0F80
0F80
0F80
0F80
0F80
0F80
0F80
0F80
0F80
ENDCHAR
STARTCHAR 01D0
ENCODING 464
SWIDTH 231 0
DWIDTH 9 0
BBX 13 25 -2 0
BITMAP
F078
78F0
3DE0
1FE0
1FC0
0000
0000
0000
0F80
0F80
0F80
0F80
0F80
0F80
0F80
0F80
0F80
0F80
0F80
0F80
0F80
0F80
0F80
0F80
0F80
ENDCHAR
STARTCHAR 01D1
ENCODING 465
SWIDTH 797 0
DWIDTH 31 0
BBX 30 36 1 -1
BITMAP
00787800
003CF000
001FE000
001FE000
000FC000
00000000
00000000
000FC000
007FF800
01FFFE00
07FFFF80
0FFFFFC0
1FE01FC0
1F8007E0
3F0003F0
3E0001F0
7C0001F8
7C0000F8
7C0000F8
F8000078
F800007C
F800007C
F800007C
F8000078
7C0000F8
7C0000F8
7E0001F8
3E0001F0
3F0003F0
1FC00FE0
0FF03FC0
07FFFF80
03FFFF00
01FFFE00
007FF800
00030000
ENDCHAR
STARTCHAR 01D2
ENCODING 466
SWIDTH 797 0
DWIDTH 31 0
BBX 30 36 1 -1
BITMAP
00787800
003CF000
001FE000
001FE000
000FC000
00000000
00000000
000FC000
007FF800
01FFFE00
07FFFF80
0FFFFFC0
1FE01FC0
1F8007E0
3F0003F0
3E0001F0
7C0001F8
7C0000F8
7C0000F8
F8000078
F800007C
F800007C
F800007C
F8000078
7C0000F8
7C0000F8
7E0001F8
3E0001F0
3F0003F0
1FC00FE0
0FF03FC0
07FFFF80
03FFFF00
01FFFE00
007FF800
00030000
ENDCHAR
STARTCHAR 01D3
ENCODING 467
SWIDTH 514 0
DWIDTH 20 0
BBX 17 36 2 -1
BITMAP
3C3C00
1E7800
0F7800
07F000
07E000
000000
000000
000000
F80F80
F80F80
F80F80
F80F80
F80F80
F80F80
F80F80
F80F80
F80F80
F80F80
F80F80
F80F80
F80F80
F80F80
F80F80
F80F80
F80F80
F80F80
F80F80
F80F80
F80F80
F81F00
7C3F00
7FFF00
3FFE00
1FFC00
0FF800
018000
ENDCHAR
STARTCHAR 01D4
ENCODING 468
SWIDTH 514 0
DWIDTH 20 0
BBX 17 36 2 -1
BITMAP
3C3C00
1E7800
0F7800
07F000
07E000
000000
000000
000000
F80F80
F80F80
F80F80
F80F80
F80F80
F80F80
F80F80
F80F80
F80F80
F80F80
F80F80
F80F80
F80F80
F80F80
F80F80
F80F80
F80F80
F80F80
F80F80
F80F80
F80F80
F81F00
7C3F00
7FFF00
3FFE00
1FFC00
0FF800
018000
ENDCHAR
STARTCHAR 02C6
ENCODING 710
SWIDTH 308 0
DWIDTH 12 0
BBX 12 5 0 30
BITMAP
0F80
1FC0
3FC0
79E0
F8F0
ENDCHAR
STARTCHAR 02C7
ENCODING 711
SWIDTH 308 0
DWIDTH 12 0
BBX 12 5 0 30
BITMAP
F0F0
79E0
3DE0
1FC0
1F80
ENDCHAR
STARTCHAR 02D8
ENCODING 728
SWIDTH 282 0
DWIDTH 11 0
BBX 11 5 0 30
BITMAP
E0E0
E0E0
71E0
7FC0
3F80
ENDCHAR
STARTCHAR 02D9
ENCODING 729
SWIDTH 154 0
DWIDTH 6 0
BBX 6 6 0 30
BITMAP
78
FC
FC
FC
7C
38
ENDCHAR
STARTCHAR 02DA
ENCODING 730
SWIDTH 205 0
DWIDTH 8 0
BBX 8 7 0 29
BITMAP
7E
7E
E7
C3
C3
FF
7E
ENDCHAR
STARTCHAR 02DB
ENCODING 731
SWIDTH 205 0
DWIDTH 8 0
BBX 8 8 0 -8
BITMAP
3C
70
E0
E0
E2
FF
7F
18
ENDCHAR
STARTCHAR 02DC
ENCODING 732
SWIDTH 231 0
DWIDTH 9 0
BBX 9 4 0 31
BITMAP
6000
FF80
FF80
9F80
ENDCHAR
STARTCHAR 02DD
ENCODING 733
SWIDTH 308 0
DWIDTH 12 0
BBX 13 6 0 29
BITMAP
1C78
3C70
38E0
70E0
61C0
E180
ENDCHAR
STARTCHAR 0300
ENCODING 768
SWIDTH 0 0
DWIDTH 0 0
BBX 6 6 -6 29
BITMAP
E0
F0
70
38
18
1C
ENDCHAR
STARTCHAR 0301
ENCODING 769
SWIDTH 0 0
DWIDTH 0 0
BBX 6 6 -6 29
BITMAP
3C
38
70
70
E0
C0
ENDCHAR
STARTCHAR 0302
ENCODING 770
SWIDTH 0 0
DWIDTH 0 0
BBX 12 5 -12 30
BITMAP
1F00
3F80
3FC0
79E0
F1F0
ENDCHAR
STARTCHAR 0303
ENCODING 771
SWIDTH 0 0
DWIDTH 0 0
BBX 9 4 -9 31
BITMAP
6000
FF80
FF80
9F80
ENDCHAR
STARTCHAR 0304
ENCODING 772
SWIDTH 0 0
DWIDTH 0 0
BBX 11 4 -11 30
BITMAP
FFE0
FFE0
FFE0
FFE0
ENDCHAR
STARTCHAR 0306
ENCODING 774
SWIDTH 0 0
DWIDTH 0 0
BBX 11 5 -11 30
BITMAP
E0E0
E0E0
F1C0
7FC0
3F80
ENDCHAR
STARTCHAR 0307
ENCODING 775
SWIDTH 0 0
DWIDTH 0 0
BBX 6 6 -6 30
BITMAP
78
FC
FC
FC
FC
78
ENDCHAR
STARTCHAR 0308
ENCODING 776
SWIDTH 0 0
DWIDTH 0 0
BBX 15 6 -15 29
BITMAP
783C
FC7E
FC7E
FC7E
FC7E
783C
ENDCHAR
STARTCHAR 0309
ENCODING 777
SWIDTH 0 0
DWIDTH 0 0
BBX 4 7 -4 30
BITMAP
70
70
70
70
E0
E0
E0
ENDCHAR
STARTCHAR 030A
ENCODING 778
SWIDTH 0 0
DWIDTH 0 0
BBX 8 7 -8 29
BITMAP
7E
7E
E7
C3
C3
FF
7E
ENDCHAR
STARTCHAR 030B
ENCODING 779
SWIDTH 0 0
DWIDTH 0 0
BBX 13 6 -13 29
BITMAP
1C78
3C70
38E0
70E0
61C0
E180
ENDCHAR
STARTCHAR 030C
ENCODING 780
SWIDTH 0 0
DWIDTH 0 0
BBX 12 5 -12 30
BITMAP
F0F0
79E0
7BC0
3F80
1F80
ENDCHAR
STARTCHAR 031B
ENCODING 795
SWIDTH 0 0
DWIDTH 0 0
BBX 5 5 -5 26
BITMAP
38
38
38
70
F0
ENDCHAR
STARTCHAR 0323
ENCODING 803
SWIDTH 0 0
DWIDTH 0 0
BBX 6 7 -6 -11
BITMAP
20
F8
FC
FC
FC
F8
20
ENDCHAR
STARTCHAR 0326
ENCODING 806
SWIDTH 0 0
DWIDTH 0 0
BBX 6 7 -6 -9
BITMAP
3C
38
78
70
70
F0
E0
ENDCHAR
STARTCHAR 0327
ENCODING 807
SWIDTH 0 0
DWIDTH 0 0
BBX 9 9 -9 -9
BITMAP
0600
0C00
0F00
0380
0180
6380
FF80
3F00
0800
ENDCHAR
STARTCHAR 0328
ENCODING 808
SWIDTH 0 0
DWIDTH 0 0
BBX 9 8 -9 -8
BITMAP
3E00
7000
6000
E000
6300
7F80
3F00
0C00
ENDCHAR
STARTCHAR 0335
ENCODING 821
SWIDTH 0 0
DWIDTH 0 0
BBX 13 4 -13 6
BITMAP
FFF8
FFF8
FFF8
FFF8
ENDCHAR
STARTCHAR 1EA0
ENCODING 7840
SWIDTH 565 0
DWIDTH 22 0
BBX 20 39 2 -11
BITMAP
03E000
0FF800
1FFC00
3FFE00
7FFF00
7C1F00
F81F80
F80F80
F80F80
F80F80
F80F80
F80F80
F80F80
F80F80
F80F80
F80F80
F80F80
F80F80
F80F80
F80F80
F80F80
F80F80
F80F80
F80F80
FFFFF0
FFFFF0
FFFFF0
FFFFF0
000000
000000
000000
000000
008000
03E000
03F000
07F000
03F000
03E000
008000
ENDCHAR
STARTCHAR 1EA1
ENCODING 7841
SWIDTH 565 0
DWIDTH 22 0
BBX 20 39 2 -11
BITMAP
03E000
0FF800
1FFC00
3FFE00
7FFF00
7C1F00
F81F80
F80F80
F80F80
F80F80
F80F80
F80F80
F80F80
F80F80
F80F80
F80F80
F80F80
F80F80
F80F80
F80F80
F80F80
F80F80
F80F80
F80F80
FFFFF0
FFFFF0
FFFFF0
FFFFF0
000000
000000
000000
000000
008000
03E000
03F000
07F000
03F000
03E000
008000
ENDCHAR
STARTCHAR 1EA2
ENCODING 7842
SWIDTH 565 0
DWIDTH 22 0
BBX 20 37 2 0
BITMAP
01C000
01C000
01C000
01C000
018000
038000
01C000
000000
000000
03E000
0FF800
1FFC00
3FFE00
7FFF00
7C1F00
F81F80
F80F80
F80F80
F80F80
F80F80
F80F80
F80F80
F80F80
F80F80
F80F80
F80F80
F80F80
F80F80
F80F80
F80F80
F80F80
F80F80
F80F80
FFFFF0
FFFFF0
FFFFF0
FFFFF0
ENDCHAR
STARTCHAR 1EA3
ENCODING 7843
SWIDTH 565 0
DWIDTH 22 0
BBX 20 37 2 0
BITMAP
01C000
01C000
01C000
01C000
018000
038000
01C000
000000
000000
03E000
0FF800
1FFC00
3FFE00
7FFF00
7C1F00
F81F80
F80F80
F80F80
F80F80
F80F80
F80F80
F80F80
F80F80
F80F80
F80F80
F80F80
F80F80
F80F80
F80F80
F80F80
F80F80
F80F80
F80F80
FFFFF0
FFFFF0
FFFFF0
FFFFF0
ENDCHAR
STARTCHAR 1EA4
ENCODING 7844
SWIDTH 565 0
DWIDTH 22 0
BBX 20 38 2 0
BITMAP
0000E0
0001E0
0001C0
03E380
07F300
0F7800
0F7800
1E3C00
000000
000000
03E000
0FF800
1FFC00
3FFE00
7FFF00
7C1F00
F81F80
F80F80
F80F80
F80F80
F80F80
F80F80
F80F80
F80F80
F80F80
F80F80
F80F80
F80F80
F80F80
F80F80
F80F80
F80F80
F80F80
F80F80
FFFFF0
FFFFF0
FFFFF0
FFFFF0
ENDCHAR
STARTCHAR 1EA5
ENCODING 7845
SWIDTH 565 0
DWIDTH 22 0
BBX 20 38 2 0
BITMAP
0000E0
0001E0
0001C0
03E380
07F300
0F7800
0F7800
1E3C00
000000
000000
03E000
0FF800
1FFC00
3FFE00
7FFF00
7C1F00
F81F80
F80F80
F80F80
F80F80
F80F80
F80F80
F80F80
F80F80
F80F80
F80F80
F80F80
F80F80
F80F80
F80F80
F80F80
F80F80
F80F80
F80F80
FFFFF0
FFFFF0
FFFFF0
FFFFF0
ENDCHAR
STARTCHAR 1EA6
ENCODING 7846
SWIDTH 565 0
DWIDTH 22 0
BBX 23 38 -1 0
BITMAP
E00000
F00000
700000
387C00
18FE00
01EF00
01EF00
03C780
000000
000000
007C00
01FF00
03FF80
07FFC0
0FFFE0
0F83E0
1F03F0
1F01F0
1F01F0
1F01F0
1F01F0
1F01F0
1F01F0
1F01F0
1F01F0
1F01F0
1F01F0
1F01F0
1F01F0
1F01F0
1F01F0
1F01F0
1F01F0
1F01F0
1FFFFE
1FFFFE
1FFFFE
1FFFFE
ENDCHAR
STARTCHAR 1EA7
ENCODING 7847
SWIDTH 565 0
DWIDTH 22 0
BBX 23 38 -1 0
BITMAP
E00000
F00000
700000
387C00
18FE00
01EF00
01EF00
03C780
000000
000000
007C00
01FF00
03FF80
07FFC0
0FFFE0
0F83E0
1F03F0
1F01F0
1F01F0
1F01F0
1F01F0
1F01F0
1F01F0
1F01F0
1F01F0
1F01F0
1F01F0
1F01F0
1F01F0
1F01F0
1F01F0
1F01F0
1F01F0
1F01F0
1FFFFE
1FFFFE
1FFFFE
1FFFFE
ENDCHAR
STARTCHAR 1EA8
ENCODING 7848
SWIDTH 565 0
DWIDTH 22 0
BBX 20 40 2 0
BITMAP
000380
000380
000380
000380
000700
03E700
07F300
0F7800
0F7800
1E3C00
000000
000000
03E000
0FF800
1FFC00
3FFE00
7FFF00
7C1F00
F81F80
F80F80
F80F80
F80F80
F80F80
F80F80
F80F80
F80F80
F80F80
F80F80
F80F80
F80F80
F80F80
F80F80
F80F80
F80F80
F80F80
F80F80
FFFFF0
FFFFF0
FFFFF0
FFFFF0
ENDCHAR
STARTCHAR 1EA9
ENCODING 7849
SWIDTH 565 0
DWIDTH 22 0
BBX 20 40 2 0
BITMAP
000380
000380
000380
000380
000700
03E700
07F300
0F7800
0F7800
1E3C00
000000
000000
03E000
0FF800
1FFC00
3FFE00
7FFF00
7C1F00
F81F80
F80F80
F80F80
F80F80
F80F80
F80F80
F80F80
F80F80
F80F80
F80F80
F80F80
F80F80
F80F80
F80F80
F80F80
F80F80
F80F80
F80F80
FFFFF0
FFFFF0
FFFFF0
FFFFF0
ENDCHAR
STARTCHAR 1EAA
ENCODING 7850
SWIDTH 565 0
DWIDTH 22 0
BBX 20 39 2 0
BITMAP
00FF80
00FF80
00FF80
000100
03E000
07F000
0F7800
0F7800
1E3C00
000000
000000
03E000
0FF800
1FFC00
3FFE00
7FFF00
7C1F00
F81F80
F80F80
F80F80
F80F80
F80F80
F80F80
F80F80
F80F80
F80F80
F80F80
F80F80
F80F80
F80F80
F80F80
F80F80
F80F80
F80F80
F80F80
FFFFF0
FFFFF0
FFFFF0
FFFFF0
ENDCHAR
STARTCHAR 1EAB
ENCODING 7851
SWIDTH 565 0
DWIDTH 22 0
BBX 20 39 2 0
BITMAP
00FF80
00FF80
00FF80
000100
03E000
07F000
0F7800
0F7800
1E3C00
000000
000000
03E000
0FF800
1FFC00
3FFE00
7FFF00
7C1F00
F81F80
F80F80
F80F80
F80F80
F80F80
F80F80
F80F80
F80F80
F80F80
F80F80
F80F80
F80F80
F80F80
F80F80
F80F80
F80F80
F80F80
F80F80
FFFFF0
FFFFF0
FFFFF0
FFFFF0
ENDCHAR
STARTCHAR 1EAC
ENCODING 7852
SWIDTH 565 0
DWIDTH 22 0
BBX 20 46 2 -11
BITMAP
03E000
07F000
0F7800
0F7800
1E3C00
000000
000000
03E000
0FF800
1FFC00
3FFE00
7FFF00
7C1F00
F81F80
F80F80
F80F80
F80F80
F80F80
F80F80
F80F80
F80F80
F80F80
F80F80
F80F80
F80F80
F80F80
F80F80
F80F80
F80F80
F80F80
F80F80
FFFFF0
FFFFF0
FFFFF0
FFFFF0
000000
000000
000000
000000
008000
03E000
03F000
07F000
03F000
03E000
008000
ENDCHAR
STARTCHAR 1EAD
ENCODING 7853
SWIDTH 565 0
DWIDTH 22 0
BBX 20 46 2 -11
BITMAP
03E000
07F000
0F7800
0F7800
1E3C00
000000
000000
03E000
0FF800
1FFC00
3FFE00
7FFF00
7C1F00
F81F80
F80F80
F80F80
F80F80
F80F80
F80F80
F80F80
F80F80
F80F80
F80F80
F80F80
F80F80
F80F80
F80F80
F80F80
F80F80
F80F80
F80F80
FFFFF0
FFFFF0
FFFFF0
FFFFF0
000000
000000
000000
000000
008000
03E000
03F000
07F000
03F000
03E000
008000
ENDCHAR
STARTCHAR 1EAE
ENCODING 7854
SWIDTH 565 0
DWIDTH 22 0
BBX 20 40 2 0
BITMAP
007800
007000
00F000
00E000
01C000
1C1C00
1C1C00
1E3800
0FF800
07F000
000000
000000
03E000
0FF800
1FFC00
3FFE00
7FFF00
7C1F00
F81F80
F80F80
F80F80
F80F80
F80F80
F80F80
F80F80
F80F80
F80F80
F80F80
F80F80
F80F80
F80F80
F80F80
F80F80
F80F80
F80F80
F80F80
FFFFF0
FFFFF0
FFFFF0
FFFFF0
ENDCHAR
STARTCHAR 1EAF
ENCODING 7855
SWIDTH 565 0
DWIDTH 22 0
BBX 20 40 2 0
BITMAP
007800
007000
00F000
00E000
01C000
1C1C00
1C1C00
1E3800
0FF800
07F000
000000
000000
03E000
0FF800
1FFC00
3FFE00
7FFF00
7C1F00
F81F80
F80F80
F80F80
F80F80
F80F80
F80F80
F80F80
F80F80
F80F80
F80F80
F80F80
F80F80
F80F80
F80F80
F80F80
F80F80
F80F80
F80F80
FFFFF0
FFFFF0
FFFFF0
FFFFF0
ENDCHAR
STARTCHAR 1EB0
ENCODING 7856
SWIDTH 565 0
DWIDTH 22 0
BBX 20 40 2 0
BITMAP
1E0000
0F0000
070000
038000
038000
1C1C00
1C1C00
1E3800
0FF800
07F000
000000
000000
03E000
0FF800
1FFC00
3FFE00
7FFF00
7C1F00
F81F80
F80F80
F80F80
F80F80
F80F80
F80F80
F80F80
F80F80
F80F80
F80F80
F80F80
F80F80
F80F80
F80F80
F80F80
F80F80
F80F80
F80F80
FFFFF0
FFFFF0
FFFFF0
FFFFF0
ENDCHAR
STARTCHAR 1EB1
ENCODING 7857
SWIDTH 565 0
DWIDTH 22 0
BBX 20 40 2 0
BITMAP
1E0000
0F0000
070000
038000
038000
1C1C00
1C1C00
1E3800
0FF800
07F000
000000
000000
03E000
0FF800
1FFC00
3FFE00
7FFF00
7C1F00
F81F80
F80F80
F80F80
F80F80
F80F80
F80F80
F80F80
F80F80
F80F80
F80F80
F80F80
F80F80
F80F80
F80F80
F80F80
F80F80
F80F80
F80F80
FFFFF0
FFFFF0
FFFFF0
FFFFF0
ENDCHAR
STARTCHAR 1EB2
ENCODING 7858
SWIDTH 565 0
DWIDTH 22 0
BBX 20 41 2 0
BITMAP
00E000
00E000
01C000
01C000
01C000
01C000
1DDC00
1C1C00
1E3800
0FF800
07F000
000000
000000
03E000
0FF800
1FFC00
3FFE00
7FFF00
7C1F00
F81F80
F80F80
F80F80
F80F80
F80F80
F80F80
F80F80
F80F80
F80F80
F80F80
F80F80
F80F80
F80F80
F80F80
F80F80
F80F80
F80F80
F80F80
FFFFF0
FFFFF0
FFFFF0
FFFFF0
ENDCHAR
STARTCHAR 1EB3
ENCODING 7859
SWIDTH 565 0
DWIDTH 22 0
BBX 20 41 2 0
BITMAP
00E000
00E000
01C000
01C000
01C000
01C000
1DDC00
1C1C00
1E3800
0FF800
07F000
000000
000000
03E000
0FF800
1FFC00
3FFE00
7FFF00
7C1F00
F81F80
F80F80
F80F80
F80F80
F80F80
F80F80
F80F80
F80F80
F80F80
F80F80
F80F80
F80F80
F80F80
F80F80
F80F80
F80F80
F80F80
F80F80
FFFFF0
FFFFF0
FFFFF0
FFFFF0
ENDCHAR
STARTCHAR 1EB4
ENCODING 7860
SWIDTH 565 0
DWIDTH 22 0
BBX 20 40 2 0
BITMAP
060000
0FF800
0FF800
09F800
000000
1C1C00
1C1C00
1E3800
0FF800
07F000
000000
000000
03E000
0FF800
1FFC00
3FFE00
7FFF00
7C1F00
F81F80
F80F80
F80F80
F80F80
F80F80
F80F80
F80F80
F80F80
F80F80
F80F80
F80F80
F80F80
F80F80
F80F80
F80F80
F80F80
F80F80
F80F80
FFFFF0
FFFFF0
FFFFF0
FFFFF0
ENDCHAR
STARTCHAR 1EB5
ENCODING 7861
SWIDTH 565 0
DWIDTH 22 0
BBX 20 40 2 0
BITMAP
060000
0FF800
0FF800
09F800
000000
1C1C00
1C1C00
1E3800
0FF800
07F000
000000
000000
03E000
0FF800
1FFC00
3FFE00
7FFF00
7C1F00
F81F80
F80F80
F80F80
F80F80
F80F80
F80F80
F80F80
F80F80
F80F80
F80F80
F80F80
F80F80
F80F80
F80F80
F80F80
F80F80
F80F80
F80F80
FFFFF0
FFFFF0
FFFFF0
FFFFF0
ENDCHAR
STARTCHAR 1EB6
ENCODING 7862
SWIDTH 565 0
DWIDTH 22 0
BBX 20 46 2 -11
BITMAP
1C1C00
1C1C00
1E3800
0FF800
07F000
000000
000000
03E000
0FF800
1FFC00
3FFE00
7FFF00
7C1F00
F81F80
F80F80
F80F80
F80F80
F80F80
F80F80
F80F80
F80F80
F80F80
F80F80
F80F80
F80F80
F80F80
F80F80
F80F80
F80F80
F80F80
F80F80
FFFFF0
FFFFF0
FFFFF0
FFFFF0
000000
000000
000000
000000
008000
03E000
03F000
07F000
03F000
03E000
008000
ENDCHAR
STARTCHAR 1EB7
ENCODING 7863
SWIDTH 565 0
DWIDTH 22 0
BBX 20 46 2 -11
BITMAP
1C1C00
1C1C00
1E3800
0FF800
07F000
000000
000000
03E000
0FF800
1FFC00
3FFE00
7FFF00
7C1F00
F81F80
F80F80
F80F80
F80F80
F80F80
F80F80
F80F80
F80F80
F80F80
F80F80
F80F80
F80F80
F80F80
F80F80
F80F80
F80F80
F80F80
F80F80
FFFFF0
FFFFF0
FFFFF0
FFFFF0
000000
000000
000000
000000
008000
03E000
03F000
07F000
03F000
03E000
008000
ENDCHAR
STARTCHAR 1EB8
ENCODING 7864
SWIDTH 488 0
DWIDTH 19 0
BBX 19 38 1 -11
BITMAP
3FFC00
3FFC00
3FFC00
3FFC00
3E0000
3E0000
3E0000
3E0000
3E0000
3E0000
3E0000
FFFF00
FFFF00
FFFF00
FFFF00
3E0000
3E0000
3E0000
3E0000
3E0000
3E0000
3E0000
3FFFE0
3FFFE0
3FFFE0
3FFFE0
3FFFE0
000000
000000
000000
000000
002000
00F800
00FC00
00FC00
00FC00
00F800
002000
ENDCHAR
STARTCHAR 1EB9
ENCODING 7865
SWIDTH 488 0
DWIDTH 19 0
BBX 19 38 1 -11
BITMAP
3FFC00
3FFC00
3FFC00
3FFC00
3E0000
3E0000
3E0000
3E0000
3E0000
3E0000
3E0000
FFFF00
FFFF00
FFFF00
FFFF00
3E0000
3E0000
3E0000
3E0000
3E0000
3E0000
3E0000
3FFFE0
3FFFE0
3FFFE0
3FFFE0
3FFFE0
000000
000000
000000
000000
002000
00F800
00FC00
00FC00
00FC00
00F800
002000
ENDCHAR
STARTCHAR 1EBA
ENCODING 7866
SWIDTH 488 0
DWIDTH 19 0
BBX 19 37 1 0
BITMAP
01C000
01C000
01C000
01C000
038000
038000
038000
000000
000000
000000
3FFC00
3FFC00
3FFC00
3FFC00
3E0000
3E0000
3E0000
3E0000
3E0000
3E0000
3E0000
FFFF00
FFFF00
FFFF00
FFFF00
3E0000
3E0000
3E0000
3E0000
3E0000
3E0000
3E0000
3FFFE0
3FFFE0
3FFFE0
3FFFE0
3FFFE0
ENDCHAR
STARTCHAR 1EBB
ENCODING 7867
SWIDTH 488 0
DWIDTH 19 0
BBX 19 37 1 0
BITMAP
01C000
01C000
01C000
01C000
038000
038000
038000
000000
000000
000000
3FFC00
3FFC00
3FFC00
3FFC00
3E0000
3E0000
3E0000
3E0000
3E0000
3E0000
3E0000
FFFF00
FFFF00
FFFF00
FFFF00
3E0000
3E0000
3E0000
3E0000
3E0000
3E0000
3E0000
3FFFE0
3FFFE0
3FFFE0
3FFFE0
3FFFE0
ENDCHAR
STARTCHAR 1EBC
ENCODING 7868
SWIDTH 488 0
DWIDTH 19 0
BBX 19 35 1 0
BITMAP
0C0000
1FF000
1FF000
13F000
000000
000000
000000
000000
3FFC00
3FFC00
3FFC00
3FFC00
3E0000
3E0000
3E0000
3E0000
3E0000
3E0000
3E0000
FFFF00
FFFF00
FFFF00
FFFF00
3E0000
3E0000
3E0000
3E0000
3E0000
3E0000
3E0000
3FFFE0
3FFFE0
3FFFE0
3FFFE0
3FFFE0
ENDCHAR
STARTCHAR 1EBD
ENCODING 7869
SWIDTH 488 0
DWIDTH 19 0
BBX 19 35 1 0
BITMAP
0C0000
1FF000
1FF000
13F000
000000
000000
000000
000000
3FFC00
3FFC00
3FFC00
3FFC00
3E0000
3E0000
3E0000
3E0000
3E0000
3E0000
3E0000
FFFF00
FFFF00
FFFF00
FFFF00
3E0000
3E0000
3E0000
3E0000
3E0000
3E0000
3E0000
3FFFE0
3FFFE0
3FFFE0
3FFFE0
3FFFE0
ENDCHAR
STARTCHAR 1EBE
ENCODING 7870
SWIDTH 488 0
DWIDTH 19 0
BBX 19 38 1 0
BITMAP
0001E0
0001C0
0003C0
03E380
07F700
0FF000
1E7800
1E3C00
200000
000000
000000
3FFC00
3FFC00
3FFC00
3FFC00
3E0000
3E0000
3E0000
3E0000
3E0000
3E0000
3E0000
FFFF00
FFFF00
FFFF00
FFFF00
3E0000
3E0000
3E0000
3E0000
3E0000
3E0000
3E0000
3FFFE0
3FFFE0
3FFFE0
3FFFE0
3FFFE0
ENDCHAR
STARTCHAR 1EBF
ENCODING 7871
SWIDTH 488 0
DWIDTH 19 0
BBX 19 38 1 0
BITMAP
0001E0
0001C0
0003C0
03E380
07F700
0FF000
1E7800
1E3C00
200000
000000
000000
3FFC00
3FFC00
3FFC00
3FFC00
3E0000
3E0000
3E0000
3E0000
3E0000
3E0000
3E0000
FFFF00
FFFF00
FFFF00
FFFF00
3E0000
3E0000
3E0000
3E0000
3E0000
3E0000
3E0000
3FFFE0
3FFFE0
3FFFE0
3FFFE0
3FFFE0
ENDCHAR
STARTCHAR 1EC0
ENCODING 7872
SWIDTH 488 0
DWIDTH 19 0
BBX 23 38 -3 0
BITMAP
F00000
780000
380000
1C3E00
1C7F00
00FF00
01E780
01E3C0
020000
000000
000000
03FFC0
03FFC0
03FFC0
03FFC0
03E000
03E000
03E000
03E000
03E000
03E000
03E000
0FFFF0
0FFFF0
0FFFF0
0FFFF0
03E000
03E000
03E000
03E000
03E000
03E000
03E000
03FFFE
03FFFE
03FFFE
03FFFE
03FFFE
ENDCHAR
STARTCHAR 1EC1
ENCODING 7873
SWIDTH 488 0
DWIDTH 19 0
BBX 23 38 -3 0
BITMAP
F00000
780000
380000
1C3E00
1C7F00
00FF00
01E780
01E3C0
020000
000000
000000
03FFC0
03FFC0
03FFC0
03FFC0
03E000
03E000
03E000
03E000
03E000
03E000
03E000
0FFFF0
0FFFF0
0FFFF0
0FFFF0
03E000
03E000
03E000
03E000
03E000
03E000
03E000
03FFFE
03FFFE
03FFFE
03FFFE
03FFFE
ENDCHAR
STARTCHAR 1EC2
ENCODING 7874
SWIDTH 488 0
DWIDTH 19 0
BBX 19 40 1 0
BITMAP
000380
000380
000380
000700
000700
03E700
07F700
0FF000
1E7800
1E3C00
200000
000000
000000
3FFC00
3FFC00
3FFC00
3FFC00
3E0000
3E0000
3E0000
3E0000
3E0000
3E0000
3E0000
FFFF00
FFFF00
FFFF00
FFFF00
3E0000
3E0000
3E0000
3E0000
3E0000
3E0000
3E0000
3FFFE0
3FFFE0
3FFFE0
3FFFE0
3FFFE0
ENDCHAR
STARTCHAR 1EC3
ENCODING 7875
SWIDTH 488 0
DWIDTH 19 0
BBX 19 40 1 0
BITMAP
000380
000380
000380
000700
000700
03E700
07F700
0FF000
1E7800
1E3C00
200000
000000
000000
3FFC00
3FFC00
3FFC00
3FFC00
3E0000
3E0000
3E0000
3E0000
3E0000
3E0000
3E0000
FFFF00
FFFF00
FFFF00
FFFF00
3E0000
3E0000
3E0000
3E0000
3E0000
3E0000
3E0000
3FFFE0
3FFFE0
3FFFE0
3FFFE0
3FFFE0
ENDCHAR
STARTCHAR 1EC4
ENCODING 7876
SWIDTH 488 0
DWIDTH 19 0
BBX 19 39 1 0
BITMAP
00FF80
00FF80
00FF80
000200
03E000
07F000
0FF000
1E7800
1E3C00
200000
000000
000000
3FFC00
3FFC00
3FFC00
3FFC00
3E0000
3E0000
3E0000
3E0000
3E0000
3E0000
3E0000
FFFF00
FFFF00
FFFF00
FFFF00
3E0000
3E0000
3E0000
3E0000
3E0000
3E0000
3E0000
3FFFE0
3FFFE0
3FFFE0
3FFFE0
3FFFE0
ENDCHAR
STARTCHAR 1EC5
ENCODING 7877
SWIDTH 488 0
DWIDTH 19 0
BBX 19 39 1 0
BITMAP
00FF80
00FF80
00FF80
000200
03E000
07F000
0FF000
1E7800
1E3C00
200000
000000
000000
3FFC00
3FFC00
3FFC00
3FFC00
3E0000
3E0000
3E0000
3E0000
3E0000
3E0000
3E0000
FFFF00
FFFF00
FFFF00
FFFF00
3E0000
3E0000
3E0000
3E0000
3E0000
3E0000
3E0000
3FFFE0
3FFFE0
3FFFE0
3FFFE0
3FFFE0
ENDCHAR
STARTCHAR 1EC6
ENCODING 7878
SWIDTH 488 0
DWIDTH 19 0
BBX 19 46 1 -11
BITMAP
03E000
07F000
0FF000
1E7800
1E3C00
200000
000000
000000
3FFC00
3FFC00
3FFC00
3FFC00
3E0000
3E0000
3E0000
3E0000
3E0000
3E0000
3E0000
FFFF00
FFFF00
FFFF00
FFFF00
3E0000
3E0000
3E0000
3E0000
3E0000
3E0000
3E0000
3FFFE0
3FFFE0
3FFFE0
3FFFE0
3FFFE0
000000
000000
000000
000000
002000
00F800
00FC00
00FC00
00FC00
00F800
002000
ENDCHAR
STARTCHAR 1EC7
ENCODING 7879
SWIDTH 488 0
DWIDTH 19 0
BBX 19 46 1 -11
BITMAP
03E000
07F000
0FF000
1E7800
1E3C00
200000
000000
000000
3FFC00
3FFC00
3FFC00
3FFC00
3E0000
3E0000
3E0000
3E0000
3E0000
3E0000
3E0000
FFFF00
FFFF00
FFFF00
FFFF00
3E0000
3E0000
3E0000
3E0000
3E0000
3E0000
3E0000
3FFFE0
3FFFE0
3FFFE0
3FFFE0
3FFFE0
000000
000000
000000
000000
002000
00F800
00FC00
00FC00
00FC00
00F800
002000
ENDCHAR
STARTCHAR 1EC8
ENCODING 7880
SWIDTH 231 0
DWIDTH 9 0
BBX 5 26 2 0
BITMAP
70
70
70
70
E0
60
70
00
00
F8
F8
F8
F8
F8
F8
F8
F8
F8
F8
F8
F8
F8
F8
F8
F8
F8
ENDCHAR
STARTCHAR 1EC9
ENCODING 7881
SWIDTH 231 0
DWIDTH 9 0
BBX 5 26 2 0
BITMAP
70
70
70
70
E0
60
70
00
00
F8
F8
F8
F8
F8
F8
F8
F8
F8
F8
F8
F8
F8
F8
F8
F8
F8
ENDCHAR
STARTCHAR 1ECA
ENCODING 7882
SWIDTH 205 0
DWIDTH 8 0
BBX 10 42 -1 -11
BITMAP
0400
0400
0C00
0E00
FFC0
3F80
1F00
1F00
3B00
2180
0000
0000
0000
0000
1F00
1F00
1F00
1F00
1F00
1F00
1F00
1F00
1F00
1F00
1F00
1F00
1F00
1F00
1F00
1F00
1F00
0000
0000
0000
0000
0400
1F00
3F00
3F80
3F00
1F00
0C00
ENDCHAR
STARTCHAR 1ECB
ENCODING 7883
SWIDTH 205 0
DWIDTH 8 0
BBX 10 42 -1 -11
BITMAP
0400
0400
0C00
0E00
FFC0
3F80
1F00
1F00
3B00
2180
0000
0000
0000
0000
1F00
1F00
1F00
1F00
1F00
1F00
1F00
1F00
1F00
1F00
1F00
1F00
1F00
1F00
1F00
1F00
1F00
0000
0000
0000
0000
0400
1F00
3F00
3F80
3F00
1F00
0C00
ENDCHAR
STARTCHAR 1ECC
ENCODING 7884
SWIDTH 797 0
DWIDTH 31 0
BBX 30 39 1 -11
BITMAP
000FC000
007FF800
01FFFE00
07FFFF80
0FFFFFC0
1FE01FC0
1F8007E0
3F0003F0
3E0001F0
7C0001F8
7C0000F8
7C0000F8
F8000078
F800007C
F800007C
F800007C
F8000078
7C0000F8
7C0000F8
7E0001F8
3E0001F0
3F0003F0
1FC00FE0
0FF03FC0
07FFFF80
03FFFF00
01FFFE00
007FF800
00030000
00000000
00000000
00000000
00030000
00078000
000FC000
000FC000
000FC000
00078000
00030000
ENDCHAR
STARTCHAR 1ECD
ENCODING 7885
SWIDTH 797 0
DWIDTH 31 0
BBX 30 39 1 -11
BITMAP
000FC000
007FF800
01FFFE00
07FFFF80
0FFFFFC0
1FE01FC0
1F8007E0
3F0003F0
3E0001F0
7C0001F8
7C0000F8
7C0000F8
F8000078
F800007C
F800007C
F800007C
F8000078
7C0000F8
7C0000F8
7E0001F8
3E0001F0
3F0003F0
1FC00FE0
0FF03FC0
07FFFF80
03FFFF00
01FFFE00
007FF800
00030000
00000000
00000000
00000000
00030000
00078000
000FC000
000FC000
000FC000
00078000
00030000
ENDCHAR
STARTCHAR 1ECE
ENCODING 7886
SWIDTH 797 0
DWIDTH 31 0
BBX 30 38 1 -1
BITMAP
00038000
00038000
00038000
00070000
00070000
00070000
00070000
00000000
00000000
000FC000
007FF800
01FFFE00
07FFFF80
0FFFFFC0
1FE01FC0
1F8007E0
3F0003F0
3E0001F0
7C0001F8
7C0000F8
7C0000F8
F8000078
F800007C
F800007C
F800007C
F8000078
7C0000F8
7C0000F8
7E0001F8
3E0001F0
3F0003F0
1FC00FE0
0FF03FC0
07FFFF80
03FFFF00
01FFFE00
007FF800
00030000
ENDCHAR
STARTCHAR 1ECF
ENCODING 7887
SWIDTH 797 0
DWIDTH 31 0
BBX 30 38 1 -1
BITMAP
00038000
00038000
00038000
00070000
00070000
00070000
00070000
00000000
00000000
000FC000
007FF800
01FFFE00
07FFFF80
0FFFFFC0
1FE01FC0
1F8007E0
3F0003F0
3E0001F0
7C0001F8
7C0000F8
7C0000F8
F8000078
F800007C
F800007C
F800007C
F8000078
7C0000F8
7C0000F8
7E0001F8
3E0001F0
3F0003F0
1FC00FE0
0FF03FC0
07FFFF80
03FFFF00
01FFFE00
007FF800
00030000
ENDCHAR
STARTCHAR 1ED0
ENCODING 7888
SWIDTH 797 0
DWIDTH 31 0
BBX 30 39 1 -1
BITMAP
000003C0
00000380
00000700
000FC700
000FCE00
001FE000
003CF000
00787800
00000000
00000000
000FC000
007FF800
01FFFE00
07FFFF80
0FFFFFC0
1FE01FC0
1F8007E0
3F0003F0
3E0001F0
7C0001F8
7C0000F8
7C0000F8
F8000078
F800007C
F800007C
F800007C
F8000078
7C0000F8
7C0000F8
7E0001F8
3E0001F0
3F0003F0
1FC00FE0
0FF03FC0
07FFFF80
03FFFF00
01FFFE00
007FF800
00030000
ENDCHAR
STARTCHAR 1ED1
ENCODING 7889
SWIDTH 797 0
DWIDTH 31 0
BBX 30 39 1 -1
BITMAP
000003C0
00000380
00000700
000FC700
000FCE00
001FE000
003CF000
00787800
00000000
00000000
000FC000
007FF800
01FFFE00
07FFFF80
0FFFFFC0
1FE01FC0
1F8007E0
3F0003F0
3E0001F0
7C0001F8
7C0000F8
7C0000F8
F8000078
F800007C
F800007C
F800007C
F8000078
7C0000F8
7C0000F8
7E0001F8
3E0001F0
3F0003F0
1FC00FE0
0FF03FC0
07FFFF80
03FFFF00
01FFFE00
007FF800
00030000
ENDCHAR
STARTCHAR 1ED2
ENCODING 7890
SWIDTH 797 0
DWIDTH 31 0
BBX 30 39 1 -1
BITMAP
1E000000
0E000000
07000000
070FC000
038FC000
001FE000
003CF000
00787800
00000000
00000000
000FC000
007FF800
01FFFE00
07FFFF80
0FFFFFC0
1FE01FC0
1F8007E0
3F0003F0
3E0001F0
7C0001F8
7C0000F8
7C0000F8
F8000078
F800007C
F800007C
F800007C
F8000078
7C0000F8
7C0000F8
7E0001F8
3E0001F0
3F0003F0
1FC00FE0
0FF03FC0
07FFFF80
03FFFF00
01FFFE00
007FF800
00030000
ENDCHAR
STARTCHAR 1ED3
ENCODING 7891
SWIDTH 797 0
DWIDTH 31 0
BBX 30 39 1 -1
BITMAP
1E000000
0E000000
07000000
070FC000
038FC000
001FE000
003CF000
00787800
00000000
00000000
000FC000
007FF800
01FFFE00
07FFFF80
0FFFFFC0
1FE01FC0
1F8007E0
3F0003F0
3E0001F0
7C0001F8
7C0000F8
7C0000F8
F8000078
F800007C
F800007C
F800007C
F8000078
7C0000F8
7C0000F8
7E0001F8
3E0001F0
3F0003F0
1FC00FE0
0FF03FC0
07FFFF80
03FFFF00
01FFFE00
007FF800
00030000
ENDCHAR
STARTCHAR 1ED4
ENCODING 7892
SWIDTH 797 0
DWIDTH 31 0
BBX 30 41 1 -1
BITMAP
00000700
00000700
00000700
00000E00
00000E00
000FCE00
000FCE00
001FE000
003CF000
00787800
00000000
00000000
000FC000
007FF800
01FFFE00
07FFFF80
0FFFFFC0
1FE01FC0
1F8007E0
3F0003F0
3E0001F0
7C0001F8
7C0000F8
7C0000F8
F8000078
F800007C
F800007C
F800007C
F8000078
7C0000F8
7C0000F8
7E0001F8
3E0001F0
3F0003F0
1FC00FE0
0FF03FC0
07FFFF80
03FFFF00
01FFFE00
007FF800
00030000
ENDCHAR
STARTCHAR 1ED5
ENCODING 7893
SWIDTH 797 0
DWIDTH 31 0
BBX 30 41 1 -1
BITMAP
00000700
00000700
00000700
00000E00
00000E00
000FCE00
000FCE00
001FE000
003CF000
00787800
00000000
00000000
000FC000
007FF800
01FFFE00
07FFFF80
0FFFFFC0
1FE01FC0
1F8007E0
3F0003F0
3E0001F0
7C0001F8
7C0000F8
7C0000F8
F8000078
F800007C
F800007C
F800007C
F8000078
7C0000F8
7C0000F8
7E0001F8
3E0001F0
3F0003F0
1FC00FE0
0FF03FC0
07FFFF80
03FFFF00
01FFFE00
007FF800
00030000
ENDCHAR
STARTCHAR 1ED6
ENCODING 7894
SWIDTH 797 0
DWIDTH 31 0
BBX 30 40 1 -1
BITMAP
0001FB00
0001FF00
0001FF00
00000400
000FC000
000FC000
001FE000
003CF000
00787800
00000000
00000000
000FC000
007FF800
01FFFE00
07FFFF80
0FFFFFC0
1FE01FC0
1F8007E0
3F0003F0
3E0001F0
7C0001F8
7C0000F8
7C0000F8
F8000078
F800007C
F800007C
F800007C
F8000078
7C0000F8
7C0000F8
7E0001F8
3E0001F0
3F0003F0
1FC00FE0
0FF03FC0
07FFFF80
03FFFF00
01FFFE00
007FF800
00030000
ENDCHAR
STARTCHAR 1ED7
ENCODING 7895
SWIDTH 797 0
DWIDTH 31 0
BBX 30 40 1 -1
BITMAP
0001FB00
0001FF00
0001FF00
00000400
000FC000
000FC000
001FE000
003CF000
00787800
00000000
00000000
000FC000
007FF800
01FFFE00
07FFFF80
0FFFFFC0
1FE01FC0
1F8007E0
3F0003F0
3E0001F0
7C0001F8
7C0000F8
7C0000F8
F8000078
F800007C
F800007C
F800007C
F8000078
7C0000F8
7C0000F8
7E0001F8
3E0001F0
3F0003F0
1FC00FE0
0FF03FC0
07FFFF80
03FFFF00
01FFFE00
007FF800
00030000
ENDCHAR
STARTCHAR 1ED8
ENCODING 7896
SWIDTH 797 0
DWIDTH 31 0
BBX 30 46 1 -11
BITMAP
000FC000
000FC000
001FE000
003CF000
00787800
00000000
00000000
000FC000
007FF800
01FFFE00
07FFFF80
0FFFFFC0
1FE01FC0
1F8007E0
3F0003F0
3E0001F0
7C0001F8
7C0000F8
7C0000F8
F8000078
F800007C
F800007C
F800007C
F8000078
7C0000F8
7C0000F8
7E0001F8
3E0001F0
3F0003F0
1FC00FE0
0FF03FC0
07FFFF80
03FFFF00
01FFFE00
007FF800
00030000
00000000
00000000
00000000
00030000
00078000
000FC000
000FC000
000FC000
00078000
00030000
ENDCHAR
STARTCHAR 1ED9
ENCODING 7897
SWIDTH 797 0
DWIDTH 31 0
BBX 30 46 1 -11
BITMAP
000FC000
000FC000
001FE000
003CF000
00787800
00000000
00000000
000FC000
007FF800
01FFFE00
07FFFF80
0FFFFFC0
1FE01FC0
1F8007E0
3F0003F0
3E0001F0
7C0001F8
7C0000F8
7C0000F8
F8000078
F800007C
F800007C
F800007C
F8000078
7C0000F8
7C0000F8
7E0001F8
3E0001F0
3F0003F0
1FC00FE0
0FF03FC0
07FFFF80
03FFFF00
01FFFE00
007FF800
00030000
00000000
00000000
00000000
00030000
00078000
000FC000
000FC000
000FC000
00078000
00030000
ENDCHAR
STARTCHAR 1EDA
ENCODING 7898
SWIDTH 797 0
DWIDTH 31 0
BBX 30 36 1 -1
BITMAP
0000E000
0001E000
0001C000
00038000
000380F0
000700F0
000000E0
000FC1E0
007FFFC0
01FFFF80
07FFFF80
0FFFFFC0
1FE01FE0
1F8007E0
3F0003F0
3E0001F0
7C0001F8
7C0000F8
7C0000F8
F8000078
F800007C
F800007C
F800007C
F8000078
7C0000F8
7C0000F8
7E0001F8
3E0001F0
3F0003F0
1FC00FE0
0FF03FC0
07FFFF80
03FFFF00
01FFFE00
007FF800
00030000
ENDCHAR
STARTCHAR 1EDB
ENCODING 7899
SWIDTH 797 0
DWIDTH 31 0
BBX 30 36 1 -1
BITMAP
0000E000
0001E000
0001C000
00038000
000380F0
000700F0
000000E0
000FC1E0
007FFFC0
01FFFF80
07FFFF80
0FFFFFC0
1FE01FE0
1F8007E0
3F0003F0
3E0001F0
7C0001F8
7C0000F8
7C0000F8
F8000078
F800007C
F800007C
F800007C
F8000078
7C0000F8
7C0000F8
7E0001F8
3E0001F0
3F0003F0
1FC00FE0
0FF03FC0
07FFFF80
03FFFF00
01FFFE00
007FF800
00030000
ENDCHAR
STARTCHAR 1EDC
ENCODING 7900
SWIDTH 797 0
DWIDTH 31 0
BBX 30 36 1 -1
BITMAP
001C0000
001E0000
000E0000
00070000
000300F0
000380F0
000000E0
000FC1E0
007FFFC0
01FFFF80
07FFFF80
0FFFFFC0
1FE01FE0
1F8007E0
3F0003F0
3E0001F0
7C0001F8
7C0000F8
7C0000F8
F8000078
F800007C
F800007C
F800007C
F8000078
7C0000F8
7C0000F8
7E0001F8
3E0001F0
3F0003F0
1FC00FE0
0FF03FC0
07FFFF80
03FFFF00
01FFFE00
007FF800
00030000
ENDCHAR
STARTCHAR 1EDD
ENCODING 7901
SWIDTH 797 0
DWIDTH 31 0
BBX 30 36 1 -1
BITMAP
001C0000
001E0000
000E0000
00070000
000300F0
000380F0
000000E0
000FC1E0
007FFFC0
01FFFF80
07FFFF80
0FFFFFC0
1FE01FE0
1F8007E0
3F0003F0
3E0001F0
7C0001F8
7C0000F8
7C0000F8
F8000078
F800007C
F800007C
F800007C
F8000078
7C0000F8
7C0000F8
7E0001F8
3E0001F0
3F0003F0
1FC00FE0
0FF03FC0
07FFFF80
03FFFF00
01FFFE00
007FF800
00030000
ENDCHAR
STARTCHAR 1EDE
ENCODING 7902
SWIDTH 797 0
DWIDTH 31 0
BBX 30 38 1 -1
BITMAP
00038000
00038000
00038000
00070000
00070000
00070000
000700F0
000000F0
000000E0
000FC1E0
007FFFC0
01FFFF80
07FFFF80
0FFFFFC0
1FE01FE0
1F8007E0
3F0003F0
3E0001F0
7C0001F8
7C0000F8
7C0000F8
F8000078
F800007C
F800007C
F800007C
F8000078
7C0000F8
7C0000F8
7E0001F8
3E0001F0
3F0003F0
1FC00FE0
0FF03FC0
07FFFF80
03FFFF00
01FFFE00
007FF800
00030000
ENDCHAR
STARTCHAR 1EDF
ENCODING 7903
SWIDTH 797 0
DWIDTH 31 0
BBX 30 38 1 -1
BITMAP
00038000
00038000
00038000
00070000
00070000
00070000
000700F0
000000F0
000000E0
000FC1E0
007FFFC0
01FFFF80
07FFFF80
0FFFFFC0
1FE01FE0
1F8007E0
3F0003F0
3E0001F0
7C0001F8
7C0000F8
7C0000F8
F8000078
F800007C
F800007C
F800007C
F8000078
7C0000F8
7C0000F8
7E0001F8
3E0001F0
3F0003F0
1FC00FE0
0FF03FC0
07FFFF80
03FFFF00
01FFFE00
007FF800
00030000
ENDCHAR
STARTCHAR 1EE0
ENCODING 7904
SWIDTH 797 0
DWIDTH 31 0
BBX 30 36 1 -1
BITMAP
00180000
003FE000
003FE000
0027E000
000000F0
000000F0
000000E0
000FC1E0
007FFFC0
01FFFF80
07FFFF80
0FFFFFC0
1FE01FE0
1F8007E0
3F0003F0
3E0001F0
7C0001F8
7C0000F8
7C0000F8
F8000078
F800007C
F800007C
F800007C
F8000078
7C0000F8
7C0000F8
7E0001F8
3E0001F0
3F0003F0
1FC00FE0
0FF03FC0
07FFFF80
03FFFF00
01FFFE00
007FF800
00030000
ENDCHAR
STARTCHAR 1EE1
ENCODING 7905
SWIDTH 797 0
DWIDTH 31 0
BBX 30 36 1 -1
BITMAP
00180000
003FE000
003FE000
0027E000
000000F0
000000F0
000000E0
000FC1E0
007FFFC0
01FFFF80
07FFFF80
0FFFFFC0
1FE01FE0
1F8007E0
3F0003F0
3E0001F0
7C0001F8
7C0000F8
7C0000F8
F8000078
F800007C
F800007C
F800007C
F8000078
7C0000F8
7C0000F8
7E0001F8
3E0001F0
3F0003F0
1FC00FE0
0FF03FC0
07FFFF80
03FFFF00
01FFFE00
007FF800
00030000
ENDCHAR
STARTCHAR 1EE2
ENCODING 7906
SWIDTH 797 0
DWIDTH 31 0
BBX 30 42 1 -11
BITMAP
000000F0
000000F0
000000E0
000FC1E0
007FFFC0
01FFFF80
07FFFF80
0FFFFFC0
1FE01FE0
1F8007E0
3F0003F0
3E0001F0
7C0001F8
7C0000F8
7C0000F8
F8000078
F800007C
F800007C
F800007C
F8000078
7C0000F8
7C0000F8
7E0001F8
3E0001F0
3F0003F0
1FC00FE0
0FF03FC0
07FFFF80
03FFFF00
01FFFE00
007FF800
00030000
00000000
00000000
00000000
00030000
00078000
000FC000
000FC000
000FC000
00078000
00030000
ENDCHAR
STARTCHAR 1EE3
ENCODING 7907
SWIDTH 797 0
DWIDTH 31 0
BBX 30 42 1 -11
BITMAP
000000F0
000000F0
000000E0
000FC1E0
007FFFC0
01FFFF80
07FFFF80
0FFFFFC0
1FE01FE0
1F8007E0
3F0003F0
3E0001F0
7C0001F8
7C0000F8
7C0000F8
F8000078
F800007C
F800007C
F800007C
F8000078
7C0000F8
7C0000F8
7E0001F8
3E0001F0
3F0003F0
1FC00FE0
0FF03FC0
07FFFF80
03FFFF00
01FFFE00
007FF800
00030000
00000000
00000000
00000000
00030000
00078000
000FC000
000FC000
000FC000
00078000
00030000
ENDCHAR
STARTCHAR 1EE4
ENCODING 7908
SWIDTH 514 0
DWIDTH 20 0
BBX 17 38 2 -11
BITMAP
F80F80
F80F80
F80F80
F80F80
F80F80
F80F80
F80F80
F80F80
F80F80
F80F80
F80F80
F80F80
F80F80
F80F80
F80F80
F80F80
F80F80
F80F80
F80F80
F80F80
F80F80
F81F00
7C3F00
7FFF00
3FFE00
1FFC00
0FF800
018000
000000
000000
000000
008000
03E000
07E000
07E000
07E000
03E000
008000
ENDCHAR
STARTCHAR 1EE5
ENCODING 7909
SWIDTH 514 0
DWIDTH 20 0
BBX 17 38 2 -11
BITMAP
F80F80
F80F80
F80F80
F80F80
F80F80
F80F80
F80F80
F80F80
F80F80
F80F80
F80F80
F80F80
F80F80
F80F80
F80F80
F80F80
F80F80
F80F80
F80F80
F80F80
F80F80
F81F00
7C3F00
7FFF00
3FFE00
1FFC00
0FF800
018000
000000
000000
000000
008000
03E000
07E000
07E000
07E000
03E000
008000
ENDCHAR
STARTCHAR 1EE6
ENCODING 7910
SWIDTH 514 0
DWIDTH 20 0
BBX 17 38 2 -1
BITMAP
01C000
01C000
01C000
01C000
038000
038000
038000
000000
000000
000000
F80F80
F80F80
F80F80
F80F80
F80F80
F80F80
F80F80
F80F80
F80F80
F80F80
F80F80
F80F80
F80F80
F80F80
F80F80
F80F80
F80F80
F80F80
F80F80
F80F80
F80F80
F81F00
7C3F00
7FFF00
3FFE00
1FFC00
0FF800
018000
ENDCHAR
STARTCHAR 1EE7
ENCODING 7911
SWIDTH 514 0
DWIDTH 20 0
BBX 17 38 2 -1
BITMAP
01C000
01C000
01C000
01C000
038000
038000
038000
000000
000000
000000
F80F80
F80F80
F80F80
F80F80
F80F80
F80F80
F80F80
F80F80
F80F80
F80F80
F80F80
F80F80
F80F80
F80F80
F80F80
F80F80
F80F80
F80F80
F80F80
F80F80
F80F80
F81F00
7C3F00
7FFF00
3FFE00
1FFC00
0FF800
018000
ENDCHAR
STARTCHAR 1EE8
ENCODING 7912
SWIDTH 514 0
DWIDTH 20 0
BBX 20 36 2 -1
BITMAP
007800
00F000
00E000
01E000
01C070
038070
000070
0000E0
F80FE0
F80F80
F80F80
F80F80
F80F80
F80F80
F80F80
F80F80
F80F80
F80F80
F80F80
F80F80
F80F80
F80F80
F80F80
F80F80
F80F80
F80F80
F80F80
F80F80
F80F80
F81F00
7C3F00
7FFF00
3FFE00
1FFC00
0FF800
018000
ENDCHAR
STARTCHAR 1EE9
ENCODING 7913
SWIDTH 514 0
DWIDTH 20 0
BBX 20 36 2 -1
BITMAP
007800
00F000
00E000
01E000
01C070
038070
000070
0000E0
F80FE0
F80F80
F80F80
F80F80
F80F80
F80F80
F80F80
F80F80
F80F80
F80F80
F80F80
F80F80
F80F80
F80F80
F80F80
F80F80
F80F80
F80F80
F80F80
F80F80
F80F80
F81F00
7C3F00
7FFF00
3FFE00
1FFC00
0FF800
018000
ENDCHAR
STARTCHAR 1EEA
ENCODING 7914
SWIDTH 514 0
DWIDTH 20 0
BBX 20 36 2 -1
BITMAP
0F0000
070000
078000
038000
01C070
00C070
000070
0000E0
F80FE0
F80F80
F80F80
F80F80
F80F80
F80F80
F80F80
F80F80
F80F80
F80F80
F80F80
F80F80
F80F80
F80F80
F80F80
F80F80
F80F80
F80F80
F80F80
F80F80
F80F80
F81F00
7C3F00
7FFF00
3FFE00
1FFC00
0FF800
018000
ENDCHAR
STARTCHAR 1EEB
ENCODING 7915
SWIDTH 514 0
DWIDTH 20 0
BBX 20 36 2 -1
BITMAP
0F0000
070000
078000
038000
01C070
00C070
000070
0000E0
F80FE0
F80F80
F80F80
F80F80
F80F80
F80F80
F80F80
F80F80
F80F80
F80F80
F80F80
F80F80
F80F80
F80F80
F80F80
F80F80
F80F80
F80F80
F80F80
F80F80
F80F80
F81F00
7C3F00
7FFF00
3FFE00
1FFC00
0FF800
018000
ENDCHAR
STARTCHAR 1EEC
ENCODING 7916
SWIDTH 514 0
DWIDTH 20 0
BBX 20 38 2 -1
BITMAP
01C000
01C000
01C000
01C000
038000
038000
038070
000070
000070
0000E0
F80FE0
F80F80
F80F80
F80F80
F80F80
F80F80
F80F80
F80F80
F80F80
F80F80
F80F80
F80F80
F80F80
F80F80
F80F80
F80F80
F80F80
F80F80
F80F80
F80F80
F80F80
F81F00
7C3F00
7FFF00
3FFE00
1FFC00
0FF800
018000
ENDCHAR
STARTCHAR 1EED
ENCODING 7917
SWIDTH 514 0
DWIDTH 20 0
BBX 20 38 2 -1
BITMAP
01C000
01C000
01C000
01C000
038000
038000
038070
000070
000070
0000E0
F80FE0
F80F80
F80F80
F80F80
F80F80
F80F80
F80F80
F80F80
F80F80
F80F80
F80F80
F80F80
F80F80
F80F80
F80F80
F80F80
F80F80
F80F80
F80F80
F80F80
F80F80
F81F00
7C3F00
7FFF00
3FFE00
1FFC00
0FF800
018000
ENDCHAR
STARTCHAR 1EEE
ENCODING 7918
SWIDTH 514 0
DWIDTH 20 0
BBX 20 36 2 -1
BITMAP
0C0000
1FF000
1FF000
11F000
000070
000070
000070
0000E0
F80FE0
F80F80
F80F80
F80F80
F80F80
F80F80
F80F80
F80F80
F80F80
F80F80
F80F80
F80F80
F80F80
F80F80
F80F80
F80F80
F80F80
F80F80
F80F80
F80F80
F80F80
F81F00
7C3F00
7FFF00
3FFE00
1FFC00
0FF800
018000
ENDCHAR
STARTCHAR 1EEF
ENCODING 7919
SWIDTH 514 0
DWIDTH 20 0
BBX 20 36 2 -1
BITMAP
0C0000
1FF000
1FF000
11F000
000070
000070
000070
0000E0
F80FE0
F80F80
F80F80
F80F80
F80F80
F80F80
F80F80
F80F80
F80F80
F80F80
F80F80
F80F80
F80F80
F80F80
F80F80
F80F80
F80F80
F80F80
F80F80
F80F80
F80F80
F81F00
7C3F00
7FFF00
3FFE00
1FFC00
0FF800
018000
ENDCHAR
STARTCHAR 1EF0
ENCODING 7920
SWIDTH 514 0
DWIDTH 20 0
BBX 20 42 2 -11
BITMAP
000070
000070
000070
0000E0
F80FE0
F80F80
F80F80
F80F80
F80F80
F80F80
F80F80
F80F80
F80F80
F80F80
F80F80
F80F80
F80F80
F80F80
F80F80
F80F80
F80F80
F80F80
F80F80
F80F80
F80F80
F81F00
7C3F00
7FFF00
3FFE00
1FFC00
0FF800
018000
000000
000000
000000
008000
03E000
07E000
07E000
07E000
03E000
008000
ENDCHAR
STARTCHAR 1EF1
ENCODING 7921
SWIDTH 514 0
DWIDTH 20 0
BBX 20 42 2 -11
BITMAP
000070
000070
000070
0000E0
F80FE0
F80F80
F80F80
F80F80
F80F80
F80F80
F80F80
F80F80
F80F80
F80F80
F80F80
F80F80
F80F80
F80F80
F80F80
F80F80
F80F80
F80F80
F80F80
F80F80
F80F80
F81F00
7C3F00
7FFF00
3FFE00
1FFC00
0FF800
018000
000000
000000
000000
008000
03E000
07E000
07E000
07E000
03E000
008000
ENDCHAR
STARTCHAR 1EF2
ENCODING 7922
SWIDTH 514 0
DWIDTH 20 0
BBX 17 35 2 0
BITMAP
0F0000
070000
078000
038000
01C000
01C000
000000
000000
F00F80
F00F80
F00F80
F00F80
F00F80
F00F80
F00F80
F00F80
F00F80
F00F80
F00F80
F00F80
F00F80
F81F00
F81F00
FC3F00
7FFE00
7FFE00
3FFC00
1FF800
03E000
03E000
03E000
03E000
03E000
03E000
03E000
ENDCHAR
STARTCHAR 1EF3
ENCODING 7923
SWIDTH 514 0
DWIDTH 20 0
BBX 17 35 2 0
BITMAP
0F0000
070000
078000
038000
01C000
01C000
000000
000000
F00F80
F00F80
F00F80
F00F80
F00F80
F00F80
F00F80
F00F80
F00F80
F00F80
F00F80
F00F80
F00F80
F81F00
F81F00
FC3F00
7FFE00
7FFE00
3FFC00
1FF800
03E000
03E000
03E000
03E000
03E000
03E000
03E000
ENDCHAR
STARTCHAR 1EF4
ENCODING 7924
SWIDTH 514 0
DWIDTH 20 0
BBX 17 38 2 -11
BITMAP
F00F80
F00F80
F00F80
F00F80
F00F80
F00F80
F00F80
F00F80
F00F80
F00F80
F00F80
F00F80
F00F80
F81F00
F81F00
FC3F00
7FFE00
7FFE00
3FFC00
1FF800
03E000
03E000
03E000
03E000
03E000
03E000
03E000
000000
000000
000000
000000
008000
03E000
07E000
07E000
07E000
03E000
008000
ENDCHAR
STARTCHAR 1EF5
ENCODING 7925
SWIDTH 514 0
DWIDTH 20 0
BBX 17 38 2 -11
BITMAP
F00F80
F00F80
F00F80
F00F80
F00F80
F00F80
F00F80
F00F80
F00F80
F00F80
F00F80
F00F80
F00F80
F81F00
F81F00
FC3F00
7FFE00
7FFE00
3FFC00
1FF800
03E000
03E000
03E000
03E000
03E000
03E000
03E000
000000
000000
000000
000000
008000
03E000
07E000
07E000
07E000
03E000
008000
ENDCHAR
STARTCHAR 1EF6
ENCODING 7926
SWIDTH 514 0
DWIDTH 20 0
BBX 17 37 2 0
BITMAP
01C000
01C000
01C000
018000
038000
038000
038000
000000
000000
000000
F00F80
F00F80
F00F80
F00F80
F00F80
F00F80
F00F80
F00F80
F00F80
F00F80
F00F80
F00F80
F00F80
F81F00
F81F00
FC3F00
7FFE00
7FFE00
3FFC00
1FF800
03E000
03E000
03E000
03E000
03E000
03E000
03E000
ENDCHAR
STARTCHAR 1EF7
ENCODING 7927
SWIDTH 514 0
DWIDTH 20 0
BBX 17 37 2 0
BITMAP
01C000
01C000
01C000
018000
038000
038000
038000
000000
000000
000000
F00F80
F00F80
F00F80
F00F80
F00F80
F00F80
F00F80
F00F80
F00F80
F00F80
F00F80
F00F80
F00F80
F81F00
F81F00
FC3F00
7FFE00
7FFE00
3FFC00
1FF800
03E000
03E000
03E000
03E000
03E000
03E000
03E000
ENDCHAR
STARTCHAR 1EF8
ENCODING 7928
SWIDTH 514 0
DWIDTH 20 0
BBX 17 35 2 0
BITMAP
0C0000
1FF000
1FF000
13F000
000000
000000
000000
000000
F00F80
F00F80
F00F80
F00F80
F00F80
F00F80
F00F80
F00F80
F00F80
F00F80
F00F80
F00F80
F00F80
F81F00
F81F00
FC3F00
7FFE00
7FFE00
3FFC00
1FF800
03E000
03E000
03E000
03E000
03E000
03E000
03E000
ENDCHAR
STARTCHAR 1EF9
ENCODING 7929
SWIDTH 514 0
DWIDTH 20 0
BBX 17 35 2 0
BITMAP
0C0000
1FF000
1FF000
13F000
000000
000000
000000
000000
F00F80
F00F80
F00F80
F00F80
F00F80
F00F80
F00F80
F00F80
F00F80
F00F80
F00F80
F00F80
F00F80
F81F00
F81F00
FC3F00
7FFE00
7FFE00
3FFC00
1FF800
03E000
03E000
03E000
03E000
03E000
03E000
03E000
ENDCHAR
STARTCHAR 2013
ENCODING 8211
SWIDTH 565 0
DWIDTH 22 0
BBX 18 4 2 8
BITMAP
FFFFC0
FFFFC0
FFFFC0
FFFFC0
ENDCHAR
STARTCHAR 2014
ENCODING 8212
SWIDTH 822 0
DWIDTH 32 0
BBX 28 4 2 8
BITMAP
FFFFFFF0
FFFFFFF0
FFFFFFF0
FFFFFFF0
ENDCHAR
STARTCHAR 2018
ENCODING 8216
SWIDTH 231 0
DWIDTH 9 0
BBX 6 7 2 20
BITMAP
1C
38
38
38
78
78
F0
ENDCHAR
STARTCHAR 2019
ENCODING 8217
SWIDTH 231 0
DWIDTH 9 0
BBX 5 7 2 20
BITMAP
38
78
78
70
70
70
E0
ENDCHAR
STARTCHAR 201A
ENCODING 8218
SWIDTH 231 0
DWIDTH 9 0
BBX 6 8 2 -5
BITMAP
3C
78
78
70
70
70
E0
E0
ENDCHAR
STARTCHAR 201C
ENCODING 8220
SWIDTH 411 0
DWIDTH 16 0
BBX 12 7 3 20
BITMAP
3870
78E0
70E0
70E0
F1E0
F1E0
F3C0
ENDCHAR
STARTCHAR 201D
ENCODING 8221
SWIDTH 411 0
DWIDTH 16 0
BBX 12 7 2 20
BITMAP
38F0
78F0
78F0
70E0
70E0
71C0
E1C0
ENDCHAR
STARTCHAR 201E
ENCODING 8222
SWIDTH 437 0
DWIDTH 17 0
BBX 13 8 2 -5
BITMAP
3C78
7878
7870
7070
70F0
70E0
E0E0
E0E0
ENDCHAR
STARTCHAR 2020
ENCODING 8224
SWIDTH 411 0
DWIDTH 16 0
BBX 13 19 2 9
BITMAP
0700
0700
0700
0700
FFF8
FFF8
FFF8
0700
0700
0700
0700
0700
0700
0700
0700
0700
0700
0700
0700
ENDCHAR
STARTCHAR 2021
ENCODING 8225
SWIDTH 411 0
DWIDTH 16 0
BBX 13 19 2 9
BITMAP
0700
0700
0700
0700
FFF8
FFF8
FFF8
0700
0700
0700
0700
0700
FFF8
FFF8
FFF8
0700
0700
0700
0700
ENDCHAR
STARTCHAR 2022
ENCODING 8226
SWIDTH 334 0
DWIDTH 13 0
BBX 9 8 2 7
BITMAP
3E00
7F00
FF80
FF80
FF80
FF80
7F00
3E00
ENDCHAR
STARTCHAR 2026
ENCODING 8230
SWIDTH 694 0
DWIDTH 27 0
BBX 24 7 2 -1
BITMAP
30180C
7C7C3E
FC7E3F
FC7E7F
FC7E3F
7C3C3E
100008
ENDCHAR
STARTCHAR 2030
ENCODING 8240
SWIDTH 1337 0
DWIDTH 52 0
BBX 48 28 2 0
BITMAP
078000000000
1FE001E00000
3FF003C00000
7FF803800000
787C07800000
F03C0F000000
F03C1E000000
F03C1E000000
F03C3C000000
787C78000000
7FF878000000
3FF0F0000000
1FE1E0000000
0301C0000000
0003C0000000
000783E003F0
000F0FF807F8
000F1FFC0FFE
001E1FFE1FFE
003C3E1E3E1F
003C3C0F3C0F
00783C0F3C0F
00F03C0F3C0F
00E03C1E3C0F
01E03E3E1F1E
03C01FFE1FFE
07800FFC0FFC
078007F007F8
ENDCHAR
STARTCHAR 2039
ENCODING 8249
SWIDTH 385 0
DWIDTH 15 0
BBX 11 17 2 3
BITMAP
03E0
07C0
0F80
0F00
1E00
3E00
7C00
7800
F800
7C00
3C00
1E00
1F00
0F80
07C0
03C0
01E0
ENDCHAR
STARTCHAR 203A
ENCODING 8250
SWIDTH 385 0
DWIDTH 15 0
BBX 11 17 2 3
BITMAP
7800
3C00
3E00
1F00
0F00
0780
07C0
03E0
03E0
03C0
0780
0F80
1F00
1E00
3C00
7800
F800
ENDCHAR
STARTCHAR 2044
ENCODING 8260
SWIDTH 668 0
DWIDTH 26 0
BBX 22 27 2 0
BITMAP
00001C
00003C
000078
0000F0
0000F0
0001E0
0003C0
000380
000780
000F00
001E00
001E00
003C00
007800
007800
00F000
01E000
01C000
03C000
078000
0F0000
0F0000
1E0000
3C0000
3C0000
780000
F00000
ENDCHAR
STARTCHAR 20AC
ENCODING 8364
SWIDTH 642 0
DWIDTH 25 0
BBX 21 29 2 -1
BITMAP
0001F0
000FF8
003FF8
007FF8
01FFF8
01FC00
03F000
07E000
07C000
0FC000
FFFFC0
FFFFC0
FFFFC0
0F8000
1F8000
FFFFC0
FFFFC0
FFFFC0
FFFFC0
0FC000
07C000
07E000
03F800
01FE08
00FFF8
007FF8
003FF8
0007F8
000060
ENDCHAR
STARTCHAR 2122
ENCODING 8482
SWIDTH 822 0
DWIDTH 32 0
BBX 28 15 2 13
BITMAP
FFE02070
FFF03870
FFFC3C70
FFFE3F70
1E1FBFF0
1E1FFFF0
1E1FFBF0
1E1CF8F0
1E1C7870
1E1C3870
1E1C3870
1E1C3870
1E1C3870
1E1C3870
1E1C3870
ENDCHAR
STARTCHAR 2190
ENCODING 8592
SWIDTH 822 0
DWIDTH 32 0
BBX 27 18 3 5
BITMAP
00C00000
01E00000
03E00000
07C00000
0F800000
1F000000
3E000000
7FFFFFE0
FFFFFFE0
FFFFFFE0
7FFFFFE0
3E000000
1F000000
0F800000
07C00000
03E00000
01E00000
00C00000
ENDCHAR
STARTCHAR 2191
ENCODING 8593
SWIDTH 617 0
DWIDTH 24 0
BBX 20 28 2 0
BITMAP
002000
00F000
01F800
03FC00
07FE00
0FFF00
1FFF80
3FFFC0
7EF7E0
FCF3F0
78F1E0
30F0C0
00F000
00F000
00F000
00F000
00F000
00F000
00F000
00F000
00F000
00F000
00F000
00F000
00F000
00F000
00F000
00F000
ENDCHAR
STARTCHAR 2192
ENCODING 8594
SWIDTH 822 0
DWIDTH 32 0
BBX 28 20 2 4
BITMAP
00002000
00007000
0000F800
00007C00
00003E00
00001F00
00000F80
000007C0
FFFFFFE0
FFFFFFF0
FFFFFFF0
FFFFFFE0
000007C0
00000F80
00001F00
00003E00
00007C00
0000F800
00007000
00002000
ENDCHAR
STARTCHAR 2193
ENCODING 8595
SWIDTH 617 0
DWIDTH 24 0
BBX 18 27 3 -1
BITMAP
01E000
01E000
01E000
01E000
01E000
01E000
01E000
01E000
01E000
01E000
01E000
01E000
01E000
01E000
01E000
01E000
61E180
F1E3C0
F9E7C0
7DEF80
3FFF00
1FFE00
0FFC00
07F800
03F000
01E000
00C000
ENDCHAR
STARTCHAR 2194
ENCODING 8596
SWIDTH 925 0
DWIDTH 36 0
BBX 30 19 3 4
BITMAP
00000400
00C00E00
01E01F00
03E01F80
07C00FC0
0F8007E0
1F0003F0
3E0001F8
7FFFFFFC
FFFFFFFC
FFFFFFFC
7FFFFFF8
3E0001F0
1F0003E0
0F8007C0
07C00F80
03E01F00
01E01E00
00C00C00
ENDCHAR
STARTCHAR 2195
ENCODING 8597
SWIDTH 668 0
DWIDTH 26 0
BBX 22 28 2 -1
BITMAP
003000
007800
00FC00
01FF00
07FF80
0FFFC0
1F7BE0
3E79F8
FC78FC
787878
207818
007800
007800
007800
007800
007800
007800
207800
707838
78787C
7C78FC
3F79F0
1FFFE0
0FFFC0
03FF80
01FE00
00FC00
007800
ENDCHAR
STARTCHAR 2196
ENCODING 8598
SWIDTH 642 0
DWIDTH 25 0
BBX 21 21 2 3
BITMAP
FFFC00
FFFC00
FFFC00
FFFC00
FE0000
FF0000
FF8000
F7C000
F3E000
F1F000
F0F800
F07C00
F03E00
F01F80
000FC0
0007E0
0003F0
0001F8
0000F8
000070
000020
ENDCHAR
STARTCHAR 2197
ENCODING 8599
SWIDTH 642 0
DWIDTH 25 0
BBX 21 21 2 3
BITMAP
01FFF8
01FFF8
01FFF8
01FFF8
0003F8
0007F8
000FF8
001FB8
003F38
007E38
00FC38
01F838
03F038
07E038
0FC000
1F8000
3F0000
7E0000
FC0000
780000
300000
ENDCHAR
STARTCHAR 2198
ENCODING 8600
SWIDTH 642 0
DWIDTH 25 0
BBX 20 21 3 3
BITMAP
200000
700000
F80000
F80000
7C0000
3E0000
1F0000
0F8070
07C070
03E070
01F070
00F870
007C70
003E70
001F70
000FF0
0007F0
0003F0
03FFF0
03FFF0
03FFF0
ENDCHAR
STARTCHAR 2199
ENCODING 8601
SWIDTH 642 0
DWIDTH 25 0
BBX 21 21 2 3
BITMAP
000020
000070
0000F8
0001F8
0003F0
0007E0
000FC0
F01F80
F03F00
F07E00
F0FC00
F1F800
F3F000
F7E000
FFC000
FF8000
FF0000
FE0000
FFFC00
FFFC00
FFFC00
ENDCHAR
STARTCHAR 2202
ENCODING 8706
SWIDTH 591 0
DWIDTH 23 0
BBX 19 30 2 -1
BITMAP
030000
07C000
07E000
0FF800
07FC00
01FE00
00FF00
003F00
001F80
000FC0
0007C0
0087C0
07F3E0
1FFFE0
3FFFE0
7FFFE0
7F0FE0
7C07E0
FC03E0
F803E0
F803E0
F807E0
F807C0
7C0FC0
7E1F80
7FFF80
3FFF00
1FFE00
07F800
00C000
ENDCHAR
STARTCHAR 2205
ENCODING 8709
SWIDTH 720 0
DWIDTH 28 0
BBX 24 24 2 2
BITMAP
003E02
01FFC7
07FFFF
0F80FE
1E003C
3C007C
3800FE
7001E6
7003C7
600787
E00F03
E01E03
E03C03
E07803
60F007
71E007
73C006
3F800E
3F001C
1E003C
3F00F8
7FFFF0
F1FFC0
603E00
ENDCHAR
STARTCHAR 220F
ENCODING 8719
SWIDTH 642 0
DWIDTH 25 0
BBX 21 32 2 -4
BITMAP
FFFFF8
FFFFF8
FFFFF8
FFFFF8
1E03C0
1E03C0
1E03C0
1E03C0
1E03C0
1E03C0
1E03C0
1E03C0
1E03C0
1E03C0
1E03C0
1E03C0
1E03C0
1E03C0
1E03C0
1E03C0
1E03C0
1E03C0
1E03C0
1E03C0
1E03C0
1E03C0
1E03C0
1E03C0
1E03C0
1E03C0
1E03C0
1E03C0
ENDCHAR
STARTCHAR 2211
ENCODING 8721
SWIDTH 488 0
DWIDTH 19 0
BBX 16 32 2 -4
BITMAP
FFFF
FFFF
FFFF
FFFF
7C00
7C00
3E00
3E00
1F00
1F00
0F80
0780
07C0
03C0
03E0
01F0
01F0
03E0
03C0
07C0
0780
0F80
1F00
1F00
3E00
3C00
7C00
7800
FFFF
FFFF
FFFF
FFFF
ENDCHAR
STARTCHAR 2212
ENCODING 8722
SWIDTH 565 0
DWIDTH 22 0
BBX 18 4 2 11
BITMAP
FFFFC0
FFFFC0
FFFFC0
FFFFC0
ENDCHAR
STARTCHAR 221A
ENCODING 8730
SWIDTH 694 0
DWIDTH 27 0
BBX 24 32 2 -4
BITMAP
0001FF
0001FF
0003FF
0003FF
0003C0
0007C0
0007C0
000780
000780
000F80
000F00
000F00
000F00
001F00
001E00
001E00
F83E00
783C00
783C00
7C3C00
3C7C00
3C7800
3E7800
1EF800
1EF000
1FF000
0FF000
0FF000
0FE000
07E000
07E000
07C000
ENDCHAR
STARTCHAR 221E
ENCODING 8734
SWIDTH 822 0
DWIDTH 32 0
BBX 28 13 2 7
BITMAP
1FE03F80
3FF0FFC0
7FF9FFE0
707FE0F0
F01FC070
E00F8070
E00F0070
E01F8070
F03FC0F0
7CF9F9E0
3FF0FFE0
1FE07FC0
07800E00
ENDCHAR
STARTCHAR 222B
ENCODING 8747
SWIDTH 514 0
DWIDTH 20 0
BBX 16 32 2 -4
BITMAP
000F
003F
007F
007C
00F8
00F0
00F0
00F0
01F0
01E0
01E0
01E0
01E0
01E0
03E0
03C0
03C0
03C0
03C0
03C0
0780
0780
0780
0780
0780
0780
0F00
0F00
1F00
FE00
FE00
F800
ENDCHAR
STARTCHAR 2248
ENCODING 8776
SWIDTH 540 0
DWIDTH 21 0
BBX 17 13 2 6
BITMAP
FF8000
FFFF80
FFFF80
C7FF80
001F00
000000
000000
000000
7F0000
FFFF80
FFFF80
FFFF80
003F80
ENDCHAR
STARTCHAR 2260
ENCODING 8800
SWIDTH 565 0
DWIDTH 22 0
BBX 18 20 2 3
BITMAP
003C00
003C00
007800
007800
FFFFC0
FFFFC0
FFFFC0
FFFFC0
01E000
01E000
01C000
03C000
FFFFC0
FFFFC0
FFFFC0
FFFFC0
0F0000
0F0000
0F0000
1E0000
ENDCHAR
STARTCHAR 2264
ENCODING 8804
SWIDTH 565 0
DWIDTH 22 0
BBX 18 17 2 4
BITMAP
000040
0007C0
00FFC0
0FFFC0
FFFC00
FF8000
FC0000
FFE000
7FFF00
07FFC0
003FC0
0003C0
000000
000000
FFFFC0
FFFFC0
FFFFC0
ENDCHAR
STARTCHAR 2265
ENCODING 8805
SWIDTH 565 0
DWIDTH 22 0
BBX 18 17 2 4
BITMAP
800000
FC0000
FFC000
FFFE00
0FFFC0
007FC0
000FC0
01FFC0
3FFF80
FFF800
FF8000
F00000
000000
000000
FFFFC0
FFFFC0
FFFFC0
ENDCHAR
STARTCHAR 25CA
ENCODING 9674
SWIDTH 514 0
DWIDTH 20 0
BBX 16 22 2 3
BITMAP
07E0
07E0
0FF0
0FF0
1E78
1E78
3C3C
3C3C
781E
781E
F00F
F00F
781E
7C1E
3C3C
3E3C
1E78
1F78
0FF0
07F0
07E0
03E0
ENDCHAR
ENDFONT
